<?xml version="1.0" standalone="no"?>
<!DOCTYPE svg PUBLIC "-//W3C//DTD SVG 1.1//EN" "http://www.w3.org/Graphics/SVG/1.1/DTD/svg11.dtd" >
<svg xmlns="http://www.w3.org/2000/svg" xmlns:xlink="http://www.w3.org/1999/xlink" version="1.1">
<metadata>
Created by FontForge 20190801 at Sun Mar  8 22:10:31 2020
 By www-data
Copyright (c) 2020 by atipo :. All rights reserved.
</metadata>
<defs>
<font id="ArgestaDisplay" horiz-adv-x="0" >
  <font-face 
    font-family="ArgestaDisplay"
    font-weight="400"
    font-stretch="normal"
    units-per-em="2048"
    panose-1="0 0 5 0 0 0 0 0 0 0"
    ascent="1536"
    descent="-512"
    x-height="983"
    cap-height="1434"
    bbox="-713 -512 2465 1922"
    underline-thickness="102"
    underline-position="-612"
    unicode-range="U+0020-FB03"
  />
<missing-glyph horiz-adv-x="555" 
 />
    <glyph glyph-name=".notdef" horiz-adv-x="555" 
 />
    <glyph glyph-name=".null" 
 />
    <glyph glyph-name="nonmarkingreturn" horiz-adv-x="682" 
 />
    <glyph glyph-name="space" unicode=" " horiz-adv-x="555" 
 />
    <glyph glyph-name="exclam" unicode="!" horiz-adv-x="589" 
d="M184 74q0 46 33 78q34 32 79 32t79 -32q33 -32 33 -78t-33 -79t-79 -33t-79 33t-33 79zM203 1434h180l-64 -1067h-51z" />
    <glyph glyph-name="quotedbl" unicode="&#x22;" horiz-adv-x="749" 
d="M123 1434h182l-72 -523h-38zM444 1434h183l-72 -523h-39z" />
    <glyph glyph-name="numbersign" unicode="#" horiz-adv-x="964" 
d="M123 608v64h176l33 196h-209v64h219l49 289h68l-49 -289h198l49 289h68l-49 -289h166v-64h-176l-33 -196h209v-64h-219l-50 -289h-67l49 289h-199l-49 -289h-67l49 289h-166zM367 672h198l33 196h-199z" />
    <glyph glyph-name="dollar" unicode="$" horiz-adv-x="1122" 
d="M92 37l3 344h37l105 -238q83 -68 180 -92l57 658l-2 2q-74 31 -129 66q-54 34 -103 81q-47 46 -73 108q-25 60 -25 138q0 154 114 255q115 101 289 110l12 142h72l-13 -142q146 -8 291 -61l-6 -328h-37l-104 242q-66 49 -152 66l-45 -517q6 -4 18 -8t18 -8
q210 -95 305 -202q96 -108 96 -271q0 -185 -133 -302t-363 -117h-25l-16 -172h-72l17 176q-139 11 -316 70zM292 1157l1 -1q0 -93 45 -147t155 -108l43 492q-107 -2 -175 -67q-69 -66 -69 -169zM487 40l17 -1q146 0 237 78t91 217q0 122 -73 199q-74 78 -214 144z" />
    <glyph glyph-name="percent" unicode="%" horiz-adv-x="1515" 
d="M123 1120q1 145 71 248q69 102 194 102q85 0 147 -50q61 -49 90 -128q29 -78 27 -171q-1 -145 -71 -248q-69 -102 -194 -102q-85 0 -147 50q-61 49 -90 128q-28 78 -27 171zM233 1120q0 -124 42 -211t114 -87t114 87t42 211q0 126 -42 213t-114 87t-114 -87t-42 -213z
M299 -100l831 1634h87l-828 -1634h-90zM860 313l-2 1q1 146 71 249q69 102 194 102q85 0 147 -51q62 -52 92 -129q30 -79 29 -171q-2 -146 -72 -248q-71 -102 -195 -102q-85 0 -147 50q-61 49 -90 128q-29 78 -27 171zM969 314l-1 -3q0 -125 42 -210q42 -86 114 -86t114 87
t42 211q0 126 -42 213t-114 87q-155 0 -155 -299z" />
    <glyph glyph-name="ampersand" unicode="&#x26;" horiz-adv-x="1447" 
d="M102 401l-3 1q0 154 90 261q89 106 239 142q-112 28 -193 117q-81 88 -81 222q0 146 114 237q113 91 283 91q77 0 141 -10q68 -10 102 -21t90 -30l-6 -328h-37l-109 252q-78 72 -180 72q-104 0 -168 -75q-65 -76 -65 -193q0 -141 90 -231t234 -90h703l-3 -282h-36
l-76 208h-197v-364q0 -190 -120 -303q-121 -113 -337 -113q-208 0 -342 116q-133 115 -133 321zM284 390v1q0 -176 79 -271q79 -96 213 -96q148 1 216 77t68 243v401h-215q-79 0 -142 -18q-64 -18 -114 -58q-51 -41 -78 -111t-27 -168z" />
    <glyph glyph-name="quotesingle" unicode="'" horiz-adv-x="428" 
d="M123 1434h182l-72 -523h-38z" />
    <glyph glyph-name="parenleft" unicode="(" horiz-adv-x="997" 
d="M123 573v-3q0 182 55 344q56 165 151 288q96 124 225 213t279 126v-45q-240 -84 -395 -337q-156 -253 -156 -588q0 -334 156 -586t395 -336v-45q-149 37 -279 125q-128 86 -225 212q-95 123 -151 288q-55 162 -55 344z" />
    <glyph glyph-name="parenright" unicode=")" horiz-adv-x="997" 
d="M164 -350v1q239 84 395 336t156 587q0 334 -156 588q-155 253 -395 337v45q150 -38 279 -126t225 -213q95 -123 151 -288q55 -162 55 -345q0 -181 -55 -343q-56 -165 -151 -288t-225 -211t-279 -125v45z" />
    <glyph glyph-name="asterisk" unicode="*" horiz-adv-x="788" 
d="M61 952l263 131l-263 125l66 111l231 -166l-26 281h127l-27 -281l230 166l65 -111l-262 -125l262 -131l-63 -104l-232 166l23 -283h-123l26 283l-233 -166z" />
    <glyph glyph-name="plus" unicode="+" horiz-adv-x="1058" 
d="M10 543v106h467v463h107v-463h465v-106h-465v-465h-107v465h-467z" />
    <glyph glyph-name="comma" unicode="," horiz-adv-x="450" 
d="M82 -303l100 475h187v-51l-234 -424h-53z" />
    <glyph glyph-name="hyphen" unicode="-" horiz-adv-x="579" 
d="M61 512v90h457v-90h-457z" />
    <glyph glyph-name="period" unicode="." horiz-adv-x="385" 
d="M82 74q0 46 33 78q34 32 79 32q46 0 78 -32t32 -78q0 -45 -32 -79q-32 -33 -78 -33t-79 33t-33 79z" />
    <glyph glyph-name="slash" unicode="/" horiz-adv-x="964" 
d="M82 -193l713 1737h88l-709 -1737h-92z" />
    <glyph glyph-name="zero" unicode="0" horiz-adv-x="1208" 
d="M143 717l-2 -1q0 215 51 383t158 269t252 101q146 0 252 -100q107 -101 158 -269t51 -383t-51 -383q-51 -169 -157 -269q-107 -101 -252 -101t-252 101q-106 100 -157 269q-51 168 -51 383zM311 716q0 -694 291 -694t291 694t-291 694t-291 -694z" />
    <glyph glyph-name="one" unicode="1" horiz-adv-x="860" 
d="M184 1274v39l336 121h19v-1348l157 -53v-33h-479v37l168 49v1188h-201z" />
    <glyph glyph-name="two" unicode="2" horiz-adv-x="1157" 
d="M164 0l4 135l493 582q166 197 166 393q0 130 -75 213q-75 82 -192 82q-124 0 -207 -72l-108 -252h-37l-6 328q174 61 357 61q194 0 315 -95q120 -95 120 -275q0 -126 -61 -236q-61 -111 -171 -225l-465 -485h557l82 155h37v-309h-809z" />
    <glyph glyph-name="three" unicode="3" horiz-adv-x="1140" 
d="M123 25l3 331h37l108 -258q77 -71 207 -71q88 0 161 53q72 52 111 138t39 184q0 100 -32 170t-93 107q-63 38 -138 53q-76 15 -180 15v74h47q150 0 257 91q108 92 108 229q0 113 -67 190q-67 78 -180 78q-61 0 -115 -19q-56 -20 -93 -54l-108 -252h-37l-6 328
q171 61 358 61q180 0 296 -82q117 -83 117 -225q0 -148 -87 -243q-87 -94 -229 -118q160 -22 265 -135q105 -112 105 -266q0 -186 -138 -312t-358 -126q-41 0 -81 3q-39 3 -67 6q-26 3 -64 12q-37 9 -51 12q-5 1 -51 14z" />
    <glyph glyph-name="four" unicode="4" horiz-adv-x="1081" 
d="M82 410v94l627 930h120v-930h170v-94h-170v-324l123 -53v-33h-411v37l135 49v324h-594zM182 502h494v723z" />
    <glyph glyph-name="five" unicode="5" horiz-adv-x="1148" 
d="M164 45l5 290h37l108 -248q76 -55 174 -55q83 0 147 32t101 87q38 56 56 125t18 150q0 166 -87 278q-87 113 -219 113q-138 0 -225 -108l-68 41l14 684h670v-158h-590l-10 -457q95 86 255 86q122 0 222 -60q101 -60 156 -163q56 -104 56 -226q0 -134 -61 -246t-176 -180
q-113 -67 -258 -67q-148 0 -325 82z" />
    <glyph glyph-name="six" unicode="6" horiz-adv-x="1183" 
d="M164 633v-2q0 172 33 322q33 151 96 266t165 183q101 67 229 67q133 0 264 -61l-6 -272h-37l-90 229q-58 39 -135 39q-61 0 -112 -30t-87 -81t-63 -114q-26 -61 -43 -138q-15 -68 -25 -143q-8 -60 -13 -137q100 123 264 123q186 0 301 -129q115 -128 115 -327
q0 -200 -118 -333t-300 -133q-80 0 -147 30t-114 83q-44 50 -82 119q-35 64 -55 143q-20 77 -30 150q-10 70 -10 146zM336 584l-1 2q0 -125 15 -224q15 -97 47 -177q31 -78 87 -120t130 -42q67 0 116 35q48 35 74 95q24 58 37 128q12 67 12 147q0 68 -17 138q-17 68 -48 125
q-32 57 -86 92q-55 35 -122 35q-138 0 -240 -135q-4 -52 -4 -99z" />
    <glyph glyph-name="seven" unicode="7" horiz-adv-x="1179" 
d="M133 1108l14 325h900v-119q-102 -116 -192 -258q-89 -141 -166 -310q-75 -165 -121 -362q-45 -194 -45 -384h-164q0 157 37 314q37 158 95 290q56 128 137 261q79 130 155 227q78 99 159 188h-661l-111 -172h-37z" />
    <glyph glyph-name="eight" unicode="8" horiz-adv-x="1196" 
d="M143 332l-3 -1q0 78 25 141q26 65 72 116q49 53 100 89q55 38 124 72q-131 81 -189 171q-58 89 -58 205q0 153 111 249t278 96q155 0 267 -89q111 -89 111 -234q0 -229 -270 -348q88 -44 145 -82q60 -40 105 -88q47 -49 69 -111q22 -60 22 -138q0 -182 -130 -300
t-339 -118q-190 0 -315 104t-125 266zM271 329l-1 2q0 -125 84 -216t228 -91q140 0 231 87t91 215q0 52 -15 96q-15 45 -40 78q-27 36 -70 68q-49 36 -91 59q-46 25 -117 60q-18 8 -33 17q-267 -135 -267 -375zM350 1158l-2 -2q0 -100 64 -171q64 -72 231 -156
q100 58 153 140t53 173q0 118 -71 191q-70 72 -183 72q-108 0 -176 -67q-69 -68 -69 -180z" />
    <glyph glyph-name="nine" unicode="9" horiz-adv-x="1183" 
d="M164 1006l-5 -1q0 201 118 332q119 132 300 132q79 0 147 -30t114 -82t82 -118q37 -68 56 -142q20 -77 30 -150q10 -70 10 -145q0 -172 -33 -322q-33 -151 -96 -266q-63 -116 -165 -183q-101 -67 -229 -67q-129 0 -264 62l7 272h36l91 -229q59 -39 135 -39q62 0 113 30
t87 81t63 114q28 65 44 138q18 80 26 143q8 60 13 137q-100 -123 -264 -123q-186 0 -301 129q-115 128 -115 327zM325 1005v-3q0 -98 28 -183q28 -86 93 -148q64 -61 153 -61q137 0 240 136q4 52 4 99q0 125 -15 224t-48 177q-33 79 -88 120q-55 42 -130 42q-68 0 -115 -34
q-48 -34 -73 -94q-24 -58 -37 -128q-12 -68 -12 -147z" />
    <glyph glyph-name="colon" unicode=":" horiz-adv-x="385" 
d="M82 74q0 46 33 78q34 32 79 32q46 0 78 -32t32 -78q0 -45 -32 -79q-32 -33 -78 -33t-79 33t-33 79zM82 846q0 46 33 78q34 32 79 32q46 0 78 -32t32 -78q0 -45 -32 -79q-32 -33 -78 -33t-79 33t-33 79z" />
    <glyph glyph-name="semicolon" unicode=";" horiz-adv-x="589" 
d="M104 -303l101 475h186v-51l-233 -424h-54zM184 846q0 46 33 78q34 32 79 32t79 -32q33 -32 33 -78t-33 -79t-79 -33t-79 33t-33 79z" />
    <glyph glyph-name="less" unicode="&#x3c;" horiz-adv-x="1058" 
d="M10 537v125l1039 471v-121l-926 -412l926 -412v-120z" />
    <glyph glyph-name="equal" unicode="=" horiz-adv-x="1058" 
d="M10 385v104h1039v-104h-1039zM10 698v107h1039v-107h-1039z" />
    <glyph glyph-name="greater" unicode="&#x3e;" horiz-adv-x="1058" 
d="M10 68v120l926 412l-926 412v121l1039 -471v-125z" />
    <glyph glyph-name="question" unicode="?" horiz-adv-x="919" 
d="M123 1409h-1q147 61 297 61q163 0 270 -87t107 -229q0 -76 -21 -138q-20 -60 -56 -103q-36 -44 -76 -81q-42 -39 -84 -81q-41 -42 -76 -91q-36 -51 -56 -124q-21 -75 -21 -170h-74q0 128 30 227t72 162q39 59 84 118q42 55 72 123t30 149q0 109 -64 182q-65 74 -165 74
q-71 0 -129 -47l-96 -213h-37zM259 74q0 46 33 78q34 32 79 32q46 0 78 -32t32 -78q0 -45 -32 -79q-31 -33 -78 -33q-46 0 -79 33t-33 79z" />
    <glyph glyph-name="at" unicode="@" horiz-adv-x="1888" 
d="M123 231l-4 -9q0 176 47 343q46 164 134 297q88 134 205 230q120 98 267 152q148 54 312 54q159 0 287 -49q130 -50 215 -135q86 -86 132 -198q46 -111 46 -240q0 -192 -72 -354q-71 -161 -194 -256q-121 -94 -264 -94q-88 0 -130 48t-25 132l15 69q-52 -105 -138 -177
t-172 -72q-124 0 -185 76q-62 77 -62 211q0 159 71 312q70 151 189 246q118 94 249 94q67 0 114 -32q46 -31 60 -74l139 92l-154 -708q-44 -152 63 -152q80 0 161 89q80 88 133 238q53 151 53 309q0 75 -18 149t-60 147q-41 73 -104 129q-62 56 -157 90q-97 35 -211 35
q-168 0 -318 -84q-151 -84 -252 -220q-103 -137 -161 -311q-59 -175 -59 -355q0 -280 155 -435t423 -155q235 0 459 115l28 -66q-254 -131 -520 -131q-202 0 -360 78q-157 78 -247 226q-90 149 -90 346zM690 255q0 -120 31 -166t88 -46q61 0 130 63t120 150t75 170l57 287
q-7 49 -42 88t-90 39q-69 0 -139 -53q-68 -52 -118 -135q-50 -82 -81 -189q-31 -105 -31 -208z" />
    <glyph glyph-name="A" unicode="A" horiz-adv-x="1449" 
d="M61 0v33l121 53l445 1178l-70 170h174l561 -1348l97 -53v-33h-418v33l131 53l-146 360h-536l-129 -360l143 -53v-33h-373zM453 535h467l-248 612z" />
    <glyph glyph-name="B" unicode="B" horiz-adv-x="1329" 
d="M143 0l-1 36l111 49v1262l-111 49v37h592q194 0 309 -87q116 -87 116 -235q0 -149 -90 -237q-90 -89 -232 -111q84 -9 153 -37q70 -28 126 -75q55 -46 87 -116t32 -154q0 -110 -59 -199q-58 -88 -156 -135q-99 -47 -213 -47h-664zM425 798l244 -1q153 0 230 73
q78 74 78 198q0 131 -75 206t-215 75h-262v-551zM429 82h257q176 0 272 78t96 239q-2 149 -111 237q-106 83 -256 83h-18h-240v-637z" />
    <glyph glyph-name="C" unicode="C" horiz-adv-x="1404" 
d="M123 717h-2q0 174 55 315q56 142 150 237q94 94 224 147t276 53q119 0 215 -14q90 -13 207 -47l-6 -328h-37l-125 242q-113 74 -252 74q-127 0 -225 -52q-99 -52 -162 -144q-63 -91 -96 -215q-33 -123 -33 -269q0 -116 17 -218q17 -100 55 -184q39 -85 98 -144
q58 -58 147 -91t201 -33q57 0 135 21q77 21 130 57l125 227h36l7 -319q-240 -70 -435 -70q-153 0 -285 53q-129 52 -223 149q-92 95 -145 238q-52 141 -52 315z" />
    <glyph glyph-name="D" unicode="D" horiz-adv-x="1509" 
d="M143 0l-1 35l111 49v1260l-111 49v39h537q179 0 314 -55q137 -56 221 -153q85 -98 128 -225q43 -126 43 -279q0 -120 -28 -225q-29 -108 -85 -198t-140 -157q-81 -65 -198 -103q-114 -37 -254 -37h-537zM425 86l232 -1q107 0 198 35q92 35 152 94q61 60 105 141t63 172
q20 94 20 190q0 631 -537 631h-233v-1262z" />
    <glyph glyph-name="E" unicode="E" horiz-adv-x="1280" 
d="M143 1397v37h938l31 -330h-37l-135 246h-512v-557l475 10v-107l-475 17v-625h588l125 260h37l-21 -348h-1012v37l111 49l-2 1262z" />
    <glyph glyph-name="F" unicode="F" horiz-adv-x="1214" 
d="M143 1397v37h938l31 -330h-37l-135 246h-512v-578l475 10v-106l-475 16v-600l147 -59v-33h-430v37l111 49l-2 1262z" />
    <glyph glyph-name="G" unicode="G" horiz-adv-x="1542" 
d="M123 717v3q0 172 57 315t156 237t234 147q136 53 290 53q219 0 432 -61l-6 -328h-37l-125 236q-131 74 -282 74q-167 0 -289 -89q-121 -88 -181 -239q-60 -150 -60 -345q0 -112 18 -211q18 -98 57 -184q39 -84 98 -147q58 -61 143 -96q83 -34 188 -34q92 0 182 30t153 78
v465l-211 59v37h490v-33l-107 -53v-535q-205 -133 -516 -133q-211 0 -368 95t-236 264q-80 171 -80 395z" />
    <glyph glyph-name="H" unicode="H" horiz-adv-x="1570" 
d="M143 0v37l111 49v1262l-111 49v37h389v-33l-106 -53v-535h723v535l-111 49v37h389v-33l-106 -53v-1262l106 -53v-33h-389v37l111 49v635h-723v-635l106 -53v-33h-389z" />
    <glyph glyph-name="I" unicode="I" horiz-adv-x="675" 
d="M143 0v37l111 49v1262l-111 49v37h389v-33l-106 -53v-1262l106 -53v-33h-389z" />
    <glyph glyph-name="J" unicode="J" horiz-adv-x="909" 
d="M82 20l4 288h37l94 -246q45 -30 107 -30q52 0 86 24t54 72t27 111q8 67 8 149v961l-136 49v37h414v-33l-106 -53v-967q0 -111 -28 -192q-29 -83 -78 -131t-111 -72t-135 -24q-107 0 -237 57z" />
    <glyph glyph-name="K" unicode="K" horiz-adv-x="1421" 
d="M143 0v37l111 49v1262l-111 49v37h392v-33l-107 -53l-2 -1262l109 -53v-33h-392zM451 774l555 574l-132 49v37h439v-33l-148 -53l-553 -506l627 -756l121 -53v-33h-461v37l113 45z" />
    <glyph glyph-name="L" unicode="L" horiz-adv-x="1222" 
d="M143 0v37l111 49v1262l-111 49v37h389v-33l-106 -53v-1260h522l125 260h37l-20 -348h-947z" />
    <glyph glyph-name="M" unicode="M" horiz-adv-x="1736" 
d="M143 0v37l111 49v1262l-111 49v37h328l391 -1166l410 1166h321v-37l-110 -49v-1262l108 -53v-33h-387v37l111 49v1214l-459 -1302h-80l-432 1288v-1200l111 -53v-33h-312z" />
    <glyph glyph-name="N" unicode="N" horiz-adv-x="1468" 
d="M123 0v37l110 49v1262l-104 49v37h315l697 -1100v1014l-121 49v37h326v-33l-111 -53v-1366h-76l-831 1323v-1219l121 -53v-33h-326z" />
    <glyph glyph-name="O" unicode="O" horiz-adv-x="1548" 
d="M123 717v9q0 207 77 375q80 171 229 270q150 99 346 99t346 -99q149 -99 229 -270q77 -168 77 -374v-10v-11q0 -207 -77 -375q-80 -171 -229 -270q-150 -99 -346 -99t-346 99q-149 99 -229 270q-77 168 -77 375v11zM307 715v-4q0 -116 15 -215q15 -97 50 -186
q34 -87 87 -147q52 -59 132 -94q78 -34 180 -34q99 0 180 35q79 34 132 95q53 60 87 147q35 89 50 186q15 99 15 215t-15 215q-15 97 -50 186q-34 87 -87 147q-53 61 -132 95q-81 35 -180 35q-102 0 -180 -34q-79 -34 -132 -95q-53 -60 -87 -147q-35 -89 -50 -186
q-15 -99 -15 -214z" />
    <glyph glyph-name="P" unicode="P" horiz-adv-x="1255" 
d="M143 0l1 39l111 49v1262l-111 49v37h553q204 0 330 -105t126 -283q0 -175 -129 -292t-328 -117h-270v-547l131 -59v-33h-414zM427 725h216q157 0 243 87q86 88 86 236q0 166 -81 235t-249 69h-215v-627z" />
    <glyph glyph-name="Q" unicode="Q" horiz-adv-x="1548" 
d="M123 717l-3 10q0 206 77 374q80 171 229 270q150 99 346 99t346 -99q149 -99 229 -270q77 -168 77 -374v-11v-11q0 -205 -75 -372q-76 -169 -223 -268q-146 -98 -339 -103q99 -106 256 -172t327 -66l-88 -160q-97 14 -203 66q-108 53 -204 142q-98 90 -144 193
q-185 11 -324 111t-213 267q-71 165 -71 363v11zM304 716v-4q0 -116 15 -215q15 -97 50 -186q35 -87 87 -147q52 -59 132 -94q78 -34 180 -34q99 0 180 35q79 34 132 95q52 60 87 147q35 89 50 186q15 99 15 215t-15 215q-15 97 -50 186q-35 87 -87 147q-53 61 -132 95
q-81 35 -180 35q-102 0 -180 -34q-79 -34 -132 -95q-52 -60 -87 -147q-35 -89 -50 -186q-15 -99 -15 -214z" />
    <glyph glyph-name="R" unicode="R" horiz-adv-x="1406" 
d="M143 0l-1 38l111 49v1262l-111 49v37h596q190 0 312 -114q121 -114 121 -292q0 -78 -31 -147q-32 -71 -88 -126t-144 -88q-87 -33 -191 -33q80 -23 139 -73t120 -137l192 -281q36 -52 73 -76q37 -23 106 -31v-37h-293l-301 463q-56 85 -123 125q-68 41 -157 41h-53v-537
l127 -59v-33h-404zM419 706l274 -2q74 0 134 30q61 30 95 78q35 49 53 104t18 113q0 151 -75 236q-75 86 -225 86h-274v-645z" />
    <glyph glyph-name="S" unicode="S" horiz-adv-x="1122" 
d="M92 37l1 339h37l105 -238q121 -102 267 -102t237 78t91 217q0 60 -19 108q-20 52 -49 86q-32 38 -79 71q-53 37 -97 59q-57 29 -115 53q-73 32 -129 66q-54 34 -103 81q-47 46 -73 108q-25 60 -25 138q0 163 123 263q124 101 309 101q162 0 333 -61l-6 -328h-37l-104 242
q-99 72 -217 72q-110 0 -180 -66t-70 -171q0 -47 12 -83t33 -63t63 -54t84 -48q32 -16 116 -52q210 -95 305 -202q96 -108 96 -271q0 -185 -133 -302q-134 -117 -363 -117q-91 0 -172 13q-83 13 -130 27q-47 13 -111 36z" />
    <glyph glyph-name="T" unicode="T" horiz-adv-x="1359" 
d="M113 1102v332h1134l-2 -332h-37l-116 250h-326v-1266l127 -53v-33h-430v37l131 49l-2 1266h-324l-118 -250h-37z" />
    <glyph glyph-name="U" unicode="U" horiz-adv-x="1495" 
d="M123 1397l-1 36h389v-33l-106 -53v-908q0 -185 90 -288q90 -104 267 -104q191 0 297 104q105 103 105 288v908l-110 49v37h317v-33l-106 -53v-893q0 -233 -138 -362t-371 -129q-244 0 -384 126q-139 126 -139 366v893z" />
    <glyph glyph-name="V" unicode="V" horiz-adv-x="1402" 
d="M61 1397v37h390v-33l-121 -53l399 -1096l422 1096l-135 53v33h325v-37l-88 -49l-532 -1364h-70l-501 1364z" />
    <glyph glyph-name="W" unicode="W" horiz-adv-x="1961" 
d="M61 1397v37h398v-33l-129 -53l319 -1043l273 795l-82 248l-95 49v37h381v-33l-106 -53l321 -1067l353 1067l-135 53v33h342v-37l-97 -49l-471 -1364h-63l-309 977l-330 -977l-51 2l-430 1362z" />
    <glyph glyph-name="X" unicode="X" horiz-adv-x="1325" 
d="M61 0v37l95 49l411 653l-387 609l-88 49v37h400v-33l-121 -53l315 -490l307 490l-129 53v33h330v-37l-88 -49l-365 -580l443 -682l80 -49v-37h-400v33l121 53l-364 561l-353 -561l164 -53v-33h-371z" />
    <glyph glyph-name="Y" unicode="Y" horiz-adv-x="1359" 
d="M61 1397v37h402v-33l-121 -53l391 -648l367 648l-150 53v33h348v-37l-84 -49l-446 -740v-522l117 -53v-33h-400v37l111 49v516l-446 746z" />
    <glyph glyph-name="Z" unicode="Z" horiz-adv-x="1261" 
d="M92 0v72l850 1280h-608l-129 -250h-37v332h960v-101l-823 -1249l660 2l137 266h37v-352h-1047z" />
    <glyph glyph-name="bracketleft" unicode="[" horiz-adv-x="698" 
d="M123 -395v1937h412v-37l-259 -65v-1733l259 -65v-37h-412z" />
    <glyph glyph-name="backslash" unicode="\" horiz-adv-x="964" 
d="M82 1544h88l713 -1737h-92z" />
    <glyph glyph-name="bracketright" unicode="]" horiz-adv-x="698" 
d="M164 -358l258 65v1733l-258 65v37h411v-1937h-411v37z" />
    <glyph glyph-name="asciicircum" unicode="^" horiz-adv-x="962" 
d="M61 705l369 729h102l369 -729h-125l-295 602l-295 -602h-125z" />
    <glyph glyph-name="underscore" unicode="_" horiz-adv-x="1024" 
d="M-20 -299h1064v-123h-1064v123z" />
    <glyph glyph-name="grave" unicode="`" horiz-adv-x="653" 
d="M102 1343l56 127h28l365 -268l-19 -37z" />
    <glyph glyph-name="a" unicode="a" horiz-adv-x="1062" 
d="M92 252l-1 -4q0 90 54 163t146 120q93 47 204 71q113 24 234 24q0 139 -70 215q-71 77 -195 77q-88 0 -157 -42t-112 -112l-68 45q114 209 354 209q187 0 294 -111q107 -112 107 -308v-514l98 -53v-33h-233l-11 141q-38 -73 -117 -125q-80 -53 -196 -53q-156 0 -244 77
q-87 77 -87 213zM255 254l-1 -3q0 -99 55 -155q55 -57 148 -57q110 0 191 90t81 204v225q-113 -9 -192 -28q-82 -19 -148 -54q-65 -34 -100 -90q-34 -55 -34 -132z" />
    <glyph glyph-name="b" unicode="b" horiz-adv-x="1171" 
d="M82 1399v33l254 10v-539q118 115 291 115q202 0 332 -148q131 -149 131 -363q0 -151 -63 -276q-63 -124 -177 -196t-258 -72q-159 0 -287 103l-74 -86h-45l-6 1368zM336 143l-1 1q107 -104 255 -104q147 0 232 129q85 128 85 327q0 119 -33 218q-33 100 -106 165
q-74 66 -177 66q-77 0 -144 -37q-67 -38 -111 -93v-672z" />
    <glyph glyph-name="c" unicode="c" horiz-adv-x="1073" 
d="M82 485l-4 -5q0 231 146 383t372 152q44 0 86 -3t84 -9q49 -7 63 -10q5 -1 26 -5.5t37 -7.5q45 -10 46 -10l-2 -322h-37l-88 228q-86 77 -216 77q-65 0 -120 -27t-94 -72q-39 -44 -66 -104q-27 -58 -39 -122q-12 -63 -12 -125q0 -195 96 -323t261 -128q75 0 153 29
q77 29 128 72l37 -58q-133 -133 -340 -133q-224 0 -370 142q-147 142 -147 381z" />
    <glyph glyph-name="d" unicode="d" horiz-adv-x="1206" 
d="M82 485h-2q0 145 62 267t177 195t261 73q74 0 150 -30t121 -84v443l-98 51v35l249 10v-1331l103 -56v-34l-254 -23v80q-47 -51 -120 -84t-162 -33q-139 0 -252 71t-174 189t-61 261zM260 492l-3 -1q0 -195 90 -323t242 -128q73 0 148 42q74 42 109 102v621
q-44 65 -114 102q-71 38 -144 38q-158 0 -243 -126q-85 -125 -85 -327z" />
    <glyph glyph-name="e" unicode="e" horiz-adv-x="1083" 
d="M82 514l-2 -2q0 106 39 201t105 161t156 105t191 39q146 0 247 -66q100 -64 142 -172q38 -94 39 -213q0 -22 -1 -33l-745 -3q0 -225 104 -352q104 -126 275 -126q84 0 168 39q85 39 137 93l49 -51q-76 -81 -167 -126q-90 -45 -225 -45q-107 0 -201 38q-92 37 -162 107
q-68 68 -109 174q-40 104 -40 232zM262 610l569 -2q-4 152 -71 246q-66 93 -200 93q-116 0 -200 -96q-85 -97 -98 -241z" />
    <glyph glyph-name="f" unicode="f" horiz-adv-x="684" 
d="M92 891l-2 65l113 27v23q0 200 78 332t214 132q75 0 147 -32l-2 -277h-37l-72 205q-31 18 -72 18q-53 0 -86 -40q-29 -38 -29 -96v-15l14 -250h209v-92h-209l2 -799l134 -59v-33h-390v37l101 49v805h-113z" />
    <glyph glyph-name="g" unicode="g" horiz-adv-x="1187" 
d="M102 176l-3 3q0 78 48 138t123 99q-96 99 -96 247q0 113 55 196q56 85 144 125q90 41 195 41q117 0 211 -49l287 49h16v-119h-211q93 -96 93 -242q0 -113 -55 -195q-55 -83 -144 -123q-90 -41 -195 -41q-135 0 -239 66q-52 -24 -88 -66t-36 -91q0 -60 53 -84
q52 -24 168 -24h313q157 0 240 -54t83 -185q0 -103 -69 -184t-178 -123t-240 -42q-178 0 -277 63t-99 184q0 65 30 126l156 33l4 -14q-43 -76 -43 -146q0 -79 63 -133t187 -54q81 0 158 30q76 30 129 92t53 138q0 56 -43 86t-126 30h-354q-160 0 -237 59q-76 58 -76 164z
M337 662q0 -131 60 -215t172 -84t172 84t60 215t-60 215t-172 84t-172 -84t-60 -215z" />
    <glyph glyph-name="h" unicode="h" horiz-adv-x="1169" 
d="M92 0l-2 37l101 49v1262l-99 51v35l250 10v-572q44 69 121 108q78 39 172 39q159 0 251 -90t92 -237v-606l98 -53v-33h-354v37l100 49v600q0 118 -60 185q-60 68 -166 68q-86 0 -155 -57t-97 -145v-651l98 -53v-33h-350z" />
    <glyph glyph-name="i" unicode="i" horiz-adv-x="544" 
d="M102 0v37l101 49v811l-97 51v35l248 8v-905l99 -53v-33h-351zM164 1339v-1q0 43 32 77q32 33 75 33t75 -33q32 -34 32 -76q0 -43 -32 -75t-75 -32t-75 32t-32 75z" />
    <glyph glyph-name="j" unicode="j" horiz-adv-x="583" 
d="M0 -449l2 286h37l88 -215q26 -14 51 -14q41 0 66 34q24 32 24 81v12l-14 266l-2 893l-115 53v35l271 8v-1016q0 -100 -16 -180q-16 -82 -48 -145t-84 -99q-53 -36 -121 -36q-23 0 -42 3q-17 3 -35 8q-13 4 -25 9q-14 6 -22 10l-10 4zM205 1338v-1q0 43 32 77q31 33 75 33
t75 -33q32 -34 32 -76q0 -43 -32 -75t-75 -32t-75 32t-32 75z" />
    <glyph glyph-name="k" unicode="k" horiz-adv-x="1079" 
d="M102 0v37l101 49v1262l-94 51v35l245 10v-1358l103 -53v-33h-355zM387 555l367 342l-156 53v33h406v-37l-119 -49l-336 -309l407 -502l93 -53v-33h-230z" />
    <glyph glyph-name="l" unicode="l" horiz-adv-x="534" 
d="M92 0v37l101 49v1262l-95 51v35l246 10v-1358l98 -53v-33h-350z" />
    <glyph glyph-name="m" unicode="m" horiz-adv-x="1765" 
d="M102 0l-4 34l101 49v811l-97 51v35l242 8l6 -119q91 148 279 148q115 0 195 -48t114 -135q39 79 113 132q73 52 188 52q157 0 246 -90q88 -89 88 -238v-606l98 -53v-33h-350v37l100 49v600q0 118 -59 186q-58 67 -164 67q-84 0 -144 -57t-88 -148v-647l98 -53v-33h-350
v37l100 49v600q0 118 -59 186q-58 67 -164 67q-48 0 -90 -17q-41 -17 -66 -40q-26 -25 -45 -52q-20 -29 -27 -48t-9 -33v-662l99 -53v-33h-351z" />
    <glyph glyph-name="n" unicode="n" horiz-adv-x="1187" 
d="M102 0l-1 35l101 49v811l-97 51v35l242 8l6 -127q41 71 121 114t177 43q159 0 252 -90t93 -237v-606l99 -53v-33h-351v37l101 49v600q0 116 -64 183q-65 68 -171 68q-91 0 -159 -58t-97 -150v-643l99 -53v-33h-351z" />
    <glyph glyph-name="o" unicode="o" horiz-adv-x="1161" 
d="M227 869v-2q145 150 357 150q139 0 252 -70q115 -71 179 -190q65 -121 65 -261q0 -149 -66 -272q-66 -124 -180 -194q-113 -70 -250 -70q-140 0 -258 74q-116 73 -181 197q-64 121 -64 264q0 223 146 374zM261 497v2q0 -95 17 -178q16 -80 53 -147q35 -65 101 -103
q64 -37 151 -37q82 0 146 38q63 37 99 104q36 66 54 147t18 175q0 122 -32 223q-32 99 -105 162t-180 63q-85 0 -150 -36q-64 -36 -100 -99t-54 -141t-18 -173z" />
    <glyph glyph-name="p" unicode="p" horiz-adv-x="1189" 
d="M102 -414l101 47v1262l-97 51v35l240 8l8 -86q118 115 291 115q202 0 332 -148q131 -149 131 -363q0 -151 -63 -276q-63 -124 -177 -196t-258 -72q-139 0 -258 80v-408l121 -53v-33h-371v37zM354 143l-2 1q107 -104 255 -104q147 0 233 129q86 130 86 327q0 119 -33 218
q-33 98 -107 165q-74 66 -177 66q-77 0 -144 -37q-67 -38 -111 -93v-672z" />
    <glyph glyph-name="q" unicode="q" horiz-adv-x="1183" 
d="M82 498v-2q0 223 135 373t337 150q154 0 293 -107l104 93h31v-1346l111 -55v-33l-265 -23v496q-118 -82 -274 -82q-208 0 -340 140t-132 396zM264 496l-2 1q0 -213 87 -335t238 -122q139 0 239 88v698q-55 61 -109 91t-130 30q-149 0 -236 -129t-87 -322z" />
    <glyph glyph-name="r" unicode="r" horiz-adv-x="819" 
d="M102 0l1 36l101 49v809l-94 53v35l243 8v-235q37 115 117 190t186 75q71 0 111 -31l-43 -168q-70 53 -141 53q-155 0 -231 -253v-527l125 -61v-33h-375z" />
    <glyph glyph-name="s" unicode="s" horiz-adv-x="940" 
d="M102 43l6 282h35l88 -213q82 -82 205 -82q109 0 177 53q67 52 67 129q0 86 -54 132q-53 46 -201 94q-295 97 -295 294q0 134 102 211q101 76 270 76q142 0 282 -49v-283h-36l-91 219q-86 47 -176 47q-83 0 -141 -42t-58 -124q0 -73 63 -122q63 -50 205 -93
q146 -44 215 -108t72 -180q0 -147 -109 -234q-110 -87 -306 -87q-149 0 -320 80z" />
    <glyph glyph-name="t" unicode="t" horiz-adv-x="681" 
d="M82 891v64l141 27v268l142 29v-297h196v-92h-194v-711q0 -51 26 -85q25 -33 68 -33q55 0 102 31l37 -63q-73 -66 -176 -66q-209 0 -209 236v692h-133z" />
    <glyph glyph-name="u" unicode="u" horiz-adv-x="1200" 
d="M102 946v37l246 8v-694q0 -117 67 -184t183 -67q151 0 261 143v707l-94 51v37l246 8v-915l96 -35v-35l-238 -8v108q-122 -143 -312 -143q-168 0 -264 90t-96 237v604z" />
    <glyph glyph-name="v" unicode="v" horiz-adv-x="1044" 
d="M31 946v37h383v-33l-103 -53l234 -698l280 698l-118 53v33h307v-37l-99 -49l-372 -907h-78l-334 907z" />
    <glyph glyph-name="w" unicode="w" horiz-adv-x="1568" 
d="M31 946v37h364v-33l-102 -53l229 -645l266 731h62v2l260 -741l240 653l-119 53v33h307v-37l-98 -49l-332 -903h-72l-254 719l-262 -719h-67l-322 903z" />
    <glyph glyph-name="x" unicode="x" horiz-adv-x="1064" 
d="M25 0v37l118 49l301 422l-290 389l-95 49v37h385v-33l-102 -53l238 -315l219 315l-133 53v33h346v-37l-111 -49l-272 -381l323 -428l88 -51v-37h-422v33l142 55l-262 348l-244 -350l139 -53v-33h-368z" />
    <glyph glyph-name="y" unicode="y" horiz-adv-x="1130" 
d="M31 946v37h385v-33l-103 -53l285 -676l305 676l-119 53v33h316v-37l-99 -49l-571 -1251l143 -64v-33h-407v37l160 60l182 389l-377 862z" />
    <glyph glyph-name="z" unicode="z" horiz-adv-x="1013" 
d="M82 0v76l623 831h-418l-127 -178h-33v254h741v-98l-612 -809h469l109 178h36v-254h-788z" />
    <glyph glyph-name="braceleft" unicode="{" horiz-adv-x="858" 
d="M123 553l-1 43q77 0 128 48t51 143v441q0 131 64 196q65 67 201 95l127 26v-45l-67 -24q-82 -32 -126 -99q-43 -67 -43 -184v-387q0 -98 -39 -153t-122 -78q83 -23 122 -78t39 -153v-387q0 -116 44 -184q43 -67 126 -99l67 -24v-45l-127 26q-136 28 -201 95
q-64 65 -64 196v440q0 95 -51 143t-128 48z" />
    <glyph glyph-name="bar" unicode="|" horiz-adv-x="468" 
d="M174 -512v2044h121v-2044h-121z" />
    <glyph glyph-name="braceright" unicode="}" horiz-adv-x="858" 
d="M164 -350l66 19q82 31 126 99t44 185v387q0 98 39 153t122 78q-83 23 -122 78t-39 153v387q0 118 -43 185q-43 68 -126 99l-67 24v45l127 -26q136 -28 201 -95q64 -65 64 -196v-441q0 -94 51 -142t128 -48v-41q-77 0 -128 -48t-51 -143v-440q0 -131 -64 -196
q-65 -67 -201 -95l-127 -26v45z" />
    <glyph glyph-name="asciitilde" unicode="~" horiz-adv-x="1142" 
d="M102 582h3q12 22 30 45t48 51q31 29 77 47t99 18q37 0 81 -12t72 -24q21 -9 75 -35l67 -33q38 -18 44 -21q13 -6 39 -13q24 -6 50 -6q63 0 106 36q43 35 81 98l67 -92q-12 -23 -30 -45t-48 -51q-31 -29 -77 -47t-99 -18q-67 0 -184 56l-76 36q-105 52 -171 52
q-63 0 -105 -36t-81 -99z" />
    <glyph glyph-name="uni00A0" unicode="&#xa0;" horiz-adv-x="555" 
 />
    <glyph glyph-name="exclamdown" unicode="&#xa1;" horiz-adv-x="589" 
d="M184 909q0 46 33 79t79 33t79 -33t33 -79q0 -47 -33 -78q-34 -32 -79 -32t-79 32q-33 31 -33 78zM203 -451l65 1067h51l64 -1067h-180z" />
    <glyph glyph-name="cent" unicode="&#xa2;" horiz-adv-x="1073" 
d="M82 485l-1 -2q0 231 146 383t372 152h18l25 180h72l-25 -184q37 -3 78 -9q30 -4 65 -11q24 -4 60 -12t48 -9l-2 -322h-37l-88 228q-53 47 -131 67l-119 -889q32 -4 58 -4q75 0 153 29q77 29 128 72l37 -58q-133 -133 -340 -133q-27 0 -49 2l-31 -235h-71l32 245
q-178 36 -288 171q-110 136 -110 339zM263 502l-1 -3q0 -152 60 -268q60 -115 170 -159l116 880h-14q-64 0 -120 -27q-55 -27 -94 -72q-39 -44 -66 -104q-27 -58 -39 -122q-12 -63 -12 -125z" />
    <glyph glyph-name="sterling" unicode="&#xa3;" horiz-adv-x="1263" 
d="M143 721l3 91h174q-43 123 -43 225q0 107 39 193q38 84 107 136t151 77q86 26 179 26q153 0 345 -61l-6 -328h-37l-111 236q-41 33 -97 51q-57 18 -111 18q-130 0 -209 -85q-80 -86 -80 -225q0 -112 50 -262h444v-92h-414q43 -133 43 -229q0 -183 -127 -338h559l82 155
h37v-309h-915v37q105 71 159 177q54 107 54 217q0 71 -18 137t-51 153h-207z" />
    <glyph glyph-name="currency" unicode="&#xa4;" horiz-adv-x="1155" 
d="M92 229l98 103q-98 116 -98 307t98 307l-98 103l80 79l100 -100q119 100 306 100q186 0 305 -100l100 100l80 -79l-98 -103q98 -116 98 -307t-98 -307l98 -103l-80 -79l-100 100q-119 -100 -305 -100q-187 0 -306 100l-100 -100zM203 639v-2q0 -104 46 -189
q47 -86 132 -137q85 -50 197 -52q111 1 197 53q86 51 131 137q45 85 45 189t-45 189q-45 86 -131 137q-86 52 -197 53q-112 -2 -197 -52q-85 -51 -132 -137q-46 -85 -46 -189z" />
    <glyph glyph-name="yen" unicode="&#xa5;" horiz-adv-x="1359" 
d="M61 1397v37h402v-33l-121 -53l391 -648l367 648l-150 53v33h348v-37l-84 -49l-409 -680h319v-93h-356v-114h356v-92h-356v-283l117 -53v-33h-400v37l111 49v283h-360v92h360v114h-360v93h321l-407 680z" />
    <glyph glyph-name="brokenbar" unicode="&#xa6;" horiz-adv-x="468" 
d="M174 389h121v-901h-121v901zM174 631v901h121v-901h-121z" />
    <glyph glyph-name="section" unicode="&#xa7;" horiz-adv-x="1157" 
d="M92 569v-2q0 92 57 173t149 137q-98 98 -98 245q0 157 122 252t303 95q156 0 318 -61l-6 -315h-37l-102 241q-38 26 -94 42q-59 17 -108 17q-124 0 -189 -63t-65 -162q0 -81 50 -137q50 -55 138 -102l242 -123q143 -72 200 -150t60 -186q0 -91 -57 -172
q-56 -80 -149 -136q99 -99 99 -246q0 -157 -122 -252q-121 -94 -303 -94q-156 0 -318 61l6 316h37l103 -242q38 -25 93 -42q54 -16 107 -16q124 0 189 62t65 161q0 80 -50 138q-49 56 -138 103l-242 122q-143 72 -200 150t-60 186zM225 627q0 -127 168 -213l295 -154
q43 -22 90 -55q123 78 123 207q0 128 -168 213l-295 153q-31 16 -90 56q-123 -78 -123 -207z" />
    <glyph glyph-name="dieresis" unicode="&#xa8;" horiz-adv-x="741" 
d="M102 1331v-1q0 44 31 75t75 31q41 0 71 -31t30 -75q0 -43 -30 -73t-71 -30q-44 0 -75 30t-31 74zM432 1330v-1q0 44 31 75t75 31q41 0 71 -31q30 -32 30 -75t-30 -73t-71 -30q-44 0 -75 30t-31 74z" />
    <glyph glyph-name="copyright" unicode="&#xa9;" horiz-adv-x="1843" 
d="M164 717h-2q0 162 60 303q60 142 162 239q103 98 242 155q140 57 294 57q208 0 381 -96t275 -270t102 -388q0 -162 -60 -303t-162 -240t-241 -156t-294 -57t-294 57t-241 156t-162 240t-60 303zM229 717v-2q0 -196 90 -355q89 -158 248 -247q157 -88 351 -88
q147 0 273 52q127 52 219 143q92 90 144 219q53 130 53 277t-53 277q-52 129 -144 219q-92 91 -219 143q-126 52 -273 52q-194 0 -351 -88q-159 -89 -248 -247q-90 -159 -90 -355zM471 715l-1 1q0 140 65 249t171 164q107 56 234 56q34 0 65 -3q33 -3 65 -9q12 -2 28.5 -5
t20.5 -4q15 -3 52 -12l40 -10l-4 -219h-30l-70 145q-77 47 -164 47q-142 0 -217 -108t-75 -292t75 -292t218 -108q98 0 171 52l70 141h31l4 -215q-180 -47 -279 -47q-127 0 -234 56q-106 55 -171 164t-65 249z" />
    <glyph glyph-name="ordfeminine" unicode="&#xaa;" horiz-adv-x="944" 
d="M184 799l-3 1q0 118 104 180t287 62q2 85 -40 135q-42 51 -112 51q-103 0 -162 -101l-49 33q72 133 223 133q122 0 192 -76t70 -204v-324l64 -26v-27h-162l-8 88q-22 -46 -69 -79t-123 -33q-97 0 -155 50q-57 50 -57 137zM308 802v-1q0 -56 32 -91q31 -34 83 -34
q69 0 109 48q40 47 40 122v141q-125 -6 -195 -53q-69 -46 -69 -132z" />
    <glyph glyph-name="guillemotleft" unicode="&#xab;" horiz-adv-x="858" 
d="M102 578l277 360h70l-179 -367l179 -368h-74zM410 578l276 360h70l-178 -367l178 -368h-74z" />
    <glyph glyph-name="logicalnot" unicode="&#xac;" horiz-adv-x="1069" 
d="M10 543v106h1049v-567h-107v461h-942z" />
    <glyph glyph-name="uni00AD" unicode="&#xad;" horiz-adv-x="579" 
d="M61 512v90h457v-90h-457z" />
    <glyph glyph-name="registered" unicode="&#xae;" horiz-adv-x="974" 
d="M102 1087v-1q0 170 112 276q113 107 273 107q161 0 273 -106t112 -276t-112 -276t-273 -106t-273 106t-112 276zM143 1086q0 -152 100 -248q101 -96 244 -96t244 96q100 96 100 248t-100 248q-101 96 -244 96t-244 -96q-100 -96 -100 -248zM348 863l-1 448h152
q69 0 109 -36t40 -88t-33 -82q-34 -31 -86 -35q41 -14 75 -78l68 -129h-80l-78 150q-24 49 -78 49h-18v-199h-70zM417 1110l61 -2q43 0 69 20t26 57q0 35 -25 56q-26 21 -70 21h-61v-152z" />
    <glyph glyph-name="macron" unicode="&#xaf;" horiz-adv-x="724" 
d="M102 1280v94h521v-94h-521z" />
    <glyph glyph-name="degree" unicode="&#xb0;" horiz-adv-x="724" 
d="M61 1169l1 -2q0 128 87 215t213 87q128 0 215 -87t87 -214t-88 -214q-89 -87 -214 -87q-127 0 -214 87t-87 215zM153 1165h1q0 -91 57 -153q57 -61 152 -61t152 62q57 61 57 155q0 92 -58 156t-153 64q-91 0 -150 -66q-58 -65 -58 -157z" />
    <glyph glyph-name="plusminus" unicode="&#xb1;" horiz-adv-x="1058" 
d="M10 92v107h1039v-107h-1039zM10 768v106h467v463h107v-463h465v-106h-465v-465h-107v465h-467z" />
    <glyph glyph-name="uni00B2" unicode="&#xb2;" horiz-adv-x="794" 
d="M164 717l-1 89l248 276q90 104 90 203q0 63 -37 97t-99 34q-51 0 -91 -28l-53 -138h-37l-2 189q93 30 183 30q119 0 192 -54q74 -54 74 -143q0 -123 -121 -228l-258 -229h293l37 90h36v-188h-454z" />
    <glyph glyph-name="uni00B3" unicode="&#xb3;" horiz-adv-x="763" 
d="M123 743l3 175h37l51 -138q48 -30 102 -30q74 0 113 47q39 46 37 123q0 91 -59 129t-168 38v60h24q78 0 133 41q54 40 54 111q0 53 -36 84q-37 32 -96 32q-50 0 -96 -28l-53 -138h-37l-4 189q92 30 204 30q100 0 170 -43q71 -44 71 -120q0 -67 -45 -117q-44 -49 -116 -61
q82 -12 135 -69q53 -58 53 -135q0 -93 -85 -159t-202 -66q-93 0 -190 45z" />
    <glyph glyph-name="acute" unicode="&#xb4;" horiz-adv-x="653" 
d="M102 1202l365 268h29l55 -127l-430 -178z" />
    <glyph glyph-name="paragraph" unicode="&#xb6;" horiz-adv-x="1288" 
d="M184 1036h1q0 200 116 299q115 99 333 99h471v-37l-111 -49v-1590l111 -49v-37h-230v1682h-145v-1682h-287v43l168 54v876q-197 0 -312 105t-115 286zM329 1036q0 -157 80 -234t203 -77v629q-58 0 -108 -18t-90 -54t-63 -99q-22 -62 -22 -147z" />
    <glyph glyph-name="periodcentered" unicode="&#xb7;" horiz-adv-x="385" 
d="M82 594q0 46 33 79t79 33t78 -33q32 -34 32 -79t-32 -79q-32 -33 -78 -33t-79 33t-33 79z" />
    <glyph glyph-name="cedilla" unicode="&#xb8;" horiz-adv-x="595" 
d="M102 -344l36 33q54 -72 140 -72q62 0 92 33t30 80q0 51 -34 84t-94 33q-36 0 -73 -20l-39 43l76 145h98l-72 -118q18 6 47 6q73 0 129 -48q55 -48 55 -121q0 -76 -57 -123q-58 -47 -148 -47q-62 0 -109 25q-49 26 -77 67z" />
    <glyph glyph-name="uni00B9" unicode="&#xb9;" horiz-adv-x="661" 
d="M184 1350v41l224 61h10v-670l80 -28v-37h-297v39l96 26v568h-113z" />
    <glyph glyph-name="ordmasculine" unicode="&#xba;" horiz-adv-x="972" 
d="M164 952v-2q0 141 92 241q92 99 231 99t232 -99t93 -240t-93 -240t-232 -99t-231 99q-92 100 -92 241zM293 950v-2q0 -124 50 -203q49 -78 144 -78q94 0 145 79q51 80 51 204t-51 204q-51 79 -145 79q-95 0 -144 -79q-50 -80 -50 -204z" />
    <glyph glyph-name="guillemotright" unicode="&#xbb;" horiz-adv-x="858" 
d="M102 203l179 368l-179 367h70l277 -360l-273 -375h-74zM410 203l178 368l-178 367h69l277 -360l-273 -375h-73z" />
    <glyph glyph-name="onequarter" unicode="&#xbc;" horiz-adv-x="1472" 
d="M184 1350v41l224 61h10v-670l80 -28v-37h-297v39l96 26v568h-113zM393 2l680 1434h74l-682 -1434h-72zM872 211v68l322 456h104v-456h93v-68h-93v-145l70 -29v-37h-276v39l86 27v145h-306zM946 279h232v329z" />
    <glyph glyph-name="onehalf" unicode="&#xbd;" horiz-adv-x="1597" 
d="M184 1350v41l224 61h10v-670l80 -28v-37h-297v39l96 26v568h-113zM393 2l680 1434h74l-682 -1434h-72zM967 0v90l247 277q91 104 91 202q0 62 -38 97q-37 34 -99 34q-50 0 -90 -28l-53 -137h-37l-2 188q94 31 182 31q119 0 192 -55q74 -56 74 -144q0 -122 -121 -227
l-258 -230h293l36 90h37v-188h-454z" />
    <glyph glyph-name="threequarters" unicode="&#xbe;" horiz-adv-x="1452" 
d="M123 743l3 175h37l51 -138q48 -30 102 -30q74 0 113 47q39 46 37 123q0 91 -59 129t-168 38v60h24q78 0 133 41q54 40 54 111q0 53 -36 84q-37 32 -96 32q-50 0 -96 -28l-53 -138h-37l-4 189q92 30 204 30q100 0 170 -43q71 -44 71 -120q0 -67 -45 -117q-44 -49 -116 -61
q82 -12 135 -69q53 -58 53 -135q0 -93 -85 -159t-202 -66q-93 0 -190 45zM415 2l680 1434h73l-682 -1434h-71zM853 211v68l322 456h104v-456h92v-68h-92v-145l70 -29v-37h-277v39l86 27v145h-305zM927 279h231v329z" />
    <glyph glyph-name="questiondown" unicode="&#xbf;" horiz-adv-x="919" 
d="M123 -172l-1 -2q0 76 21 138q20 60 56 103q36 44 76 81q42 39 84 81q45 45 77 91q35 50 56 125t21 170h74q0 -127 -30 -226t-72 -162q-39 -59 -84 -118q-42 -55 -72 -123t-30 -149q0 -109 64 -182q65 -74 165 -74q71 0 129 47l97 213h37l6 -268q-147 -61 -297 -61
q-164 0 -270 87q-107 87 -107 229zM437 907q0 46 33 79t79 33q47 0 78 -33q32 -34 32 -79q0 -46 -32 -78t-78 -32q-45 0 -79 32q-33 31 -33 78z" />
    <glyph glyph-name="Agrave" unicode="&#xc0;" horiz-adv-x="1449" 
d="M61 0v33l121 53l445 1178l-70 170h174l561 -1348l97 -53v-33h-418v33l131 53l-146 360h-536l-129 -360l143 -53v-33h-373zM453 535h467l-248 612zM455 1757l55 127h29l364 -268l-18 -37z" />
    <glyph glyph-name="Aacute" unicode="&#xc1;" horiz-adv-x="1449" 
d="M61 0v33l121 53l445 1178l-70 170h174l561 -1348l97 -53v-33h-418v33l131 53l-146 360h-536l-129 -360l143 -53v-33h-373zM453 535h467l-248 612zM461 1616l364 268h29l55 -127l-430 -178z" />
    <glyph glyph-name="Acircumflex" unicode="&#xc2;" horiz-adv-x="1449" 
d="M61 0v33l121 53l445 1178l-70 170h174l561 -1348l97 -53v-33h-418v33l131 53l-146 360h-536l-129 -360l143 -53v-33h-373zM393 1585v72l273 227h32l273 -227v-72l-289 170zM453 535h467l-248 612z" />
    <glyph glyph-name="Atilde" unicode="&#xc3;" horiz-adv-x="1449" 
d="M61 0v33l121 53l445 1178l-70 170h174l561 -1348l97 -53v-33h-418v33l131 53l-146 360h-536l-129 -360l143 -53v-33h-373zM406 1706l1 1q89 141 189 141q46 0 117 -27t107 -27q40 0 65 12q27 12 59 42l31 -24q-44 -73 -82 -105q-39 -33 -100 -33q-50 0 -119 29t-107 29
q-41 0 -72 -19t-63 -54zM454 536h467l-248 612z" />
    <glyph glyph-name="Adieresis" unicode="&#xc4;" horiz-adv-x="1449" 
d="M61 0v33l121 53l445 1178l-70 170h174l561 -1348l97 -53v-33h-418v33l131 53l-146 360h-536l-129 -360l143 -53v-33h-373zM416 1745v-1q0 44 30 74t74 30q42 0 72 -30t30 -73q0 -44 -31 -75t-72 -31q-43 0 -73 31q-30 32 -30 75zM453 534h467l-248 612zM745 1744v-1
q0 44 31 74q32 30 75 30q41 0 71 -30t30 -73q0 -44 -30 -75t-71 -31q-44 0 -75 31t-31 75z" />
    <glyph glyph-name="Aring" unicode="&#xc5;" horiz-adv-x="1449" 
d="M61 0v33l121 53l445 1178l-70 170h174l561 -1348l97 -53v-33h-418v33l131 53l-146 360h-536l-129 -360l143 -53v-33h-373zM453 535h467l-248 612zM510 1749l-1 -2q0 75 51 125q52 50 126 50q77 0 126 -49q50 -50 50 -126q0 -75 -51 -124q-50 -49 -126 -49q-77 0 -126 49
t-49 126zM577 1747q0 -49 30 -81t77 -32q46 0 78 32q31 31 31 81t-31 81q-32 32 -78 32q-47 0 -77 -32t-30 -81z" />
    <glyph glyph-name="AE" unicode="&#xc6;" horiz-adv-x="1769" 
d="M61 0v33l121 53l447 1180l-72 168h1055l30 -330h-36l-136 246h-704l229 -553l439 6v-107l-400 11l258 -619h254l125 260h37l-20 -348h-717v33l131 53l-158 360h-528l-125 -360l143 -53v-33h-373zM444 535h469l-237 624z" />
    <glyph glyph-name="Ccedilla" unicode="&#xc7;" horiz-adv-x="1404" 
d="M123 717l-4 2q0 174 55 315q56 142 150 237q94 94 224 147t276 53q119 0 215 -14q90 -13 207 -47l-6 -328h-37l-125 242q-113 74 -252 74q-127 0 -225 -52q-99 -52 -162 -144q-63 -91 -96 -215q-33 -123 -33 -269q0 -116 17 -218q17 -100 55 -184q39 -85 98 -144
q58 -58 147 -91t201 -33q57 0 135 21q77 21 130 57l125 227h36l7 -319q-240 -70 -435 -70l-41 -67q18 6 48 6q74 0 128 -48t54 -121q0 -76 -57 -123q-58 -47 -148 -47q-62 0 -109 25q-49 26 -77 67l39 31q54 -72 139 -72q62 0 92 33t30 80q0 51 -34 84t-94 33q-37 0 -74 -20
l-39 43l51 98q-278 32 -444 231q-167 200 -167 520z" />
    <glyph glyph-name="Egrave" unicode="&#xc8;" horiz-adv-x="1280" 
d="M143 1397v37h938l31 -330h-37l-135 246h-512v-557l475 10v-107l-475 17v-625h588l125 260h37l-21 -348h-1012v37l111 49l-2 1262zM455 1757l55 127h29l364 -268l-18 -37z" />
    <glyph glyph-name="Eacute" unicode="&#xc9;" horiz-adv-x="1280" 
d="M143 1397v37h938l31 -330h-37l-135 246h-512v-557l475 10v-107l-475 17v-625h588l125 260h37l-21 -348h-1012v37l111 49l-2 1262zM461 1616l364 268h29l55 -127l-430 -178z" />
    <glyph glyph-name="Ecircumflex" unicode="&#xca;" horiz-adv-x="1280" 
d="M143 1397v37h938l31 -330h-37l-135 246h-512v-557l475 10v-107l-475 17v-625h588l125 260h37l-21 -348h-1012v37l111 49l-2 1262zM393 1585v72l273 227h32l273 -227v-72l-289 170z" />
    <glyph glyph-name="Edieresis" unicode="&#xcb;" horiz-adv-x="1280" 
d="M143 1397v37h938l31 -330h-37l-135 246h-512v-557l475 10v-107l-475 17v-625h588l125 260h37l-21 -348h-1012v37l111 49l-2 1262zM416 1745v-1q0 44 30 74t74 30q42 0 72 -30t30 -73q0 -44 -31 -75t-72 -31q-43 0 -73 31q-30 32 -30 75zM745 1744v-1q0 44 31 74
q32 30 75 30q41 0 71 -30t30 -73q0 -44 -30 -75t-71 -31q-44 0 -75 31t-31 75z" />
    <glyph glyph-name="Igrave" unicode="&#xcc;" horiz-adv-x="675" 
d="M109 1757l55 127h29l364 -268l-18 -37zM143 0v37l111 49v1262l-111 49v37h389v-33l-106 -53v-1262l106 -53v-33h-389z" />
    <glyph glyph-name="Iacute" unicode="&#xcd;" horiz-adv-x="675" 
d="M115 1616l364 268h29l55 -127l-430 -178zM143 0v37l111 49v1262l-111 49v37h389v-33l-106 -53v-1262l106 -53v-33h-389z" />
    <glyph glyph-name="Icircumflex" unicode="&#xce;" horiz-adv-x="675" 
d="M47 1585v72l272 227h33l273 -227v-72l-289 170zM143 0v37l111 49v1262l-111 49v37h389v-33l-106 -53v-1262l106 -53v-33h-389z" />
    <glyph glyph-name="Idieresis" unicode="&#xcf;" horiz-adv-x="675" 
d="M70 1745l-1 -1q0 44 30 74t74 30q41 0 71 -30t30 -73t-30 -75q-30 -31 -71 -31q-43 0 -73 31q-30 32 -30 75zM142 -1v37l111 49v1262l-111 49v37h389v-33l-106 -53v-1262l106 -53v-33h-389zM398 1744v-1q0 44 31 74t75 30q41 0 71 -30t30 -73q0 -44 -30 -75t-71 -31
q-44 0 -75 31t-31 75z" />
    <glyph glyph-name="Eth" unicode="&#xd0;" horiz-adv-x="1601" 
d="M143 694l-5 89h203v564l-110 49v39h536q143 0 260 -36t200 -101q82 -64 139 -154t84 -196t27 -228q0 -120 -28 -225q-29 -108 -85 -198t-140 -157q-81 -65 -198 -103q-114 -37 -254 -37h-536v37l110 49v608h-203zM513 89l233 -1q107 0 198 35q90 35 151 94q61 60 105 141
t63 172q20 94 20 190q0 631 -536 631h-234v-568h342v-88h-342v-606z" />
    <glyph glyph-name="Ntilde" unicode="&#xd1;" horiz-adv-x="1468" 
d="M123 0v37l110 49v1262l-104 49v37h315l697 -1100v1014l-121 49v37h326v-33l-111 -53v-1366h-76l-831 1323v-1219l121 -53v-33h-326zM500 1706h-1q89 141 189 141q46 0 117 -27t107 -27q40 0 65 12q27 12 59 42l31 -24q-44 -73 -82 -105q-39 -33 -100 -33q-49 0 -118 29
t-106 29q-67 0 -135 -72z" />
    <glyph glyph-name="Ograve" unicode="&#xd2;" horiz-adv-x="1548" 
d="M123 717q-1 214 78 385q80 171 229 270q150 99 346 99t346 -99q149 -99 229 -270q79 -171 78 -385q2 -215 -78 -386t-229 -270q-150 -99 -346 -99t-346 99q-149 99 -229 270t-78 386zM307 717v-4q0 -116 15 -215q15 -97 50 -186q34 -87 87 -147q52 -59 132 -94
q78 -34 180 -34q99 0 180 35q79 34 132 95q53 60 87 147q35 89 50 186q15 99 15 215t-15 215q-15 97 -50 186q-34 87 -87 147q-53 61 -132 95q-81 35 -180 35q-102 0 -180 -34q-79 -34 -132 -95q-53 -60 -87 -147q-35 -89 -50 -186q-15 -99 -15 -214zM543 1753l55 127h29
l364 -268l-18 -37z" />
    <glyph glyph-name="Oacute" unicode="&#xd3;" horiz-adv-x="1548" 
d="M123 717q-1 214 78 385q80 171 229 270q150 99 346 99t346 -99q149 -99 229 -270q79 -171 78 -385q2 -215 -78 -386t-229 -270q-150 -99 -346 -99t-346 99q-149 99 -229 270t-78 386zM307 717v-4q0 -116 15 -215q15 -97 50 -186q34 -87 87 -147q52 -59 132 -94
q78 -34 180 -34q99 0 180 35q79 34 132 95q53 60 87 147q35 89 50 186q15 99 15 215t-15 215q-15 97 -50 186q-34 87 -87 147q-53 61 -132 95q-81 35 -180 35q-102 0 -180 -34q-79 -34 -132 -95q-53 -60 -87 -147q-35 -89 -50 -186q-15 -99 -15 -214zM549 1612l364 268h29
l55 -127l-430 -178z" />
    <glyph glyph-name="Ocircumflex" unicode="&#xd4;" horiz-adv-x="1548" 
d="M123 717q-1 214 78 385q80 171 229 270q150 99 346 99t346 -99q149 -99 229 -270q79 -171 78 -385q2 -215 -78 -386t-229 -270q-150 -99 -346 -99t-346 99q-149 99 -229 270t-78 386zM307 717v-4q0 -116 15 -215q15 -97 50 -186q34 -87 87 -147q52 -59 132 -94
q78 -34 180 -34q99 0 180 35q79 34 132 95q53 60 87 147q35 89 50 186q15 99 15 215t-15 215q-15 97 -50 186q-34 87 -87 147q-53 61 -132 95q-81 35 -180 35q-102 0 -180 -34q-79 -34 -132 -95q-53 -60 -87 -147q-35 -89 -50 -186q-15 -99 -15 -214zM481 1581v72l273 227
h32l273 -227v-72l-289 170z" />
    <glyph glyph-name="Otilde" unicode="&#xd5;" horiz-adv-x="1548" 
d="M123 717q-1 214 78 385q80 171 229 270q150 99 346 99t346 -99q149 -99 229 -270q79 -171 78 -385q2 -215 -78 -386t-229 -270q-150 -99 -346 -99t-346 99q-149 99 -229 270t-78 386zM307 717v-4q0 -116 15 -215q15 -97 50 -186q34 -87 87 -147q52 -59 132 -94
q78 -34 180 -34q99 0 180 35q79 34 132 95q53 60 87 147q35 89 50 186q15 99 15 215t-15 215q-15 97 -50 186q-34 87 -87 147q-53 61 -132 95q-81 35 -180 35q-102 0 -180 -34q-79 -34 -132 -95q-53 -60 -87 -147q-35 -89 -50 -186q-15 -99 -15 -214zM494 1702l1 1
q89 141 189 141q46 0 117 -27q70 -27 107 -27q40 0 65 12q27 12 59 42l31 -24q-44 -73 -82 -105q-39 -33 -100 -33q-50 0 -119 29t-107 29q-41 0 -72 -19t-63 -54z" />
    <glyph glyph-name="Odieresis" unicode="&#xd6;" horiz-adv-x="1548" 
d="M123 717q-1 214 78 385q80 171 229 270q150 99 346 99t346 -99q149 -99 229 -270q79 -171 78 -385q2 -215 -78 -386t-229 -270q-150 -99 -346 -99t-346 99q-149 99 -229 270t-78 386zM307 717v-4q0 -116 15 -215q15 -97 50 -186q34 -87 87 -147q52 -59 132 -94
q78 -34 180 -34q99 0 180 35q79 34 132 95q53 60 87 147q35 89 50 186q15 99 15 215t-15 215q-15 97 -50 186q-34 87 -87 147q-53 61 -132 95q-81 35 -180 35q-102 0 -180 -34q-79 -34 -132 -95q-53 -60 -87 -147q-35 -89 -50 -186q-15 -99 -15 -214zM504 1741v-1
q0 44 30 74t74 30q42 0 72 -30t30 -73q0 -44 -31 -75t-72 -31q-43 0 -73 31q-30 32 -30 75zM834 1740l-1 -1q0 44 30 74t74 30q41 0 71 -30t30 -73q0 -44 -30 -75t-71 -31q-43 0 -73 31t-30 75z" />
    <glyph glyph-name="multiply" unicode="&#xd7;" horiz-adv-x="909" 
d="M10 225l369 371l-369 367l76 75l369 -368l370 368l74 -75l-369 -367l369 -371l-74 -73l-370 368l-369 -368z" />
    <glyph glyph-name="Oslash" unicode="&#xd8;" horiz-adv-x="1548" 
d="M123 717h-3q-1 214 78 385q80 171 229 270q150 99 346 99q199 0 351 -102l90 148h105l-125 -203q113 -101 173 -255q60 -156 59 -340q2 -215 -78 -386t-229 -270q-150 -99 -346 -99q-197 0 -348 100l-90 -145h-105l123 201q-112 100 -172 255q-60 153 -58 342zM304 717
h-4q0 -320 113 -492l649 1055q-113 113 -294 113q-102 0 -180 -34q-79 -34 -132 -95q-52 -60 -87 -147q-35 -89 -50 -186q-15 -99 -15 -214zM472 152l3 -2q114 -111 295 -111q99 0 180 35q79 34 132 95q52 60 87 147q35 89 50 186q15 99 15 215q0 314 -113 489z" />
    <glyph glyph-name="Ugrave" unicode="&#xd9;" horiz-adv-x="1495" 
d="M123 1397l-1 36h389v-33l-106 -53v-908q0 -185 90 -288q90 -104 267 -104q191 0 297 104q105 103 105 288v908l-110 49v37h317v-33l-106 -53v-893q0 -233 -138 -362t-371 -129q-244 0 -384 126q-139 126 -139 366v893zM548 1756l55 127h29l364 -268l-18 -37z" />
    <glyph glyph-name="Uacute" unicode="&#xda;" horiz-adv-x="1495" 
d="M123 1397l-1 36h389v-33l-106 -53v-908q0 -185 90 -288q90 -104 267 -104q191 0 297 104q105 103 105 288v908l-110 49v37h317v-33l-106 -53v-893q0 -233 -138 -362t-371 -129q-244 0 -384 126q-139 126 -139 366v893zM554 1615l365 268h28l56 -127l-431 -178z" />
    <glyph glyph-name="Ucircumflex" unicode="&#xdb;" horiz-adv-x="1495" 
d="M123 1397l-1 36h389v-33l-106 -53v-908q0 -185 90 -288q90 -104 267 -104q191 0 297 104q105 103 105 288v908l-110 49v37h317v-33l-106 -53v-893q0 -233 -138 -362t-371 -129q-244 0 -384 126q-139 126 -139 366v893zM486 1584v72l273 227h33l272 -227v-72l-289 170z
" />
    <glyph glyph-name="Udieresis" unicode="&#xdc;" horiz-adv-x="1495" 
d="M123 1397l-1 36h389v-33l-106 -53v-908q0 -185 90 -288q90 -104 267 -104q191 0 297 104q105 103 105 288v908l-110 49v37h317v-33l-106 -53v-893q0 -233 -138 -362t-371 -129q-244 0 -384 126q-139 126 -139 366v893zM509 1744v-1q0 44 30 74t74 30q42 0 72 -30t30 -73
q0 -44 -31 -75t-72 -31q-43 0 -73 31t-30 75zM839 1743v-1q0 44 30 74t74 30q42 0 72 -30t30 -73q0 -44 -31 -75t-72 -31q-43 0 -73 31q-30 32 -30 75z" />
    <glyph glyph-name="Yacute" unicode="&#xdd;" horiz-adv-x="1359" 
d="M61 1397v37h402v-33l-121 -53l391 -648l367 648l-150 53v33h348v-37l-84 -49l-446 -740v-522l117 -53v-33h-400v37l111 49v516l-446 746zM494 1616l364 268h29l55 -127l-430 -178z" />
    <glyph glyph-name="Thorn" unicode="&#xde;" horiz-adv-x="1255" 
d="M143 0l1 39l111 49v1262l-111 49v37h389v-33l-106 -53v-201h270q204 0 330 -105t126 -283q0 -175 -129 -292t-328 -117h-270v-266l106 -53v-33h-389zM427 438h216q157 0 243 87q86 88 86 236q0 166 -81 235t-249 69h-215v-627z" />
    <glyph glyph-name="germandbls" unicode="&#xdf;" horiz-adv-x="1366" 
d="M92 891l-3 63l113 27v86q0 96 35 174t94 125q61 49 136 74q78 26 164 26q157 0 266 -83q108 -83 108 -207q0 -48 -22 -88t-55 -67q-27 -22 -72 -55q-39 -28 -72 -54q-32 -25 -55 -63q-22 -37 -22 -81q0 -21 8 -42t18 -35t32 -30q23 -16 37 -24q18 -10 44 -20
q40 -15 44 -17q16 -6 45 -15q40 -13 41 -13q139 -47 214 -113q73 -64 73 -177q0 -147 -109 -234q-110 -87 -306 -87q-149 0 -320 80l4 283h35l88 -213q82 -82 205 -82q112 0 178 57t66 151q0 25 -4 42q-5 20 -15 35q-4 5 -20 27q-10 13 -28 23q-16 9 -31 18q-11 7 -37 16
q-7 2 -15 5t-13 5t-9 3q-1 0 -41 13q-29 9 -39 12q-136 42 -216 117q-79 75 -79 180q0 56 23 102q23 45 56 74q38 33 72 59q39 30 72 57t56 68t23 90q0 97 -69 153q-70 56 -179 56q-121 0 -187 -79t-66 -228l2 -1085h-256v37l101 49v805h-113z" />
    <glyph glyph-name="agrave" unicode="&#xe0;" horiz-adv-x="1062" 
d="M92 252l-1 -4q0 90 54 163t146 120q93 47 204 71q113 24 234 24q0 139 -70 215q-71 77 -195 77q-88 0 -157 -42t-112 -112l-68 45q114 209 354 209q187 0 294 -111q107 -112 107 -308v-514l98 -53v-33h-233l-11 141q-38 -73 -117 -125q-80 -53 -196 -53q-156 0 -244 77
q-87 77 -87 213zM255 254l-1 -3q0 -99 55 -155q55 -57 148 -57q110 0 191 90t81 204v225q-113 -9 -192 -28q-82 -19 -148 -54q-65 -34 -100 -90q-34 -55 -34 -132zM287 1300l55 127h29l364 -269l-18 -37z" />
    <glyph glyph-name="aacute" unicode="&#xe1;" horiz-adv-x="1062" 
d="M92 252l-1 -4q0 90 54 163t146 120q93 47 204 71q113 24 234 24q0 139 -70 215q-71 77 -195 77q-88 0 -157 -42t-112 -112l-68 45q114 209 354 209q187 0 294 -111q107 -112 107 -308v-514l98 -53v-33h-233l-11 141q-38 -73 -117 -125q-80 -53 -196 -53q-156 0 -244 77
q-87 77 -87 213zM255 254l-1 -3q0 -99 55 -155q55 -57 148 -57q110 0 191 90t81 204v225q-113 -9 -192 -28q-82 -19 -148 -54q-65 -34 -100 -90q-34 -55 -34 -132zM293 1158l364 269h29l55 -127l-430 -179z" />
    <glyph glyph-name="acircumflex" unicode="&#xe2;" horiz-adv-x="1062" 
d="M92 252l-1 -4q0 90 54 163t146 120q93 47 204 71q113 24 234 24q0 139 -70 215q-71 77 -195 77q-88 0 -157 -42t-112 -112l-68 45q114 209 354 209q187 0 294 -111q107 -112 107 -308v-514l98 -53v-33h-233l-11 141q-38 -73 -117 -125q-80 -53 -196 -53q-156 0 -244 77
q-87 77 -87 213zM226 1131v71l273 228h32l273 -228v-71l-289 170zM255 254l-1 -3q0 -99 55 -155q55 -57 148 -57q110 0 191 90t81 204v225q-113 -9 -192 -28q-82 -19 -148 -54q-65 -34 -100 -90q-34 -55 -34 -132z" />
    <glyph glyph-name="atilde" unicode="&#xe3;" horiz-adv-x="1062" 
d="M92 252l-1 -4q0 90 54 163t146 120q93 47 204 71q113 24 234 24q0 139 -70 215q-71 77 -195 77q-88 0 -157 -42t-112 -112l-68 45q114 209 354 209q187 0 294 -111q107 -112 107 -308v-514l98 -53v-33h-233l-11 141q-38 -73 -117 -125q-80 -53 -196 -53q-156 0 -244 77
q-87 77 -87 213zM239 1251q90 142 190 142q47 0 117 -27t107 -27q39 0 65 12q27 12 59 42l31 -25q-44 -73 -82 -105q-39 -33 -100 -33q-50 0 -119 29t-107 29q-67 0 -135 -71zM255 254l-1 -3q0 -99 55 -155q55 -57 148 -57q110 0 191 90t81 204v225q-113 -9 -192 -28
q-82 -19 -148 -54q-65 -34 -100 -90q-34 -55 -34 -132z" />
    <glyph glyph-name="adieresis" unicode="&#xe4;" horiz-adv-x="1062" 
d="M92 252l-1 -4q0 90 54 163t146 120q93 47 204 71q113 24 234 24q0 139 -70 215q-71 77 -195 77q-88 0 -157 -42t-112 -112l-68 45q114 209 354 209q187 0 294 -111q107 -112 107 -308v-514l98 -53v-33h-233l-11 141q-38 -73 -117 -125q-80 -53 -196 -53q-156 0 -244 77
q-87 77 -87 213zM249 1290h-2q0 44 30 75t74 31q41 0 72 -31t31 -75q0 -42 -30 -73t-72 -31q-43 0 -73 30t-30 74zM253 254l-1 -3q0 -99 55 -155q55 -57 148 -57q110 0 191 90t81 204v225q-113 -9 -192 -28q-82 -19 -148 -54q-65 -34 -100 -90q-34 -55 -34 -132zM576 1287
l-1 -1q0 44 30 75t74 31q41 0 71 -31t30 -75q0 -43 -30 -73t-71 -30q-43 0 -73 30t-30 74z" />
    <glyph glyph-name="aring" unicode="&#xe5;" horiz-adv-x="1062" 
d="M92 252l-1 -4q0 90 54 163t146 120q93 47 204 71q113 24 234 24q0 139 -70 215q-71 77 -195 77q-88 0 -157 -42t-112 -112l-68 45q114 209 354 209q187 0 294 -111q107 -112 107 -308v-514l98 -53v-33h-233l-11 141q-38 -73 -117 -125q-80 -53 -196 -53q-156 0 -244 77
q-87 77 -87 213zM255 254l-1 -3q0 -99 55 -155q55 -57 148 -57q110 0 191 90t81 204v225q-113 -9 -192 -28q-82 -19 -148 -54q-65 -34 -100 -90q-34 -55 -34 -132zM342 1291l-1 -2q0 75 51 125q52 50 126 50q77 0 126 -49q50 -50 50 -126q0 -75 -51 -124q-50 -49 -126 -49
q-77 0 -126 49t-49 126zM409 1289v-1q0 -50 30 -81t77 -31q46 0 78 32q31 31 31 81t-31 81q-32 32 -78 32q-47 0 -77 -32t-30 -81z" />
    <glyph glyph-name="ae" unicode="&#xe6;" horiz-adv-x="1712" 
d="M92 252l-6 -2q0 90 54 163t146 120q93 47 204 71q112 24 234 24q1 143 -68 219q-69 75 -195 75q-175 0 -264 -158l-74 45q49 97 143 153t221 56q245 0 339 -186q64 88 162 138q97 49 213 49q147 0 247 -66q101 -66 143 -174t36 -247l-745 -3q0 -225 104 -352
q104 -126 275 -126q84 0 168 39q85 39 137 93l49 -51q-76 -81 -167 -126q-90 -45 -225 -45q-153 0 -270 75t-175 211q-7 -41 -33 -88q-25 -46 -68 -92q-42 -45 -109 -75t-145 -30q-156 0 -244 77q-87 77 -87 213zM250 256l-1 -3q0 -99 55 -155q56 -57 148 -57q110 0 191 90
t81 204v225q-113 -9 -192 -28q-82 -19 -148 -54q-65 -34 -100 -90q-34 -55 -34 -132zM886 607l567 -2q-5 154 -70 246q-66 93 -199 93q-116 0 -200 -96q-85 -97 -98 -241z" />
    <glyph glyph-name="ccedilla" unicode="&#xe7;" horiz-adv-x="1073" 
d="M82 485l-1 -4q0 231 146 383t372 152q44 0 86 -3t84 -9q49 -7 63 -10q5 -1 26 -5.5t37 -7.5q45 -10 46 -10l-2 -322h-37l-88 228q-86 77 -216 77q-64 0 -120 -27q-55 -27 -94 -72q-39 -44 -66 -104q-27 -58 -39 -122q-12 -63 -12 -125q0 -196 96 -323q96 -128 261 -128
q75 0 153 29q77 29 128 72l37 -58q-124 -124 -303 -131l-41 -69q18 6 47 6q74 0 128 -48t54 -121q0 -77 -57 -123q-58 -47 -148 -47q-62 0 -109 25q-49 26 -77 67l39 31q54 -72 139 -72q62 0 92 33t30 80q0 51 -34 84t-94 33q-37 0 -74 -20l-38 43l51 96q-100 9 -183 49
q-85 41 -147 106q-63 66 -99 160t-36 207z" />
    <glyph glyph-name="egrave" unicode="&#xe8;" horiz-adv-x="1083" 
d="M82 514l-1 1q0 107 39 201q39 95 105 161t156 105t191 39q146 0 247 -66t143 -174t36 -247l-745 -3q0 -225 104 -352q104 -126 275 -126q84 0 168 39q85 39 137 93l49 -51q-76 -81 -167 -126q-90 -45 -225 -45q-107 0 -201 38q-92 37 -162 107q-68 68 -109 174
q-40 104 -40 232zM263 613l569 -2q-4 152 -71 246q-66 93 -200 93q-116 0 -200 -96q-85 -97 -98 -241zM346 1306l55 127h29l365 -269l-19 -37z" />
    <glyph glyph-name="eacute" unicode="&#xe9;" horiz-adv-x="1083" 
d="M82 514l-1 1q0 107 39 201q39 95 105 161t156 105t191 39q146 0 247 -66t143 -174t36 -247l-745 -3q0 -225 104 -352q104 -126 275 -126q84 0 168 39q85 39 137 93l49 -51q-76 -81 -167 -126q-90 -45 -225 -45q-107 0 -201 38q-92 37 -162 107q-68 68 -109 174
q-40 104 -40 232zM263 613l569 -2q-4 152 -71 246q-66 93 -200 93q-116 0 -200 -96q-85 -97 -98 -241zM352 1164l365 269h29l55 -127l-430 -179z" />
    <glyph glyph-name="ecircumflex" unicode="&#xea;" horiz-adv-x="1083" 
d="M82 514l-1 1q0 107 39 201q39 95 105 161t156 105t191 39q146 0 247 -66t143 -174t36 -247l-745 -3q0 -225 104 -352q104 -126 275 -126q84 0 168 39q85 39 137 93l49 -51q-76 -81 -167 -126q-90 -45 -225 -45q-107 0 -201 38q-92 37 -162 107q-68 68 -109 174
q-40 104 -40 232zM263 613l569 -2q-4 152 -71 246q-66 93 -200 93q-116 0 -200 -96q-85 -97 -98 -241zM285 1134v71l272 228h33l272 -228v-71l-289 170z" />
    <glyph glyph-name="edieresis" unicode="&#xeb;" horiz-adv-x="1083" 
d="M82 514l-1 1q0 107 39 201q39 95 105 161t156 105t191 39q146 0 247 -66t143 -174t36 -247l-745 -3q0 -225 104 -352q104 -126 275 -126q84 0 168 39q85 39 137 93l49 -51q-76 -81 -167 -126q-90 -45 -225 -45q-107 0 -201 38q-92 37 -162 107q-68 68 -109 174
q-40 104 -40 232zM263 613l569 -2q-4 152 -71 246q-66 93 -200 93q-116 0 -200 -96q-85 -97 -98 -241zM307 1293v-1q0 44 31 75t75 31q41 0 71 -31t30 -75q0 -43 -30 -73t-71 -30q-43 0 -75 30q-31 30 -31 74zM637 1292h-1q0 44 30 75t74 31q41 0 72 -31t31 -75
q0 -42 -31 -73t-72 -31q-43 0 -73 30t-30 74z" />
    <glyph glyph-name="igrave" unicode="&#xec;" horiz-adv-x="544" 
d="M51 1307l55 127h29l365 -269l-19 -37zM102 0v37l101 49v809l-94 51v35l245 10v-905l99 -53v-33h-351z" />
    <glyph glyph-name="iacute" unicode="&#xed;" horiz-adv-x="544" 
d="M57 1165l365 269h29l55 -127l-430 -179zM102 0v37l101 49v809l-94 51v35l245 10v-905l99 -53v-33h-351z" />
    <glyph glyph-name="icircumflex" unicode="&#xee;" horiz-adv-x="544" 
d="M-10 1135v71l272 228h33l272 -228v-71l-288 170zM102 0v37l101 49v809l-94 51v35l245 10v-905l99 -53v-33h-351z" />
    <glyph glyph-name="idieresis" unicode="&#xef;" horiz-adv-x="544" 
d="M12 1294v-1q0 44 31 75t75 31q41 0 71 -31q30 -32 30 -75t-30 -73t-71 -30q-44 0 -75 30t-31 74zM102 -1v37l101 49v809l-94 51v35l245 10v-905l99 -53v-33h-351zM342 1293h-2q0 43 30 75q30 31 74 31q41 0 72 -31t31 -75q0 -41 -30 -73q-30 -31 -72 -31q-43 0 -73 30
t-30 74z" />
    <glyph glyph-name="eth" unicode="&#xf0;" horiz-adv-x="1161" 
d="M82 475l-1 -4q0 143 69 258t183 178t249 63q152 0 279 -84q-56 172 -162 293l-225 -88v92l160 61q-123 110 -326 178l19 54q233 -56 408 -193l203 78v-92l-131 -51q137 -136 204 -327q68 -192 68 -417q0 -112 -40 -207q-41 -96 -108 -162q-69 -67 -157 -104
q-91 -38 -190 -38q-210 0 -356 147q-146 148 -146 365zM261 471l-3 -2q0 -195 84 -318t239 -123q101 0 174 60q73 59 109 159q36 99 36 222q0 184 -86 306q-85 121 -231 121q-154 0 -238 -118t-84 -307z" />
    <glyph glyph-name="ntilde" unicode="&#xf1;" horiz-adv-x="1187" 
d="M102 0l-1 35l101 49v811l-97 51v35l242 8l6 -127q41 71 121 114t177 43q159 0 252 -90t93 -237v-606l99 -53v-33h-351v37l101 49v600q0 116 -64 183q-65 68 -171 68q-91 0 -159 -58t-97 -150v-643l99 -53v-33h-351zM355 1253l-2 -1q90 142 191 142q46 0 117 -27t107 -27
q40 0 65 12q27 12 59 42l31 -25q-45 -72 -82 -104q-39 -33 -100 -33q-49 0 -118 29t-106 29q-67 0 -135 -71z" />
    <glyph glyph-name="ograve" unicode="&#xf2;" horiz-adv-x="1161" 
d="M82 500h-1q0 218 146 369q145 150 357 150q139 0 252 -70q115 -71 179 -190q65 -121 65 -261q0 -149 -66 -272q-66 -124 -180 -194q-113 -70 -250 -70q-140 0 -258 74q-116 73 -181 197q-65 123 -63 267zM261 500v2q0 -95 17 -178q16 -80 53 -147q35 -65 101 -103
q64 -37 151 -37q82 0 146 38q63 37 99 104q36 66 54 147t18 175q0 122 -32 223q-32 99 -105 162t-180 63q-85 0 -150 -36q-64 -36 -100 -99t-54 -141t-18 -173zM351 1309l56 127h28l365 -269l-19 -37z" />
    <glyph glyph-name="oacute" unicode="&#xf3;" horiz-adv-x="1161" 
d="M82 500h-1q0 218 146 369q145 150 357 150q139 0 252 -70q115 -71 179 -190q65 -121 65 -261q0 -149 -66 -272q-66 -124 -180 -194q-113 -70 -250 -70q-140 0 -258 74q-116 73 -181 197q-65 123 -63 267zM261 500v2q0 -95 17 -178q16 -80 53 -147q35 -65 101 -103
q64 -37 151 -37q82 0 146 38q63 37 99 104q36 66 54 147t18 175q0 122 -32 223q-32 99 -105 162t-180 63q-85 0 -150 -36q-64 -36 -100 -99t-54 -141t-18 -173zM357 1167l365 269h29l55 -127l-430 -179z" />
    <glyph glyph-name="ocircumflex" unicode="&#xf4;" horiz-adv-x="1161" 
d="M82 500h-1q0 218 146 369q145 150 357 150q139 0 252 -70q115 -71 179 -190q65 -121 65 -261q0 -149 -66 -272q-66 -124 -180 -194q-113 -70 -250 -70q-140 0 -258 74q-116 73 -181 197q-65 123 -63 267zM261 500v2q0 -95 17 -178q16 -80 53 -147q35 -65 101 -103
q64 -37 151 -37q82 0 146 38q63 37 99 104q36 66 54 147t18 175q0 122 -32 223q-32 99 -105 162t-180 63q-85 0 -150 -36q-64 -36 -100 -99t-54 -141t-18 -173zM290 1137v71l272 228h33l272 -228v-71l-288 170z" />
    <glyph glyph-name="otilde" unicode="&#xf5;" horiz-adv-x="1161" 
d="M82 500h-1q0 218 146 369q145 150 357 150q139 0 252 -70q115 -71 179 -190q65 -121 65 -261q0 -149 -66 -272q-66 -124 -180 -194q-113 -70 -250 -70q-140 0 -258 74q-116 73 -181 197q-65 123 -63 267zM261 500v2q0 -95 17 -178q16 -80 53 -147q35 -65 101 -103
q64 -37 151 -37q82 0 146 38q63 37 99 104q36 66 54 147t18 175q0 122 -32 223q-32 99 -105 162t-180 63q-85 0 -150 -36q-64 -36 -100 -99t-54 -141t-18 -173zM302 1257h-1q90 142 191 142q46 0 117 -27t107 -27q40 0 65 12q27 12 59 42l30 -25q-44 -73 -82 -105
q-39 -33 -100 -33q-49 0 -118 29t-106 29q-67 0 -135 -71z" />
    <glyph glyph-name="odieresis" unicode="&#xf6;" horiz-adv-x="1161" 
d="M82 500h-1q0 218 146 369q145 150 357 150q139 0 252 -70q115 -71 179 -190q65 -121 65 -261q0 -149 -66 -272q-66 -124 -180 -194q-113 -70 -250 -70q-140 0 -258 74q-116 73 -181 197q-65 123 -63 267zM261 500v2q0 -95 17 -178q16 -80 53 -147q35 -65 101 -103
q64 -37 151 -37q82 0 146 38q63 37 99 104q36 66 54 147t18 175q0 122 -32 223q-32 99 -105 162t-180 63q-85 0 -150 -36q-64 -36 -100 -99t-54 -141t-18 -173zM312 1296v-1q0 44 31 75t75 31q41 0 71 -31q30 -32 30 -75t-30 -73t-71 -30q-44 0 -75 30t-31 74zM642 1295v-1
q0 44 31 75t75 31q41 0 71 -31t30 -75q0 -43 -30 -73t-71 -30q-44 0 -75 30t-31 74z" />
    <glyph glyph-name="divide" unicode="&#xf7;" horiz-adv-x="1058" 
d="M10 543v106h1039v-106h-1039zM442 348h-1q0 35 25 60t61 25q35 0 60 -25q26 -26 26 -60q0 -36 -25 -61t-61 -25q-37 0 -61 24t-24 62zM441 850l-1 -1q0 35 24 59t62 24q34 0 60 -24t26 -59t-25 -60t-60 -25q-36 0 -61 25t-25 61z" />
    <glyph glyph-name="oslash" unicode="&#xf8;" horiz-adv-x="1161" 
d="M82 500l-2 1q0 218 146 369q146 150 357 150q109 0 207 -45l77 147h88l-98 -188q102 -70 162 -186t60 -249q0 -149 -66 -272q-66 -124 -180 -194q-113 -70 -250 -70q-114 0 -213 49l-74 -141h-92l96 182q-103 74 -161 192q-59 119 -57 255zM260 501v1q0 -234 88 -353
l400 750q-70 51 -166 51q-86 0 -150 -36t-100 -99t-54 -141t-18 -173zM410 88v1q70 -51 172 -51q82 0 146 38q63 37 99 104q36 66 54 147t18 175q0 221 -94 340z" />
    <glyph glyph-name="ugrave" unicode="&#xf9;" horiz-adv-x="1200" 
d="M102 946v37l246 8v-694q0 -117 67 -184t183 -67q151 0 261 143v707l-94 51v37l246 8v-915l96 -35v-35l-238 -8v108q-122 -143 -312 -143q-168 0 -264 90t-96 237v604zM367 1307l55 127h29l364 -269l-18 -37z" />
    <glyph glyph-name="uacute" unicode="&#xfa;" horiz-adv-x="1200" 
d="M102 946v37l246 8v-694q0 -117 67 -184t183 -67q151 0 261 143v707l-94 51v37l246 8v-915l96 -35v-35l-238 -8v108q-122 -143 -312 -143q-168 0 -264 90t-96 237v604zM373 1165l364 269h29l55 -127l-430 -179z" />
    <glyph glyph-name="ucircumflex" unicode="&#xfb;" horiz-adv-x="1200" 
d="M102 946v37l246 8v-694q0 -117 67 -184t183 -67q151 0 261 143v707l-94 51v37l246 8v-915l96 -35v-35l-238 -8v108q-122 -143 -312 -143q-168 0 -264 90t-96 237v604zM305 1135v71l273 228h32l273 -228v-71l-289 170z" />
    <glyph glyph-name="udieresis" unicode="&#xfc;" horiz-adv-x="1200" 
d="M102 946v37l246 8v-694q0 -117 67 -184t183 -67q151 0 261 143v707l-94 51v37l246 8v-915l96 -35v-35l-238 -8v108q-122 -143 -312 -143q-168 0 -264 90t-96 237v604zM328 1294h-2q0 44 30 75t74 31q41 0 72 -31t31 -75q0 -42 -30 -73t-72 -31q-43 0 -73 30t-30 74z
M655 1294v-1q0 44 31 75t75 31q41 0 71 -31q30 -32 30 -75t-30 -73t-71 -30q-43 0 -75 30q-31 30 -31 74z" />
    <glyph glyph-name="yacute" unicode="&#xfd;" horiz-adv-x="1130" 
d="M31 946v37h385v-33l-103 -53l285 -676l305 676l-119 53v33h316v-37l-99 -49l-571 -1251l143 -64v-33h-407v37l160 60l182 389l-377 862zM360 1165l365 269h29l55 -127l-430 -179z" />
    <glyph glyph-name="thorn" unicode="&#xfe;" horiz-adv-x="1138" 
d="M82 -391l100 49v1690l-94 51v35l246 10v-526q120 102 268 102q104 0 190 -40q88 -41 144 -109q58 -70 89 -160q32 -93 32 -195q0 -146 -61 -271q-62 -126 -174 -204t-249 -78q-123 0 -241 80v-385l100 -53v-33h-350v37zM334 143l-2 1q115 -100 228 -100q100 0 174 66
t108 171q35 107 35 233q0 192 -84 312t-230 120q-124 0 -229 -117v-686z" />
    <glyph glyph-name="ydieresis" unicode="&#xff;" horiz-adv-x="1130" 
d="M31 946v37h385v-33l-103 -53l285 -676l305 676l-119 53v33h316v-37l-99 -49l-571 -1251l143 -64v-33h-407v37l160 60l182 389l-377 862zM315 1294v-1q0 44 31 75t75 31q41 0 71 -31q30 -32 30 -75t-30 -73t-71 -30q-43 0 -75 30q-31 30 -31 74zM645 1293v-1q0 44 31 75
t75 31q41 0 71 -31t30 -75q0 -43 -30 -73t-71 -30q-43 0 -75 30q-31 30 -31 74z" />
    <glyph glyph-name="Amacron" unicode="&#x100;" horiz-adv-x="1449" 
d="M61 0v33l121 53l445 1178l-70 170h174l561 -1348l97 -53v-33h-418v33l131 53l-146 360h-536l-129 -360l143 -53v-33h-373zM422 1694v94h520v-94h-520zM453 535h467l-248 612z" />
    <glyph glyph-name="amacron" unicode="&#x101;" horiz-adv-x="1062" 
d="M92 252l-1 -4q0 90 54 163t146 120q93 47 204 71q113 24 234 24q0 139 -70 215q-71 77 -195 77q-88 0 -157 -42t-112 -112l-68 45q114 209 354 209q187 0 294 -111q107 -112 107 -308v-514l98 -53v-33h-233l-11 141q-38 -73 -117 -125q-80 -53 -196 -53q-156 0 -244 77
q-87 77 -87 213zM255 254l-1 -3q0 -99 55 -155q55 -57 148 -57q110 0 191 90t81 204v225q-113 -9 -192 -28q-82 -19 -148 -54q-65 -34 -100 -90q-34 -55 -34 -132zM254 1236v94h520v-94h-520z" />
    <glyph glyph-name="Abreve" unicode="&#x102;" horiz-adv-x="1449" 
d="M61 0v33l121 53l445 1178l-70 170h174l561 -1348l97 -53v-33h-418v33l131 53l-146 360h-536l-129 -360l143 -53v-33h-373zM401 1884h53q44 -186 234 -186t234 186h51q0 -122 -78 -210q-78 -89 -208 -89q-72 0 -126 25q-55 25 -90 68q-33 41 -52 95q-18 53 -18 111z
M454 535h467l-248 612z" />
    <glyph glyph-name="abreve" unicode="&#x103;" horiz-adv-x="1062" 
d="M92 252l-1 -4q0 90 54 163t146 120q93 47 204 71q113 24 234 24q0 139 -70 215q-71 77 -195 77q-88 0 -157 -42t-112 -112l-68 45q114 209 354 209q187 0 294 -111q107 -112 107 -308v-514l98 -53v-33h-233l-11 141q-38 -73 -117 -125q-80 -53 -196 -53q-156 0 -244 77
q-87 77 -87 213zM235 1430h53q20 -87 77 -137q58 -50 155 -50q191 0 234 187h51q0 -122 -78 -210q-78 -89 -208 -89q-91 0 -158 44q-66 43 -96 110q-30 66 -30 145zM257 254l-1 -3q0 -99 55 -155q55 -57 148 -57q110 0 191 90t81 204v225q-113 -9 -192 -28q-82 -19 -148 -54
q-65 -34 -100 -90q-34 -55 -34 -132z" />
    <glyph glyph-name="Aogonek" unicode="&#x104;" horiz-adv-x="1449" 
d="M61 0v34l121 53l445 1178l-70 170h174l561 -1348l97 -53v-33h-58q-62 -73 -103 -150q-40 -74 -40 -130q0 -47 29 -73q28 -25 72 -25q37 0 84 12l17 -51q-53 -22 -123 -22q-59 0 -109 14q-48 14 -81 48t-33 87q0 69 57 139t159 150h-289v33l131 53l-146 360h-536
l-129 -360l143 -53v-33h-373zM453 536h467l-248 612z" />
    <glyph glyph-name="aogonek" unicode="&#x105;" horiz-adv-x="1062" 
d="M92 252l1 -6q0 90 54 163t146 120q93 47 204 71q113 24 234 24q0 139 -70 215q-71 77 -195 77q-88 0 -157 -42t-112 -112l-68 45q114 209 354 209q187 0 294 -111q107 -112 107 -308v-514l98 -53v-33h-59q-65 -75 -105 -150q-40 -74 -40 -129q0 -47 29 -73q28 -25 72 -25
q37 0 84 12l16 -51q-53 -22 -123 -22q-96 0 -159 36t-63 114q0 69 57 140q56 69 158 150h-102l-11 141q-38 -73 -117 -125q-80 -53 -196 -53q-156 0 -244 77q-87 77 -87 213zM257 252l-1 -3q0 -99 55 -155q55 -57 148 -57q110 0 191 90t81 204v225q-113 -9 -192 -28
q-82 -19 -148 -54q-65 -34 -100 -90q-34 -55 -34 -132z" />
    <glyph glyph-name="Cacute" unicode="&#x106;" horiz-adv-x="1404" 
d="M123 717h-2q0 174 55 315q56 142 150 237q94 94 224 147t276 53q119 0 215 -14q90 -13 207 -47l-6 -328h-37l-125 242q-113 74 -252 74q-127 0 -225 -52q-99 -52 -162 -144q-63 -91 -96 -215q-33 -123 -33 -269q0 -116 17 -218q17 -100 55 -184q39 -85 98 -144
q58 -58 147 -91t201 -33q57 0 135 21q77 21 130 57l125 227h36l7 -319q-240 -70 -435 -70q-153 0 -285 53q-129 52 -223 149q-92 95 -145 238q-52 141 -52 315zM598 1616l365 268h28l56 -127l-431 -178z" />
    <glyph glyph-name="cacute" unicode="&#x107;" horiz-adv-x="1073" 
d="M82 485l-4 -5q0 231 146 383t372 152q44 0 86 -3t84 -9q49 -7 63 -10q5 -1 26 -5.5t37 -7.5q45 -10 46 -10l-2 -322h-37l-88 228q-86 77 -216 77q-65 0 -120 -27t-94 -72q-39 -44 -66 -104q-27 -58 -39 -122q-12 -63 -12 -125q0 -195 96 -323t261 -128q75 0 153 29
q77 29 128 72l37 -58q-133 -133 -340 -133q-224 0 -370 142q-147 142 -147 381zM367 1160l364 269h29l55 -127l-430 -179z" />
    <glyph glyph-name="Ccircumflex" unicode="&#x108;" horiz-adv-x="1404" 
d="M123 717h-2q0 174 55 315q56 142 150 237q94 94 224 147t276 53q119 0 215 -14q90 -13 207 -47l-6 -328h-37l-125 242q-113 74 -252 74q-127 0 -225 -52q-99 -52 -162 -144q-63 -91 -96 -215q-33 -123 -33 -269q0 -116 17 -218q17 -100 55 -184q39 -85 98 -144
q58 -58 147 -91t201 -33q57 0 135 21q77 21 130 57l125 227h36l7 -319q-240 -70 -435 -70q-153 0 -285 53q-129 52 -223 149q-92 95 -145 238q-52 141 -52 315zM530 1585v72l273 227h33l272 -227v-72l-289 170z" />
    <glyph glyph-name="ccircumflex" unicode="&#x109;" horiz-adv-x="1073" 
d="M82 485l-4 -5q0 231 146 383t372 152q44 0 86 -3t84 -9q49 -7 63 -10q5 -1 26 -5.5t37 -7.5q45 -10 46 -10l-2 -322h-37l-88 228q-86 77 -216 77q-65 0 -120 -27t-94 -72q-39 -44 -66 -104q-27 -58 -39 -122q-12 -63 -12 -125q0 -195 96 -323t261 -128q75 0 153 29
q77 29 128 72l37 -58q-133 -133 -340 -133q-224 0 -370 142q-147 142 -147 381zM299 1130v71l272 228h33l273 -228v-71l-289 170z" />
    <glyph glyph-name="Cdotaccent" unicode="&#x10a;" horiz-adv-x="1404" 
d="M123 717h-2q0 174 55 315q56 142 150 237q94 94 224 147t276 53q119 0 215 -14q90 -13 207 -47l-6 -328h-37l-125 242q-113 74 -252 74q-127 0 -225 -52q-99 -52 -162 -144q-63 -91 -96 -215q-33 -123 -33 -269q0 -116 17 -218q17 -100 55 -184q39 -85 98 -144
q58 -58 147 -91t201 -33q57 0 135 21q77 21 130 57l125 227h36l7 -319q-240 -70 -435 -70q-153 0 -285 53q-129 52 -223 149q-92 95 -145 238q-52 141 -52 315zM715 1753v-1q0 43 32 77q31 33 75 33t75 -33q32 -34 32 -76q0 -43 -32 -75t-75 -32t-75 32t-32 75z" />
    <glyph glyph-name="cdotaccent" unicode="&#x10b;" horiz-adv-x="1073" 
d="M82 485l-4 -5q0 231 146 383t372 152q44 0 86 -3t84 -9q49 -7 63 -10q5 -1 26 -5.5t37 -7.5q45 -10 46 -10l-2 -322h-37l-88 228q-86 77 -216 77q-65 0 -120 -27t-94 -72q-39 -44 -66 -104q-27 -58 -39 -122q-12 -63 -12 -125q0 -195 96 -323t261 -128q75 0 153 29
q77 29 128 72l37 -58q-133 -133 -340 -133q-224 0 -370 142q-147 142 -147 381zM483 1298l-2 -1q0 43 33 75q34 32 77 32t75 -32t32 -75q0 -44 -31 -76q-31 -33 -75 -33q-43 0 -76 33t-33 77z" />
    <glyph glyph-name="Ccaron" unicode="&#x10c;" horiz-adv-x="1404" 
d="M123 717h-2q0 174 55 315q56 142 150 237q94 94 224 147t276 53q119 0 215 -14q90 -13 207 -47l-6 -328h-37l-125 242q-113 74 -252 74q-127 0 -225 -52q-99 -52 -162 -144q-63 -91 -96 -215q-33 -123 -33 -269q0 -116 17 -218q17 -100 55 -184q39 -85 98 -144
q58 -58 147 -91t201 -33q57 0 135 21q77 21 130 57l125 227h36l7 -319q-240 -70 -435 -70q-153 0 -285 53q-129 52 -223 149q-92 95 -145 238q-52 141 -52 315zM535 1812v72l288 -170l289 170v-72l-272 -227h-33z" />
    <glyph glyph-name="ccaron" unicode="&#x10d;" horiz-adv-x="1073" 
d="M82 485l-4 -5q0 231 146 383t372 152q44 0 86 -3t84 -9q49 -7 63 -10q5 -1 26 -5.5t37 -7.5q45 -10 46 -10l-2 -322h-37l-88 228q-86 77 -216 77q-65 0 -120 -27t-94 -72q-39 -44 -66 -104q-27 -58 -39 -122q-12 -63 -12 -125q0 -195 96 -323t261 -128q75 0 153 29
q77 29 128 72l37 -58q-133 -133 -340 -133q-224 0 -370 142q-147 142 -147 381zM303 1357v72l289 -170l289 170v-72l-273 -227h-32z" />
    <glyph glyph-name="Dcaron" unicode="&#x10e;" horiz-adv-x="1509" 
d="M143 0l-1 35l111 49v1260l-111 49v39h537q179 0 314 -55q137 -56 221 -153q85 -98 128 -225q43 -126 43 -279q0 -120 -28 -225q-29 -108 -85 -198t-140 -157q-81 -65 -198 -103q-114 -37 -254 -37h-537zM425 86l232 -1q107 0 198 35q92 35 152 94q61 60 105 141t63 172
q20 94 20 190q0 631 -537 631h-233v-1262zM432 1809v72l289 -170l289 170v-72l-273 -227h-32z" />
    <glyph glyph-name="dcaron" unicode="&#x10f;" horiz-adv-x="1228" 
d="M82 485h-2q0 145 62 267t177 195t261 73q74 0 150 -30t121 -84v443l-98 51v35l249 10v-1331l103 -56v-34l-254 -23v80q-47 -51 -120 -84t-162 -33q-139 0 -252 71t-174 189t-61 261zM260 492l-3 -1q0 -195 90 -323t242 -128q73 0 148 42q74 42 109 102v621
q-44 65 -114 102q-71 38 -144 38q-158 0 -243 -126q-85 -125 -85 -327zM1101 1101v332h160v-52l-127 -280h-33z" />
    <glyph glyph-name="Dcroat" unicode="&#x110;" horiz-adv-x="1601" 
d="M143 694l-5 89h203v564l-110 49v39h536q143 0 260 -36t200 -101q82 -64 139 -154t84 -196t27 -228q0 -120 -28 -225q-29 -108 -85 -198t-140 -157q-81 -65 -198 -103q-114 -37 -254 -37h-536v37l110 49v608h-203zM513 89l233 -1q107 0 198 35q90 35 151 94q61 60 105 141
t63 172q20 94 20 190q0 631 -536 631h-234v-568h342v-88h-342v-606z" />
    <glyph glyph-name="dcroat" unicode="&#x111;" horiz-adv-x="1206" 
d="M82 485h-2q0 145 62 267t177 195t261 73q74 0 150 -30t121 -84v264h-309v78h309v101l-98 51v35l249 10v-197h148v-78h-148v-1056l103 -56v-34l-254 -23v80q-47 -51 -120 -84t-162 -33q-139 0 -252 71t-174 189t-61 261zM260 492l-3 -1q0 -195 90 -323t242 -128
q73 0 148 42q74 42 109 102v621q-44 65 -114 102q-71 38 -144 38q-158 0 -243 -126q-85 -125 -85 -327z" />
    <glyph glyph-name="Emacron" unicode="&#x112;" horiz-adv-x="1280" 
d="M143 1397v37h938l31 -330h-37l-135 246h-512v-557l475 10v-107l-475 17v-625h588l125 260h37l-21 -348h-1012v37l111 49l-2 1262zM422 1694v94h520v-94h-520z" />
    <glyph glyph-name="emacron" unicode="&#x113;" horiz-adv-x="1083" 
d="M82 514l-1 1q0 107 39 201q39 95 105 161t156 105t191 39q146 0 247 -66t143 -174t36 -247l-745 -3q0 -225 104 -352q104 -126 275 -126q84 0 168 39q85 39 137 93l49 -51q-76 -81 -167 -126q-90 -45 -225 -45q-107 0 -201 38q-92 37 -162 107q-68 68 -109 174
q-40 104 -40 232zM263 613l569 -2q-4 152 -71 246q-66 93 -200 93q-116 0 -200 -96q-85 -97 -98 -241zM313 1242v94h521v-94h-521z" />
    <glyph glyph-name="Ebreve" unicode="&#x114;" horiz-adv-x="1280" 
d="M143 1397v37h938l31 -330h-37l-135 246h-512v-557l475 10v-107l-475 17v-625h588l125 260h37l-21 -348h-1012v37l111 49l-2 1262zM401 1884h53q44 -186 234 -186t234 186h51q0 -122 -78 -210q-78 -89 -208 -89q-72 0 -126 25q-55 25 -90 68q-33 41 -52 95q-18 53 -18 111
z" />
    <glyph glyph-name="ebreve" unicode="&#x115;" horiz-adv-x="1083" 
d="M82 514l-1 1q0 107 39 201q39 95 105 161t156 105t191 39q146 0 247 -66t143 -174t36 -247l-745 -3q0 -225 104 -352q104 -126 275 -126q84 0 168 39q85 39 137 93l49 -51q-76 -81 -167 -126q-90 -45 -225 -45q-107 0 -201 38q-92 37 -162 107q-68 68 -109 174
q-40 104 -40 232zM263 613l569 -2q-4 152 -71 246q-66 93 -200 93q-116 0 -200 -96q-85 -97 -98 -241zM293 1433h51q20 -88 78 -137q59 -50 156 -50q191 0 234 187h51q0 -121 -77 -210t-207 -89q-72 0 -126 25q-55 25 -90 68q-33 41 -52 95q-18 52 -18 111z" />
    <glyph glyph-name="Edotaccent" unicode="&#x116;" horiz-adv-x="1280" 
d="M143 1397v37h938l31 -330h-37l-135 246h-512v-557l475 10v-107l-475 17v-625h588l125 260h37l-21 -348h-1012v37l111 49l-2 1262zM578 1753v-1q0 43 32 77q32 33 75 33t75 -33q32 -34 32 -76q0 -43 -32 -75t-75 -32t-75 32t-32 75z" />
    <glyph glyph-name="edotaccent" unicode="&#x117;" horiz-adv-x="1083" 
d="M82 514l-1 1q0 107 39 201q39 95 105 161t156 105t191 39q146 0 247 -66t143 -174t36 -247l-745 -3q0 -225 104 -352q104 -126 275 -126q84 0 168 39q85 39 137 93l49 -51q-76 -81 -167 -126q-90 -45 -225 -45q-107 0 -201 38q-92 37 -162 107q-68 68 -109 174
q-40 104 -40 232zM263 613l569 -2q-4 152 -71 246q-66 93 -200 93q-116 0 -200 -96q-85 -97 -98 -241zM469 1302l-2 -1q0 43 33 75q34 32 77 32t75 -32t32 -75q0 -44 -31 -76q-31 -33 -75 -33q-43 0 -76 33t-33 77z" />
    <glyph glyph-name="Eogonek" unicode="&#x118;" horiz-adv-x="1280" 
d="M143 1397l2 35h938l31 -330h-37l-135 246h-512v-557l475 10v-107l-475 17v-625h588l125 260h37l-21 -348h-63q-64 -75 -105 -150q-40 -74 -40 -129q0 -47 29 -73q28 -25 72 -25q38 0 84 12l16 -51q-53 -22 -123 -22q-96 0 -159 36t-63 114q0 70 57 140q56 69 158 150
h-877v37l111 49l-2 1262z" />
    <glyph glyph-name="eogonek" unicode="&#x119;" horiz-adv-x="1083" 
d="M82 514v-1q0 107 39 201q39 95 105 161t156 105t191 39q146 0 247 -66t143 -174t36 -247l-745 -3q0 -225 104 -352q104 -126 275 -126q84 0 168 39q85 39 137 93l49 -51q-108 -112 -227 -147q-57 -69 -94 -141q-36 -70 -36 -123q0 -47 29 -73q28 -25 72 -25q37 0 84 12
l16 -51q-53 -22 -122 -22q-59 0 -109 14q-48 14 -81 48t-33 87q0 109 175 254q-18 0 -33 -1t-34 -1q-107 0 -201 38q-92 37 -162 107q-68 68 -109 174q-40 104 -40 232zM264 611l569 -2q-4 152 -71 246q-66 93 -200 93q-116 0 -200 -96q-85 -97 -98 -241z" />
    <glyph glyph-name="Ecaron" unicode="&#x11a;" horiz-adv-x="1280" 
d="M143 1397v37h938l31 -330h-37l-135 246h-512v-557l475 10v-107l-475 17v-625h588l125 260h37l-21 -348h-1012v37l111 49l-2 1262zM397 1812v72l289 -170l289 170v-72l-273 -227h-32z" />
    <glyph glyph-name="ecaron" unicode="&#x11b;" horiz-adv-x="1083" 
d="M82 514l-1 1q0 107 39 201q39 95 105 161t156 105t191 39q146 0 247 -66t143 -174t36 -247l-745 -3q0 -225 104 -352q104 -126 275 -126q84 0 168 39q85 39 137 93l49 -51q-76 -81 -167 -126q-90 -45 -225 -45q-107 0 -201 38q-92 37 -162 107q-68 68 -109 174
q-40 104 -40 232zM263 613l569 -2q-4 152 -71 246q-66 93 -200 93q-116 0 -200 -96q-85 -97 -98 -241zM289 1361v72l289 -170l288 170v-72l-272 -227h-33z" />
    <glyph glyph-name="Gcircumflex" unicode="&#x11c;" horiz-adv-x="1542" 
d="M123 717v3q0 172 57 315t156 237t234 147q136 53 290 53q219 0 432 -61l-6 -328h-37l-125 236q-131 74 -282 74q-167 0 -289 -89q-121 -88 -181 -239q-60 -150 -60 -345q0 -112 18 -211q18 -98 57 -184q39 -84 98 -147q58 -61 143 -96q83 -34 188 -34q92 0 182 30t153 78
v465l-211 59v37h490v-33l-107 -53v-535q-205 -133 -516 -133q-211 0 -368 95t-236 264q-80 171 -80 395zM543 1588v72l272 227h33l272 -227v-72l-289 170z" />
    <glyph glyph-name="gcircumflex" unicode="&#x11d;" horiz-adv-x="1187" 
d="M102 176l-3 3q0 78 48 138t123 99q-96 99 -96 247q0 113 55 196q56 85 144 125q90 41 195 41q117 0 211 -49l287 49h16v-119h-211q93 -96 93 -242q0 -113 -55 -195q-55 -83 -144 -123q-90 -41 -195 -41q-135 0 -239 66q-52 -24 -88 -66t-36 -91q0 -60 53 -84
q52 -24 168 -24h313q157 0 240 -54t83 -185q0 -103 -69 -184t-178 -123t-240 -42q-178 0 -277 63t-99 184q0 65 30 126l156 33l4 -14q-43 -76 -43 -146q0 -79 63 -133t187 -54q81 0 158 30q76 30 129 92t53 138q0 56 -43 86t-126 30h-354q-160 0 -237 59q-76 58 -76 164z
M300 1138v71l272 228h33l273 -228v-71l-289 170zM337 662q0 -131 60 -215t172 -84t172 84t60 215t-60 215t-172 84t-172 -84t-60 -215z" />
    <glyph glyph-name="Gbreve" unicode="&#x11e;" horiz-adv-x="1542" 
d="M123 717v3q0 172 57 315t156 237t234 147q136 53 290 53q219 0 432 -61l-6 -328h-37l-125 236q-131 74 -282 74q-167 0 -289 -89q-121 -88 -181 -239q-60 -150 -60 -345q0 -112 18 -211q18 -98 57 -184q39 -84 98 -147q58 -61 143 -96q83 -34 188 -34q92 0 182 30t153 78
v465l-211 59v37h490v-33l-107 -53v-535q-205 -133 -516 -133q-211 0 -368 95t-236 264q-80 171 -80 395zM551 1887l51 -1q20 -86 78 -135q59 -50 156 -50q190 0 234 186h51q0 -121 -77 -210t-207 -89q-72 0 -126 25q-55 25 -90 68q-33 41 -52 95q-18 52 -18 111z" />
    <glyph glyph-name="gbreve" unicode="&#x11f;" horiz-adv-x="1187" 
d="M102 176l-3 3q0 78 48 138t123 99q-96 99 -96 247q0 113 55 196q56 85 144 125q90 41 195 41q117 0 211 -49l287 49h16v-119h-211q93 -96 93 -242q0 -113 -55 -195q-55 -83 -144 -123q-90 -41 -195 -41q-135 0 -239 66q-52 -24 -88 -66t-36 -91q0 -60 53 -84
q52 -24 168 -24h313q157 0 240 -54t83 -185q0 -103 -69 -184t-178 -123t-240 -42q-178 0 -277 63t-99 184q0 65 30 126l156 33l4 -14q-43 -76 -43 -146q0 -79 63 -133t187 -54q81 0 158 30q76 30 129 92t53 138q0 56 -43 86t-126 30h-354q-160 0 -237 59q-76 58 -76 164z
M308 1437h52q20 -88 78 -137q59 -50 156 -50q191 0 234 187h52q0 -121 -78 -210t-208 -89q-72 0 -126 25q-55 25 -90 68q-33 41 -52 95q-18 52 -18 111zM338 662q0 -131 60 -215t172 -84t172 84t60 215t-60 215t-172 84t-172 -84t-60 -215z" />
    <glyph glyph-name="Gdotaccent" unicode="&#x120;" horiz-adv-x="1542" 
d="M123 717v3q0 172 57 315t156 237t234 147q136 53 290 53q219 0 432 -61l-6 -328h-37l-125 236q-131 74 -282 74q-167 0 -289 -89q-121 -88 -181 -239q-60 -150 -60 -345q0 -112 18 -211q18 -98 57 -184q39 -84 98 -147q58 -61 143 -96q83 -34 188 -34q92 0 182 30t153 78
v465l-211 59v37h490v-33l-107 -53v-535q-205 -133 -516 -133q-211 0 -368 95t-236 264q-80 171 -80 395zM727 1756l-2 -1q0 44 33 77t77 33q43 0 75 -33q32 -34 32 -76q0 -44 -31 -75q-32 -32 -75 -32q-42 0 -76 32q-33 31 -33 75z" />
    <glyph glyph-name="gdotaccent" unicode="&#x121;" horiz-adv-x="1187" 
d="M102 176l-3 3q0 78 48 138t123 99q-96 99 -96 247q0 113 55 196q56 85 144 125q90 41 195 41q117 0 211 -49l287 49h16v-119h-211q93 -96 93 -242q0 -113 -55 -195q-55 -83 -144 -123q-90 -41 -195 -41q-135 0 -239 66q-52 -24 -88 -66t-36 -91q0 -60 53 -84
q52 -24 168 -24h313q157 0 240 -54t83 -185q0 -103 -69 -184t-178 -123t-240 -42q-178 0 -277 63t-99 184q0 65 30 126l156 33l4 -14q-43 -76 -43 -146q0 -79 63 -133t187 -54q81 0 158 30q76 30 129 92t53 138q0 56 -43 86t-126 30h-354q-160 0 -237 59q-76 58 -76 164z
M337 662q0 -131 60 -215t172 -84t172 84t60 215t-60 215t-172 84t-172 -84t-60 -215zM484 1306l-2 -1q0 43 33 75q34 32 77 32t75 -32t32 -75q0 -44 -31 -76q-32 -33 -75 -33t-76 33t-33 77z" />
    <glyph glyph-name="uni0122" unicode="&#x122;" horiz-adv-x="1542" 
d="M123 717v3q0 172 57 315t156 237t234 147q136 53 290 53q219 0 432 -61l-6 -328h-37l-125 236q-131 74 -282 74q-167 0 -289 -89q-121 -88 -181 -239q-60 -150 -60 -345q0 -112 18 -211q18 -98 57 -184q39 -84 98 -147q58 -61 143 -96q83 -34 188 -34q92 0 182 30t153 78
v465l-211 59v37h490v-33l-107 -53v-535q-205 -133 -516 -133q-211 0 -368 95t-236 264q-80 171 -80 395zM709 -407l28 312h146v-52l-142 -260h-32z" />
    <glyph glyph-name="uni0123" unicode="&#x123;" horiz-adv-x="1187" 
d="M102 176l-3 3q0 78 48 138t123 99q-96 99 -96 247q0 113 55 196q56 85 144 125q90 41 195 41q117 0 211 -49l287 49h16v-119h-211q93 -96 93 -242q0 -113 -55 -195q-55 -83 -144 -123q-90 -41 -195 -41q-135 0 -239 66q-52 -24 -88 -66t-36 -91q0 -60 53 -84
q52 -24 168 -24h313q157 0 240 -54t83 -185q0 -103 -69 -184t-178 -123t-240 -42q-178 0 -277 63t-99 184q0 65 30 126l156 33l4 -14q-43 -76 -43 -146q0 -79 63 -133t187 -54q81 0 158 30q76 30 129 92t53 138q0 56 -43 86t-126 30h-354q-160 0 -237 59q-76 58 -76 164z
M337 662q0 -131 60 -215t172 -84t172 84t60 215t-60 215t-172 84t-172 -84t-60 -215zM521 1109v51l142 260h32l-28 -311h-146z" />
    <glyph glyph-name="Hcircumflex" unicode="&#x124;" horiz-adv-x="1570" 
d="M143 0v37l111 49v1262l-111 49v37h389v-33l-106 -53v-535h723v535l-111 49v37h389v-33l-106 -53v-1262l106 -53v-33h-389v37l111 49v635h-723v-635l106 -53v-33h-389zM498 1585v72l272 227h33l272 -227v-72l-289 170z" />
    <glyph glyph-name="hcircumflex" unicode="&#x125;" horiz-adv-x="1169" 
d="M-31 1524v71l273 228h32l273 -228v-71l-289 170zM92 0l-2 37l101 49v1262l-99 51v35l250 10v-572q44 69 121 108q78 39 172 39q159 0 251 -90t92 -237v-606l98 -53v-33h-354v37l100 49v600q0 118 -60 185q-60 68 -166 68q-86 0 -155 -57t-97 -145v-651l98 -53v-33h-350z
" />
    <glyph glyph-name="Hbar" unicode="&#x126;" horiz-adv-x="1599" 
d="M143 1042v88h123v218l-110 49v37h389v-33l-107 -53v-218h723v218l-110 49v37h389v-33l-107 -53v-218h123v-88h-123v-956l107 -53v-33h-389v37l110 49v635h-723v-635l107 -53v-33h-389v37l110 49v956h-123zM438 813h723v229h-723v-229z" />
    <glyph glyph-name="hbar" unicode="&#x127;" horiz-adv-x="1179" 
d="M53 1169l-2 78h140v101l-99 51v35l250 10v-197h318v-78h-318v-297q44 69 121 108q78 39 172 39q159 0 251 -90t92 -237v-606l98 -53v-33h-354v37l100 49v600q0 118 -60 185q-60 68 -166 68q-86 0 -155 -57t-97 -145v-651l98 -53v-33h-350v37l101 49v1083h-140z" />
    <glyph glyph-name="Itilde" unicode="&#x128;" horiz-adv-x="675" 
d="M59 1706h-2q88 141 191 141q46 0 117 -27q70 -27 107 -27q39 0 65 12q27 12 59 42l31 -24q-45 -72 -82 -104q-39 -33 -100 -33q-49 0 -118 29t-106 29q-41 0 -72 -19t-63 -54zM141 0v37l111 49v1262l-111 49v37h389v-33l-106 -53v-1262l106 -53v-33h-389z" />
    <glyph glyph-name="itilde" unicode="&#x129;" horiz-adv-x="544" 
d="M2 1255h-1q90 142 191 142q46 0 117 -27t107 -27q40 0 65 12q27 12 59 42l30 -25q-44 -73 -82 -105q-39 -33 -100 -33q-49 0 -118 29t-106 29q-67 0 -135 -71zM101 0v37l101 49v809l-94 51v35l245 10v-905l99 -53v-33h-351z" />
    <glyph glyph-name="Imacron" unicode="&#x12a;" horiz-adv-x="675" 
d="M76 1694v94h520v-94h-520zM143 0v37l111 49v1262l-111 49v37h389v-33l-106 -53v-1262l106 -53v-33h-389z" />
    <glyph glyph-name="imacron" unicode="&#x12b;" horiz-adv-x="544" 
d="M18 1243v94h521v-94h-521zM102 0v37l101 49v809l-94 51v35l245 10v-905l99 -53v-33h-351z" />
    <glyph glyph-name="Ibreve" unicode="&#x12c;" horiz-adv-x="675" 
d="M55 1884l52 -1q19 -85 78 -135t156 -50q191 0 234 186h52q0 -122 -78 -210q-78 -89 -208 -89q-72 0 -126 25q-55 25 -90 68q-33 41 -52 95q-18 53 -18 111zM144 -1v37l111 49v1262l-111 49v37h389v-33l-106 -53v-1262l106 -53v-33h-389z" />
    <glyph glyph-name="ibreve" unicode="&#x12d;" horiz-adv-x="544" 
d="M-2 1434h51q20 -88 78 -137q59 -50 156 -50q191 0 234 187h51q0 -121 -77 -210t-207 -89q-72 0 -126 25q-55 25 -90 68q-33 41 -52 95q-18 53 -18 111zM102 0v37l101 49v809l-94 51v35l245 10v-905l99 -53v-33h-351z" />
    <glyph glyph-name="Iogonek" unicode="&#x12e;" horiz-adv-x="675" 
d="M143 0v36l111 49v1262l-111 49v37h389v-33l-106 -53v-1262l106 -53v-33h-53q-62 -73 -103 -150q-40 -74 -40 -130q0 -47 29 -73q28 -25 72 -25q37 0 84 12l17 -51q-53 -22 -123 -22q-96 0 -159 36t-63 114q0 70 57 140q56 69 158 150h-265z" />
    <glyph glyph-name="iogonek" unicode="&#x12f;" horiz-adv-x="544" 
d="M82 -289l2 -2q0 69 57 140q56 69 158 150h-195v37l101 49v809l-94 51v35l245 10v-905l99 -53v-33h-84q-65 -75 -105 -150q-40 -74 -40 -129q0 -47 29 -73q28 -25 72 -25q37 0 84 12l16 -51q-53 -22 -123 -22q-96 0 -159 36t-63 114zM176 1301l-2 -1q0 44 33 75
q34 32 77 32t75 -32t32 -75q0 -44 -31 -76q-32 -33 -75 -33t-76 33t-33 77z" />
    <glyph glyph-name="Idotaccent" unicode="&#x130;" horiz-adv-x="675" 
d="M143 0v37l111 49v1262l-111 49v37h389v-33l-106 -53v-1262l106 -53v-33h-389zM231 1753l-2 -1q0 44 33 77t77 33q43 0 75 -33q32 -34 32 -76q0 -44 -31 -75q-32 -32 -75 -32q-42 0 -76 32q-33 32 -33 75z" />
    <glyph glyph-name="dotlessi" unicode="&#x131;" horiz-adv-x="544" 
d="M102 0v37l101 49v809l-94 51v35l245 10v-905l99 -53v-33h-351z" />
    <glyph glyph-name="IJ" unicode="&#x132;" horiz-adv-x="1544" 
d="M143 0v37l111 49v1262l-111 49v37h389v-33l-106 -53v-1262l106 -53v-33h-389zM717 20l3 288h37l94 -246q45 -30 106 -30q52 0 86 24q35 24 54 72q19 46 28 111q9 63 9 149v961l-136 49v37h414v-33l-106 -53v-967q0 -111 -28 -192q-29 -83 -78 -131q-50 -48 -111 -72
t-135 -24q-106 0 -237 57z" />
    <glyph glyph-name="ij" unicode="&#x133;" horiz-adv-x="1128" 
d="M102 0v37l101 49v811l-97 51v35l248 8v-905l99 -53v-33h-351zM164 1339v-1q0 43 32 77q32 33 75 33t75 -33q32 -34 32 -76q0 -43 -32 -75t-75 -32t-75 32t-32 75zM545 -450l1 286h37l88 -215q26 -14 51 -14q40 0 67 34q27 35 24 93l-14 266l-2 893l-115 53v35l270 8
v-1016q0 -133 -27 -234t-88 -163q-61 -63 -153 -63q-22 0 -42 3q-17 3 -35 8q-13 4 -25 9q-14 6 -22 10q-5 2 -10 5zM749 1337v-1q0 43 32 77q31 33 75 33t75 -33q32 -34 32 -76q0 -43 -32 -75t-75 -32t-75 32t-32 75z" />
    <glyph glyph-name="Jcircumflex" unicode="&#x134;" horiz-adv-x="909" 
d="M82 20l4 288h37l94 -246q45 -30 107 -30q52 0 86 24t54 72t27 111q8 67 8 149v961l-136 49v37h414v-33l-106 -53v-967q0 -111 -28 -192q-29 -83 -78 -131t-111 -72t-135 -24q-107 0 -237 57zM293 1586v72l272 227h33l272 -227v-72l-288 170z" />
    <glyph glyph-name="jcircumflex" unicode="&#x135;" horiz-adv-x="583" 
d="M0 -449l1 286h37l88 -215q26 -14 51 -14q40 0 67 34t24 93l-14 266l-2 893l-115 51v35l271 10v-1016q0 -100 -16 -180q-16 -82 -48 -145t-84 -99q-53 -36 -121 -36q-23 0 -42 3q-17 3 -35 8q-13 4 -25 9q-14 6 -22 10l-10 4zM36 1134v71l272 228h33l272 -228v-71
l-288 170z" />
    <glyph glyph-name="uni0136" unicode="&#x136;" horiz-adv-x="1421" 
d="M143 0v37l111 49v1262l-111 49v37h392v-33l-107 -53l-2 -1262l109 -53v-33h-392zM451 774l555 574l-132 49v37h439v-33l-148 -53l-553 -506l627 -756l121 -53v-33h-461v37l113 45zM645 -410l29 312h145v-52l-141 -260h-33z" />
    <glyph glyph-name="uni0137" unicode="&#x137;" horiz-adv-x="1079" 
d="M102 0v37l101 49v1262l-94 51v35l245 10v-1358l103 -53v-33h-355zM387 555l367 342l-156 53v33h406v-37l-119 -49l-336 -309l407 -502l93 -53v-33h-230zM524 -410l29 312h145v-52l-141 -260h-33z" />
    <glyph glyph-name="kgreenlandic" unicode="&#x138;" horiz-adv-x="1079" 
d="M102 0v37l101 49v811l-94 51v35l245 8v-905l103 -53v-33h-355zM387 535l367 362l-156 53v33h406v-37l-119 -49l-336 -330l407 -481l93 -53v-33h-230z" />
    <glyph glyph-name="Lacute" unicode="&#x139;" horiz-adv-x="1222" 
d="M127 1616l365 268h28l55 -127l-430 -178zM143 0v37l111 49v1262l-111 49v37h389v-33l-106 -53v-1260h522l125 260h37l-20 -348h-947z" />
    <glyph glyph-name="lacute" unicode="&#x13a;" horiz-adv-x="534" 
d="M41 1616l365 268h28l55 -127l-430 -178zM92 0v37l101 49v1262l-95 51v35l246 10v-1358l98 -53v-33h-350z" />
    <glyph glyph-name="uni013B" unicode="&#x13b;" horiz-adv-x="1222" 
d="M143 0v37l111 49v1262l-111 49v37h389v-33l-106 -53v-1260h522l125 260h37l-20 -348h-947zM584 -410l28 312h146v-52l-142 -260h-32z" />
    <glyph glyph-name="uni013C" unicode="&#x13c;" horiz-adv-x="534" 
d="M92 0v37l101 49v1262l-95 51v35l246 10v-1358l98 -53v-33h-350zM168 -410l29 312h145v-52l-141 -260h-33z" />
    <glyph glyph-name="Lcaron" unicode="&#x13d;" horiz-adv-x="1161" 
d="M143 0v37l111 49v1262l-111 49v37h389v-33l-106 -53v-1260h522l125 260h37l-20 -348h-947zM750 1102v332h159v-52l-127 -280h-32z" />
    <glyph glyph-name="lcaron" unicode="&#x13e;" horiz-adv-x="544" 
d="M92 0v37l101 49v1262l-95 51v35l246 10v-1358l98 -53v-33h-350zM461 1102v332h160v-52l-127 -280h-33z" />
    <glyph glyph-name="Ldot" unicode="&#x13f;" horiz-adv-x="1222" 
d="M143 0v37l111 49v1262l-111 49v37h389v-33l-106 -53v-1260h522l125 260h37l-20 -348h-947zM657 756q0 46 33 78q34 32 79 32t79 -32q33 -32 33 -78t-33 -79t-79 -33t-79 33t-33 79z" />
    <glyph glyph-name="ldot" unicode="&#x140;" horiz-adv-x="737" 
d="M92 0v37l101 49v1262l-95 51v35l246 10v-1358l98 -53v-33h-350zM455 696q0 45 32 79q31 33 78 33q46 0 79 -33t33 -79t-33 -78q-34 -32 -79 -32q-46 0 -78 32t-32 78z" />
    <glyph glyph-name="Lslash" unicode="&#x141;" horiz-adv-x="1335" 
d="M143 461v88l224 108v691l-111 49v37h389v-33l-106 -53v-607l403 197v-88l-403 -197v-565h522l125 260h37l-21 -348h-946v37l111 49v483z" />
    <glyph glyph-name="lslash" unicode="&#x142;" horiz-adv-x="716" 
d="M92 522v88l162 119v619l-94 51v35l246 10v-604l219 159v-88l-219 -159v-666l98 -53v-33h-350v37l100 49v555z" />
    <glyph glyph-name="Nacute" unicode="&#x143;" horiz-adv-x="1468" 
d="M123 0v37l110 49v1262l-104 49v37h315l697 -1100v1014l-121 49v37h326v-33l-111 -53v-1366h-76l-831 1323v-1219l121 -53v-33h-326zM555 1616l365 268h28l56 -127l-431 -178z" />
    <glyph glyph-name="nacute" unicode="&#x144;" horiz-adv-x="1187" 
d="M102 0l-1 35l101 49v811l-97 51v35l242 8l6 -127q41 71 121 114t177 43q159 0 252 -90t93 -237v-606l99 -53v-33h-351v37l101 49v600q0 116 -64 183q-65 68 -171 68q-91 0 -159 -58t-97 -150v-643l99 -53v-33h-351zM411 1163l364 269h29l55 -127l-430 -179z" />
    <glyph glyph-name="uni0145" unicode="&#x145;" horiz-adv-x="1468" 
d="M123 0v37l110 49v1262l-104 49v37h315l697 -1100v1014l-121 49v37h326v-33l-111 -53v-1366h-76l-831 1323v-1219l121 -53v-33h-326zM670 -410l28 312h146v-52l-142 -260h-32z" />
    <glyph glyph-name="uni0146" unicode="&#x146;" horiz-adv-x="1187" 
d="M102 0l-1 35l101 49v811l-97 51v35l242 8l6 -127q41 71 121 114t177 43q159 0 252 -90t93 -237v-606l99 -53v-33h-351v37l101 49v600q0 116 -64 183q-65 68 -171 68q-91 0 -159 -58t-97 -150v-643l99 -53v-33h-351zM511 -412l29 312h145v-52l-141 -260h-33z" />
    <glyph glyph-name="Ncaron" unicode="&#x147;" horiz-adv-x="1468" 
d="M123 0v37l110 49v1262l-104 49v37h315l697 -1100v1014l-121 49v37h326v-33l-111 -53v-1366h-76l-831 1323v-1219l121 -53v-33h-326zM492 1812v72l288 -170l289 170v-72l-272 -227h-33z" />
    <glyph glyph-name="ncaron" unicode="&#x148;" horiz-adv-x="1187" 
d="M102 0l-1 35l101 49v811l-97 51v35l242 8l6 -127q41 71 121 114t177 43q159 0 252 -90t93 -237v-606l99 -53v-33h-351v37l101 49v600q0 116 -64 183q-65 68 -171 68q-91 0 -159 -58t-97 -150v-643l99 -53v-33h-351zM347 1360v72l289 -170l289 170v-72l-273 -227h-32z" />
    <glyph glyph-name="napostrophe" unicode="&#x149;" horiz-adv-x="1187" 
d="M-66 958l39 414h166v-51l-151 -363h-54zM102 0l-1 35l101 49v811l-97 51v35l242 8l6 -127q41 71 121 114t177 43q159 0 252 -90t93 -237v-606l99 -53v-33h-351v37l101 49v600q0 116 -64 183q-65 68 -171 68q-91 0 -159 -58t-97 -150v-643l99 -53v-33h-351z" />
    <glyph glyph-name="Eng" unicode="&#x14a;" horiz-adv-x="1509" 
d="M143 0l-1 37l111 49v1262l-104 49v37h311l700 -1104v1018l-121 49v37h326v-33l-111 -53v-1416q0 -190 -104 -303t-281 -113v47q119 15 182 102t63 233v188l-766 1219v-1219l121 -53v-33h-326z" />
    <glyph glyph-name="eng" unicode="&#x14b;" horiz-adv-x="1089" 
d="M102 0l-2 34l101 49v811l-97 51v35l242 8l6 -127q41 71 121 114t177 43q159 0 252 -90t93 -237v-717q0 -134 -27 -234q-27 -101 -88 -163q-62 -63 -153 -63q-23 0 -42 3q-17 3 -35 8q-13 4 -25 9q-14 6 -22 10l-10 4l-5 3l2 287h37l88 -215q26 -14 51 -14q40 0 67 34
q27 35 24 93l-12 266v684q0 116 -64 183q-65 68 -171 68q-91 0 -159 -58t-97 -150v-643l99 -53v-33h-351z" />
    <glyph glyph-name="Omacron" unicode="&#x14c;" horiz-adv-x="1548" 
d="M123 717q-1 214 78 385q80 171 229 270q150 99 346 99t346 -99q149 -99 229 -270q79 -171 78 -385q2 -215 -78 -386t-229 -270q-150 -99 -346 -99t-346 99q-149 99 -229 270t-78 386zM307 717v-4q0 -116 15 -215q15 -97 50 -186q34 -87 87 -147q52 -59 132 -94
q78 -34 180 -34q99 0 180 35q79 34 132 95q53 60 87 147q35 89 50 186q15 99 15 215t-15 215q-15 97 -50 186q-34 87 -87 147q-53 61 -132 95q-81 35 -180 35q-102 0 -180 -34q-79 -34 -132 -95q-53 -60 -87 -147q-35 -89 -50 -186q-15 -99 -15 -214zM510 1690v94h520v-94
h-520z" />
    <glyph glyph-name="omacron" unicode="&#x14d;" horiz-adv-x="1161" 
d="M82 500h-1q0 218 146 369q145 150 357 150q139 0 252 -70q115 -71 179 -190q65 -121 65 -261q0 -149 -66 -272q-66 -124 -180 -194q-113 -70 -250 -70q-140 0 -258 74q-116 73 -181 197q-65 123 -63 267zM261 500v2q0 -95 17 -178q16 -80 53 -147q35 -65 101 -103
q64 -37 151 -37q82 0 146 38q63 37 99 104q36 66 54 147t18 175q0 122 -32 223q-32 99 -105 162t-180 63q-85 0 -150 -36q-64 -36 -100 -99t-54 -141t-18 -173zM318 1245v94h521v-94h-521z" />
    <glyph glyph-name="Obreve" unicode="&#x14e;" horiz-adv-x="1548" 
d="M123 717q-1 214 78 385q80 171 229 270q150 99 346 99t346 -99q149 -99 229 -270q79 -171 78 -385q2 -215 -78 -386t-229 -270q-150 -99 -346 -99t-346 99q-149 99 -229 270t-78 386zM307 717v-4q0 -116 15 -215q15 -97 50 -186q34 -87 87 -147q52 -59 132 -94
q78 -34 180 -34q99 0 180 35q79 34 132 95q53 60 87 147q35 89 50 186q15 99 15 215t-15 215q-15 97 -50 186q-34 87 -87 147q-53 61 -132 95q-81 35 -180 35q-102 0 -180 -34q-79 -34 -132 -95q-53 -60 -87 -147q-35 -89 -50 -186q-15 -99 -15 -214zM489 1880h53
q44 -186 234 -186t234 186h51q0 -122 -78 -210q-78 -89 -208 -89q-72 0 -126 25q-55 25 -90 68q-33 41 -52 95q-18 53 -18 111z" />
    <glyph glyph-name="obreve" unicode="&#x14f;" horiz-adv-x="1161" 
d="M82 500h-1q0 218 146 369q145 150 357 150q139 0 252 -70q115 -71 179 -190q65 -121 65 -261q0 -149 -66 -272q-66 -124 -180 -194q-113 -70 -250 -70q-140 0 -258 74q-116 73 -181 197q-65 123 -63 267zM261 500v2q0 -95 17 -178q16 -80 53 -147q35 -65 101 -103
q64 -37 151 -37q82 0 146 38q63 37 99 104q36 66 54 147t18 175q0 122 -32 223q-32 99 -105 162t-180 63q-85 0 -150 -36q-64 -36 -100 -99t-54 -141t-18 -173zM298 1436h51q20 -88 78 -137q59 -50 156 -50q191 0 234 187h51q0 -121 -77 -210t-207 -89q-72 0 -126 25
q-55 25 -90 68q-33 41 -52 95q-18 53 -18 111z" />
    <glyph glyph-name="Ohungarumlaut" unicode="&#x150;" horiz-adv-x="1548" 
d="M123 717q-1 214 78 385q80 171 229 270q150 99 346 99t346 -99q149 -99 229 -270q79 -171 78 -385q2 -215 -78 -386t-229 -270q-150 -99 -346 -99t-346 99q-149 99 -229 270t-78 386zM307 717v-4q0 -116 15 -215q15 -97 50 -186q34 -87 87 -147q52 -59 132 -94
q78 -34 180 -34q99 0 180 35q79 34 132 95q53 60 87 147q35 89 50 186q15 99 15 215t-15 215q-15 97 -50 186q-34 87 -87 147q-53 61 -132 95q-81 35 -180 35q-102 0 -180 -34q-79 -34 -132 -95q-53 -60 -87 -147q-35 -89 -50 -186q-15 -99 -15 -214zM539 1618l237 262h29
l76 -106l-312 -199zM807 1618l237 262h29l76 -106l-311 -199z" />
    <glyph glyph-name="ohungarumlaut" unicode="&#x151;" horiz-adv-x="1161" 
d="M82 500h-1q0 218 146 369q145 150 357 150q139 0 252 -70q115 -71 179 -190q65 -121 65 -261q0 -149 -66 -272q-66 -124 -180 -194q-113 -70 -250 -70q-140 0 -258 74q-116 73 -181 197q-65 123 -63 267zM261 500v2q0 -95 17 -178q16 -80 53 -147q35 -65 101 -103
q64 -37 151 -37q82 0 146 38q63 37 99 104q36 66 54 147t18 175q0 122 -32 223q-32 99 -105 162t-180 63q-85 0 -150 -36q-64 -36 -100 -99t-54 -141t-18 -173zM347 1173l238 263h28l76 -107l-311 -199zM615 1173l238 263h29l75 -107l-311 -199z" />
    <glyph glyph-name="OE" unicode="&#x152;" horiz-adv-x="2105" 
d="M72 717v-4q-1 214 78 385q80 171 229 270q150 99 346 99q123 0 221 -36h963l30 -330h-36l-136 246h-665q119 -90 189 -232q71 -144 83 -318l357 4v-107l-355 9q0 -198 -70 -357q-70 -160 -198 -259h735l125 260h37l-21 -348h-1038q-99 -37 -221 -37q-196 0 -346 99
q-149 99 -229 270t-78 386zM258 713l-6 -6q-1 -145 24 -265q26 -121 79 -213q54 -92 147 -145q92 -52 218 -52q99 0 180 35q79 34 132 95q52 60 87 147q34 85 49 186q15 102 14 215q2 119 -13 215q-15 101 -49 186q-34 87 -87 147q-53 61 -132 95q-81 35 -180 35
q-102 0 -180 -34t-133 -95q-53 -59 -88 -146q-34 -83 -49 -185q-15 -96 -13 -215z" />
    <glyph glyph-name="oe" unicode="&#x153;" horiz-adv-x="1906" 
d="M82 500l-3 -2q0 218 146 369q145 150 357 150q124 0 231 -59q107 -58 174 -159q68 103 175 161q109 59 235 59q146 0 247 -66t143 -174t36 -247l-746 -3q0 -225 104 -352q103 -126 275 -126q84 0 168 39q85 39 137 93l49 -51q-76 -81 -167 -126q-90 -45 -225 -45t-247 59
q-111 58 -180 168q-69 -106 -175 -166t-232 -60q-140 0 -258 74q-116 73 -181 197q-65 123 -63 267zM259 498v2q0 -95 17 -178q16 -80 53 -147q35 -65 101 -103q64 -37 151 -37q82 0 146 38q63 37 99 104q36 66 54 147t18 175q0 122 -32 223q-32 99 -105 162t-180 63
q-85 0 -150 -36q-64 -36 -100 -99t-54 -141t-18 -173zM1084 612l569 -2q-4 152 -71 246q-66 93 -200 93q-116 0 -200 -96q-85 -97 -98 -241z" />
    <glyph glyph-name="Racute" unicode="&#x154;" horiz-adv-x="1406" 
d="M143 0l-1 38l111 49v1262l-111 49v37h596q190 0 312 -114q121 -114 121 -292q0 -78 -31 -147q-32 -71 -88 -126t-144 -88q-87 -33 -191 -33q80 -23 139 -73t120 -137l192 -281q36 -52 73 -76q37 -23 106 -31v-37h-293l-301 463q-56 85 -123 125q-68 41 -157 41h-53v-537
l127 -59v-33h-404zM419 706l274 -2q74 0 134 30q61 30 95 78q35 49 53 104t18 113q0 151 -75 236q-75 86 -225 86h-274v-645zM431 1615l365 268h28l56 -127l-430 -178z" />
    <glyph glyph-name="racute" unicode="&#x155;" horiz-adv-x="819" 
d="M102 0l1 36l101 49v809l-94 53v35l243 8v-235q37 115 117 190t186 75q71 0 111 -31l-43 -168q-70 53 -141 53q-155 0 -231 -253v-527l125 -61v-33h-375zM257 1164l365 269h28l56 -127l-431 -179z" />
    <glyph glyph-name="uni0156" unicode="&#x156;" horiz-adv-x="1406" 
d="M143 0l-1 38l111 49v1262l-111 49v37h596q190 0 312 -114q121 -114 121 -292q0 -78 -31 -147q-32 -71 -88 -126t-144 -88q-87 -33 -191 -33q80 -23 139 -73t120 -137l192 -281q36 -52 73 -76q37 -23 106 -31v-37h-293l-301 463q-56 85 -123 125q-68 41 -157 41h-53v-537
l127 -59v-33h-404zM419 706l274 -2q74 0 134 30q61 30 95 78q35 49 53 104t18 113q0 151 -75 236q-75 86 -225 86h-274v-645zM683 -411l29 312h145v-52l-141 -260h-33z" />
    <glyph glyph-name="uni0157" unicode="&#x157;" horiz-adv-x="819" 
d="M102 0l1 36l101 49v809l-94 53v35l243 8v-235q37 115 117 190t186 75q71 0 111 -31l-43 -168q-70 53 -141 53q-155 0 -231 -253v-527l125 -61v-33h-375zM220 -411l29 312h145v-52l-141 -260h-33z" />
    <glyph glyph-name="Rcaron" unicode="&#x158;" horiz-adv-x="1406" 
d="M143 0l-1 38l111 49v1262l-111 49v37h596q190 0 312 -114q121 -114 121 -292q0 -78 -31 -147q-32 -71 -88 -126t-144 -88q-87 -33 -191 -33q80 -23 139 -73t120 -137l192 -281q36 -52 73 -76q37 -23 106 -31v-37h-293l-301 463q-56 85 -123 125q-68 41 -157 41h-53v-537
l127 -59v-33h-404zM368 1813v72l288 -170l289 170v-72l-272 -227h-33zM419 706l274 -2q74 0 134 30q61 30 95 78q35 49 53 104t18 113q0 151 -75 236q-75 86 -225 86h-274v-645z" />
    <glyph glyph-name="rcaron" unicode="&#x159;" horiz-adv-x="819" 
d="M102 0l1 36l101 49v809l-94 53v35l243 8v-235q37 115 117 190t186 75q71 0 111 -31l-43 -168q-70 53 -141 53q-155 0 -231 -253v-527l125 -61v-33h-375zM194 1361v72l288 -170l289 170v-72l-272 -227h-33z" />
    <glyph glyph-name="Sacute" unicode="&#x15a;" horiz-adv-x="1122" 
d="M92 37l1 339h37l105 -238q121 -102 267 -102t237 78t91 217q0 60 -19 108q-20 52 -49 86q-32 38 -79 71q-53 37 -97 59q-57 29 -115 53q-73 32 -129 66q-54 34 -103 81q-47 46 -73 108q-25 60 -25 138q0 163 123 263q124 101 309 101q162 0 333 -61l-6 -328h-37l-104 242
q-99 72 -217 72q-110 0 -180 -66t-70 -171q0 -47 12 -83t33 -63t63 -54t84 -48q32 -16 116 -52q210 -95 305 -202q96 -108 96 -271q0 -185 -133 -302q-134 -117 -363 -117q-91 0 -172 13q-83 13 -130 27q-47 13 -111 36zM345 1609l365 268h28l56 -127l-430 -178z" />
    <glyph glyph-name="sacute" unicode="&#x15b;" horiz-adv-x="940" 
d="M102 43l6 282h35l88 -213q82 -82 205 -82q109 0 177 53q67 52 67 129q0 86 -54 132q-53 46 -201 94q-295 97 -295 294q0 134 102 211q101 76 270 76q142 0 282 -49v-283h-36l-91 219q-86 47 -176 47q-83 0 -141 -42t-58 -124q0 -73 63 -122q63 -50 205 -93
q146 -44 215 -108t72 -180q0 -147 -109 -234q-110 -87 -306 -87q-149 0 -320 80zM268 1164l365 269h28l56 -127l-430 -179z" />
    <glyph glyph-name="Scircumflex" unicode="&#x15c;" horiz-adv-x="1122" 
d="M92 37l1 339h37l105 -238q121 -102 267 -102t237 78t91 217q0 60 -19 108q-20 52 -49 86q-32 38 -79 71q-53 37 -97 59q-57 29 -115 53q-73 32 -129 66q-54 34 -103 81q-47 46 -73 108q-25 60 -25 138q0 163 123 263q124 101 309 101q162 0 333 -61l-6 -328h-37l-104 242
q-99 72 -217 72q-110 0 -180 -66t-70 -171q0 -47 12 -83t33 -63t63 -54t84 -48q32 -16 116 -52q210 -95 305 -202q96 -108 96 -271q0 -185 -133 -302q-134 -117 -363 -117q-91 0 -172 13q-83 13 -130 27q-47 13 -111 36zM278 1578v72l272 227h33l272 -227v-72l-289 170z" />
    <glyph glyph-name="scircumflex" unicode="&#x15d;" horiz-adv-x="940" 
d="M102 43l6 282h35l88 -213q82 -82 205 -82q109 0 177 53q67 52 67 129q0 86 -54 132q-53 46 -201 94q-295 97 -295 294q0 134 102 211q101 76 270 76q142 0 282 -49v-283h-36l-91 219q-86 47 -176 47q-83 0 -141 -42t-58 -124q0 -73 63 -122q63 -50 205 -93
q146 -44 215 -108t72 -180q0 -147 -109 -234q-110 -87 -306 -87q-149 0 -320 80zM201 1134v71l272 228h33l272 -228v-71l-289 170z" />
    <glyph glyph-name="Scedilla" unicode="&#x15e;" horiz-adv-x="1122" 
d="M92 37l-3 343h37l105 -238q121 -102 267 -102t237 78t91 217q0 60 -19 108q-20 52 -49 86q-32 38 -79 71q-53 37 -97 59q-57 29 -115 53q-73 32 -129 66q-54 34 -103 81q-47 46 -73 108q-25 60 -25 138q0 163 123 263q124 101 309 101q162 0 333 -61l-6 -328h-37
l-104 242q-99 72 -217 72q-110 0 -180 -66t-70 -171q0 -47 12 -83t33 -63t63 -54t84 -48q32 -16 116 -52q210 -95 305 -202q96 -108 96 -271q0 -182 -130 -299q-131 -117 -354 -120l-41 -67q18 6 47 6q73 0 129 -48q55 -48 55 -121q0 -77 -57 -123q-58 -47 -148 -47
q-62 0 -109 25q-49 26 -77 67l39 31q54 -72 140 -72q62 0 92 33t30 80q0 51 -34 84q-35 33 -94 33q-36 0 -73 -20l-39 43l51 96q-160 11 -332 72z" />
    <glyph glyph-name="scedilla" unicode="&#x15f;" horiz-adv-x="940" 
d="M102 43l7 285h35l88 -213q82 -82 205 -82q109 0 177 53q67 52 67 129q0 85 -54 132q-53 46 -201 94q-295 97 -295 294q0 135 102 211q101 76 270 76q142 0 282 -49v-283h-36l-91 219q-86 47 -176 47q-82 0 -141 -42q-58 -42 -58 -124q0 -72 63 -122t205 -93
q146 -44 215 -108q69 -65 72 -180q0 -141 -102 -228q-101 -86 -286 -94l-41 -67q18 6 47 6q74 0 128 -48t54 -121q0 -77 -57 -123q-58 -47 -148 -47q-62 0 -109 25q-49 26 -77 67l39 31q54 -72 139 -72q62 0 92 33t30 80q0 51 -34 84q-35 33 -94 33q-37 0 -74 -20l-39 43
l51 98q-129 15 -255 76z" />
    <glyph glyph-name="Scaron" unicode="&#x160;" horiz-adv-x="1122" 
d="M92 37l1 339h37l105 -238q121 -102 267 -102t237 78t91 217q0 60 -19 108q-20 52 -49 86q-32 38 -79 71q-53 37 -97 59q-57 29 -115 53q-73 32 -129 66q-54 34 -103 81q-47 46 -73 108q-25 60 -25 138q0 163 123 263q124 101 309 101q162 0 333 -61l-6 -328h-37l-104 242
q-99 72 -217 72q-110 0 -180 -66t-70 -171q0 -47 12 -83t33 -63t63 -54t84 -48q32 -16 116 -52q210 -95 305 -202q96 -108 96 -271q0 -185 -133 -302q-134 -117 -363 -117q-91 0 -172 13q-83 13 -130 27q-47 13 -111 36zM282 1805v72l288 -170l289 170v-72l-272 -227h-33z
" />
    <glyph glyph-name="scaron" unicode="&#x161;" horiz-adv-x="940" 
d="M102 43l6 282h35l88 -213q82 -82 205 -82q109 0 177 53q67 52 67 129q0 86 -54 132q-53 46 -201 94q-295 97 -295 294q0 134 102 211q101 76 270 76q142 0 282 -49v-283h-36l-91 219q-86 47 -176 47q-83 0 -141 -42t-58 -124q0 -73 63 -122q63 -50 205 -93
q146 -44 215 -108t72 -180q0 -147 -109 -234q-110 -87 -306 -87q-149 0 -320 80zM205 1361v72l289 -170l288 170v-72l-272 -227h-33z" />
    <glyph glyph-name="uni0162" unicode="&#x162;" horiz-adv-x="1359" 
d="M113 1102v334h1134l-2 -332h-37l-116 250h-326v-1266l127 -53v-33h-199l-63 -104q18 6 47 6q74 0 128 -48t54 -121q0 -77 -57 -123q-58 -47 -148 -47q-62 0 -109 25q-49 26 -77 67l39 31q54 -72 139 -72q62 0 92 33t30 80q0 51 -34 84q-35 33 -94 33q-37 0 -74 -20
l-39 43l68 131h-133v37l131 49l-2 1266h-324l-118 -250h-37z" />
    <glyph glyph-name="uni0163" unicode="&#x163;" horiz-adv-x="681" 
d="M82 891v66l141 27v268l142 29v-297h196v-92h-194v-711q0 -51 26 -85q25 -33 68 -33q55 0 102 31l37 -63q-73 -66 -176 -66h-14l-41 -67q18 6 47 6q74 0 128 -48t54 -121q0 -77 -57 -123q-58 -47 -148 -47q-62 0 -109 25q-49 26 -77 67l39 31q54 -72 139 -72q62 0 92 33
t30 80q0 51 -34 84q-35 33 -94 33q-37 0 -74 -20l-39 43l60 113q-111 48 -111 217v692h-133z" />
    <glyph glyph-name="Tcaron" unicode="&#x164;" horiz-adv-x="1359" 
d="M113 1102v332h1134l-2 -332h-37l-116 250h-326v-1266l127 -53v-33h-430v37l131 49l-2 1266h-324l-118 -250h-37zM393 1812v72l289 -170l289 170v-72l-273 -227h-32z" />
    <glyph glyph-name="tcaron" unicode="&#x165;" horiz-adv-x="681" 
d="M82 891v64l141 27v268l142 29v-297h196v-92h-194v-711q0 -51 26 -85q25 -33 68 -33q55 0 102 31l37 -63q-73 -66 -176 -66q-209 0 -209 236v692h-133zM473 1084v332h160v-51l-127 -281h-33z" />
    <glyph glyph-name="Tbar" unicode="&#x166;" horiz-adv-x="1359" 
d="M113 1102v332h1134l-2 -332h-37l-116 250h-326v-570h272v-88h-272v-608l127 -53v-33h-430v37l131 49v608h-272v88h270v570h-324l-118 -250h-37z" />
    <glyph glyph-name="tbar" unicode="&#x167;" horiz-adv-x="661" 
d="M80 608v77h135v205h-133v65l141 27v268l142 29v-297h196v-92h-194v-205h157v-78h-157v-428q0 -51 26 -85q25 -33 68 -33q55 0 102 31l37 -63q-73 -66 -176 -66q-209 0 -209 236v409h-135z" />
    <glyph glyph-name="Utilde" unicode="&#x168;" horiz-adv-x="1495" 
d="M123 1397l-1 36h389v-33l-106 -53v-908q0 -185 90 -288q90 -104 267 -104q191 0 297 104q105 103 105 288v908l-110 49v37h317v-33l-106 -53v-893q0 -233 -138 -362t-371 -129q-244 0 -384 126q-139 126 -139 366v893zM499 1705h-1q88 141 189 141q47 0 117 -27
q71 -27 107 -27q39 0 65 12q27 12 59 42l31 -24q-44 -73 -82 -105q-39 -33 -100 -33q-49 0 -118 29t-106 29q-68 0 -135 -72z" />
    <glyph glyph-name="utilde" unicode="&#x169;" horiz-adv-x="1200" 
d="M102 946v37l246 8v-694q0 -117 67 -184t183 -67q151 0 261 143v707l-94 51v37l246 8v-915l96 -35v-35l-238 -8v108q-122 -143 -312 -143q-168 0 -264 90t-96 237v604zM317 1255q90 142 191 142q46 0 117 -27t107 -27q40 0 65 12q27 12 59 42l31 -25q-44 -73 -82 -105
q-39 -33 -100 -33q-50 0 -119 29t-107 29q-67 0 -135 -71z" />
    <glyph glyph-name="Umacron" unicode="&#x16a;" horiz-adv-x="1495" 
d="M123 1397l-1 36h389v-33l-106 -53v-908q0 -185 90 -288q90 -104 267 -104q191 0 297 104q105 103 105 288v908l-110 49v37h317v-33l-106 -53v-893q0 -233 -138 -362t-371 -129q-244 0 -384 126q-139 126 -139 366v893zM515 1693v94h520v-94h-520z" />
    <glyph glyph-name="umacron" unicode="&#x16b;" horiz-adv-x="1200" 
d="M102 946v37l246 8v-694q0 -117 67 -184t183 -67q151 0 261 143v707l-94 51v37l246 8v-915l96 -35v-35l-238 -8v108q-122 -143 -312 -143q-168 0 -264 90t-96 237v604zM334 1243v94h520v-94h-520z" />
    <glyph glyph-name="Ubreve" unicode="&#x16c;" horiz-adv-x="1495" 
d="M123 1397l-1 36h389v-33l-106 -53v-908q0 -185 90 -288q90 -104 267 -104q191 0 297 104q105 103 105 288v908l-110 49v37h317v-33l-106 -53v-893q0 -233 -138 -362t-371 -129q-244 0 -384 126q-139 126 -139 366v893zM495 1883h51q44 -186 234 -186t234 186h51
q0 -121 -78 -210t-208 -89q-91 0 -158 44q-66 43 -96 110q-30 66 -30 145z" />
    <glyph glyph-name="ubreve" unicode="&#x16d;" horiz-adv-x="1200" 
d="M102 946v37l246 8v-694q0 -117 67 -184t183 -67q151 0 261 143v707l-94 51v37l246 8v-915l96 -35v-35l-238 -8v108q-122 -143 -312 -143q-168 0 -264 90t-96 237v604zM313 1434h54q20 -87 77 -137q58 -50 155 -50q191 0 234 187h52q0 -122 -78 -210q-78 -89 -208 -89
q-72 0 -126 25q-55 25 -90 68q-33 41 -52 95q-18 53 -18 111z" />
    <glyph glyph-name="Uring" unicode="&#x16e;" horiz-adv-x="1495" 
d="M123 1397l-1 36h389v-33l-106 -53v-908q0 -185 90 -288q90 -104 267 -104q191 0 297 104q105 103 105 288v908l-110 49v37h317v-33l-106 -53v-893q0 -233 -138 -362t-371 -129q-244 0 -384 126q-139 126 -139 366v893zM603 1748l-1 -2q0 76 51 125q52 50 126 50
q77 0 126 -49q50 -50 50 -126q0 -74 -51 -124q-50 -49 -126 -49q-77 0 -126 49t-49 126zM670 1746q0 -50 30 -81q30 -32 77 -32q46 0 78 32q31 31 31 81t-31 81q-32 32 -78 32q-47 0 -77 -32q-30 -31 -30 -81z" />
    <glyph glyph-name="uring" unicode="&#x16f;" horiz-adv-x="1200" 
d="M102 946v37l246 8v-694q0 -117 67 -184t183 -67q151 0 261 143v707l-94 51v37l246 8v-915l96 -35v-35l-238 -8v108q-122 -143 -312 -143q-168 0 -264 90t-96 237v604zM422 1298l-1 -2q0 76 51 125q52 50 126 50q77 0 126 -49q50 -50 50 -126q0 -74 -51 -124
q-50 -49 -126 -49q-77 0 -126 49t-49 126zM488 1296v-1q0 -50 31 -81t78 -31q46 0 78 32q31 31 31 81t-31 81q-32 32 -78 32t-78 -32q-31 -31 -31 -81z" />
    <glyph glyph-name="Uhungarumlaut" unicode="&#x170;" horiz-adv-x="1495" 
d="M123 1397l-1 36h389v-33l-106 -53v-908q0 -185 90 -288q90 -104 267 -104q191 0 297 104q105 103 105 288v908l-110 49v37h317v-33l-106 -53v-893q0 -233 -138 -362t-371 -129q-244 0 -384 126q-139 126 -139 366v893zM544 1621l237 262h29l76 -106l-312 -199zM812 1621
l238 262h28l76 -106l-311 -199z" />
    <glyph glyph-name="uhungarumlaut" unicode="&#x171;" horiz-adv-x="1200" 
d="M102 946v37l246 8v-694q0 -117 67 -184t183 -67q151 0 261 143v707l-94 51v37l246 8v-915l96 -35v-35l-238 -8v108q-122 -143 -312 -143q-168 0 -264 90t-96 237v604zM362 1171l238 263h29l76 -107l-312 -199zM631 1171l237 263h29l76 -107l-311 -199z" />
    <glyph glyph-name="Uogonek" unicode="&#x172;" horiz-adv-x="1495" 
d="M123 1397l-2 34h389v-33l-106 -53v-908q0 -185 90 -288q90 -104 267 -104q191 0 297 104q105 103 105 288v908l-110 49v37h317v-33l-106 -53v-893q0 -194 -99 -319q-99 -124 -273 -160q-123 -155 -123 -254q0 -47 29 -73q28 -25 72 -25q38 0 84 12l17 -51
q-53 -22 -123 -22q-96 0 -159 36t-63 114q0 62 45 123q46 63 127 132q-18 -2 -42 -2q-244 0 -384 126q-139 126 -139 366v893z" />
    <glyph glyph-name="uogonek" unicode="&#x173;" horiz-adv-x="1200" 
d="M102 946v36l246 8v-694q0 -117 67 -184t183 -67q151 0 261 143v707l-94 51v37l246 8v-915l96 -35v-35l-55 -2q-64 -74 -105 -152q-41 -77 -41 -131q0 -47 29 -73q28 -25 72 -25q37 0 84 12l16 -51q-53 -22 -123 -22q-96 0 -159 36t-63 114q0 70 57 139t161 152l-111 -4
v108q-122 -143 -312 -143q-168 0 -264 90t-96 237v604z" />
    <glyph glyph-name="Wcircumflex" unicode="&#x174;" horiz-adv-x="1961" 
d="M61 1397v37h398v-33l-129 -53l319 -1043l273 795l-82 248l-95 49v37h381v-33l-106 -53l321 -1067l353 1067l-135 53v33h342v-37l-97 -49l-471 -1364h-63l-309 977l-330 -977l-51 2l-430 1362zM664 1585v72l272 227h33l272 -227v-72l-289 170z" />
    <glyph glyph-name="wcircumflex" unicode="&#x175;" horiz-adv-x="1568" 
d="M31 946v37h364v-33l-102 -53l229 -645l266 731h62v2l260 -741l240 653l-119 53v33h307v-37l-98 -49l-332 -903h-72l-254 719l-262 -719h-67l-322 903zM528 1135v71l273 228h33l272 -228v-71l-289 170z" />
    <glyph glyph-name="Ycircumflex" unicode="&#x176;" horiz-adv-x="1359" 
d="M61 1397v37h402v-33l-121 -53l391 -648l367 648l-150 53v33h348v-37l-84 -49l-446 -740v-522l117 -53v-33h-400v37l111 49v516l-446 746zM426 1585v72l272 227h33l273 -227v-72l-289 170z" />
    <glyph glyph-name="ycircumflex" unicode="&#x177;" horiz-adv-x="1130" 
d="M31 946v37h385v-33l-103 -53l285 -676l305 676l-119 53v33h316v-37l-99 -49l-571 -1251l143 -64v-33h-407v37l160 60l182 389l-377 862zM293 1135v71l272 228h33l272 -228v-71l-288 170z" />
    <glyph glyph-name="Ydieresis" unicode="&#x178;" horiz-adv-x="1359" 
d="M61 1397v37h402v-33l-121 -53l391 -648l367 648l-150 53v33h348v-37l-84 -49l-446 -740v-522l117 -53v-33h-400v37l111 49v516l-446 746zM449 1745l-1 -1q0 44 30 74t74 30q41 0 71 -30t30 -73t-30 -75q-30 -31 -71 -31q-43 0 -73 31q-30 32 -30 75zM777 1744v-1
q0 44 31 74q32 30 75 30q41 0 71 -30t30 -73q0 -44 -30 -75t-71 -31q-44 0 -75 31t-31 75z" />
    <glyph glyph-name="Zacute" unicode="&#x179;" horiz-adv-x="1261" 
d="M92 0v72l850 1280h-608l-129 -250h-37v332h960v-101l-823 -1249l660 2l137 266h37v-352h-1047zM432 1616l365 268h28l56 -127l-430 -178z" />
    <glyph glyph-name="zacute" unicode="&#x17a;" horiz-adv-x="1013" 
d="M82 0v76l623 831h-418l-127 -178h-33v254h741v-98l-612 -809h469l109 178h36v-254h-788zM274 1165l365 269h29l55 -127l-430 -179z" />
    <glyph glyph-name="Zdotaccent" unicode="&#x17b;" horiz-adv-x="1261" 
d="M92 0v72l850 1280h-608l-129 -250h-37v332h960v-101l-823 -1249l660 2l137 266h37v-352h-1047zM549 1753v-1q0 43 32 77q31 33 75 33t75 -33q32 -34 32 -76q0 -43 -32 -75t-75 -32t-75 32t-32 75z" />
    <glyph glyph-name="zdotaccent" unicode="&#x17c;" horiz-adv-x="1013" 
d="M82 0v76l623 831h-418l-127 -178h-33v254h741v-98l-612 -809h469l109 178h36v-254h-788zM391 1303l-2 -1q0 44 33 75q34 32 77 32t75 -32t32 -75q0 -44 -31 -76q-31 -33 -75 -33q-43 0 -76 33t-33 77z" />
    <glyph glyph-name="Zcaron" unicode="&#x17d;" horiz-adv-x="1261" 
d="M92 0v72l850 1280h-608l-129 -250h-37v332h960v-101l-823 -1249l660 2l137 266h37v-352h-1047zM369 1812v72l288 -170l289 170v-72l-272 -227h-33z" />
    <glyph glyph-name="zcaron" unicode="&#x17e;" horiz-adv-x="1013" 
d="M82 0v76l623 831h-418l-127 -178h-33v254h741v-98l-612 -809h469l109 178h36v-254h-788zM211 1362v72l289 -170l288 170v-72l-272 -227h-33z" />
    <glyph glyph-name="uni01CD" unicode="&#x1cd;" horiz-adv-x="1449" 
d="M61 0v33l121 53l445 1178l-70 170h174l561 -1348l97 -53v-33h-418v33l131 53l-146 360h-536l-129 -360l143 -53v-33h-373zM397 1812v72l289 -170l289 170v-72l-273 -227h-32zM453 535h467l-248 612z" />
    <glyph glyph-name="uni01CE" unicode="&#x1ce;" horiz-adv-x="1062" 
d="M92 252l-1 -4q0 90 54 163t146 120q93 47 204 71q113 24 234 24q0 139 -70 215q-71 77 -195 77q-88 0 -157 -42t-112 -112l-68 45q114 209 354 209q187 0 294 -111q107 -112 107 -308v-514l98 -53v-33h-233l-11 141q-38 -73 -117 -125q-80 -53 -196 -53q-156 0 -244 77
q-87 77 -87 213zM230 1358v72l289 -170l289 170v-72l-272 -227h-33zM255 254l-1 -3q0 -99 55 -155q55 -57 148 -57q110 0 191 90t81 204v225q-113 -9 -192 -28q-82 -19 -148 -54q-65 -34 -100 -90q-34 -55 -34 -132z" />
    <glyph glyph-name="uni01CF" unicode="&#x1cf;" horiz-adv-x="675" 
d="M51 1812v72l289 -170l289 170v-72l-273 -227h-32zM143 0v37l111 49v1262l-111 49v37h389v-33l-106 -53v-1262l106 -53v-33h-389z" />
    <glyph glyph-name="uni01D0" unicode="&#x1d0;" horiz-adv-x="544" 
d="M-6 1362v72l289 -170l288 170v-72l-272 -227h-33zM102 0v37l101 49v809l-94 51v35l245 10v-905l99 -53v-33h-351z" />
    <glyph glyph-name="uni01D2" unicode="&#x1d2;" horiz-adv-x="1161" 
d="M82 500h-1q0 218 146 369q145 150 357 150q139 0 252 -70q115 -71 179 -190q65 -121 65 -261q0 -149 -66 -272q-66 -124 -180 -194q-113 -70 -250 -70q-140 0 -258 74q-116 73 -181 197q-65 123 -63 267zM261 500v2q0 -95 17 -178q16 -80 53 -147q35 -65 101 -103
q64 -37 151 -37q82 0 146 38q63 37 99 104q36 66 54 147t18 175q0 122 -32 223q-32 99 -105 162t-180 63q-85 0 -150 -36q-64 -36 -100 -99t-54 -141t-18 -173zM294 1364v72l289 -170l288 170v-72l-272 -227h-33z" />
    <glyph glyph-name="Gcaron" unicode="&#x1e6;" horiz-adv-x="1542" 
d="M123 717v3q0 172 57 315t156 237t234 147q136 53 290 53q219 0 432 -61l-6 -328h-37l-125 236q-131 74 -282 74q-167 0 -289 -89q-121 -88 -181 -239q-60 -150 -60 -345q0 -112 18 -211q18 -98 57 -184q39 -84 98 -147q58 -61 143 -96q83 -34 188 -34q92 0 182 30t153 78
v465l-211 59v37h490v-33l-107 -53v-535q-205 -133 -516 -133q-211 0 -368 95t-236 264q-80 171 -80 395zM547 1815v72l289 -170l288 170v-72l-272 -227h-33z" />
    <glyph glyph-name="gcaron" unicode="&#x1e7;" horiz-adv-x="1187" 
d="M102 176l-3 3q0 78 48 138t123 99q-96 99 -96 247q0 113 55 196q56 85 144 125q90 41 195 41q117 0 211 -49l287 49h16v-119h-211q93 -96 93 -242q0 -113 -55 -195q-55 -83 -144 -123q-90 -41 -195 -41q-135 0 -239 66q-52 -24 -88 -66t-36 -91q0 -60 53 -84
q52 -24 168 -24h313q157 0 240 -54t83 -185q0 -103 -69 -184t-178 -123t-240 -42q-178 0 -277 63t-99 184q0 65 30 126l156 33l4 -14q-43 -76 -43 -146q0 -79 63 -133t187 -54q81 0 158 30q76 30 129 92t53 138q0 56 -43 86t-126 30h-354q-160 0 -237 59q-76 58 -76 164z
M304 1365v72l289 -170l289 170v-72l-273 -227h-32zM337 662q0 -131 60 -215t172 -84t172 84t60 215t-60 215t-172 84t-172 -84t-60 -215z" />
    <glyph glyph-name="uni0218" unicode="&#x218;" horiz-adv-x="1122" 
d="M92 37l1 339h37l105 -238q121 -102 267 -102t237 78t91 217q0 60 -19 108q-20 52 -49 86q-32 38 -79 71q-53 37 -97 59q-57 29 -115 53q-73 32 -129 66q-54 34 -103 81q-47 46 -73 108q-25 60 -25 138q0 163 123 263q124 101 309 101q162 0 333 -61l-6 -328h-37l-104 242
q-99 72 -217 72q-110 0 -180 -66t-70 -171q0 -47 12 -83t33 -63t63 -54t84 -48q32 -16 116 -52q210 -95 305 -202q96 -108 96 -271q0 -185 -133 -302q-134 -117 -363 -117q-91 0 -172 13q-83 13 -130 27q-47 13 -111 36zM435 -417l29 312h145v-52l-141 -260h-33z" />
    <glyph glyph-name="uni0219" unicode="&#x219;" horiz-adv-x="940" 
d="M102 43l6 282h35l88 -213q82 -82 205 -82q109 0 177 53q67 52 67 129q0 86 -54 132q-53 46 -201 94q-295 97 -295 294q0 134 102 211q101 76 270 76q142 0 282 -49v-283h-36l-91 219q-86 47 -176 47q-83 0 -141 -42t-58 -124q0 -73 63 -122q63 -50 205 -93
q146 -44 215 -108t72 -180q0 -147 -109 -234q-110 -87 -306 -87q-149 0 -320 80zM373 -411l28 312h146v-52l-142 -260h-32z" />
    <glyph glyph-name="uni021A" unicode="&#x21a;" horiz-adv-x="1359" 
d="M113 1102v332h1134l-2 -332h-37l-116 250h-326v-1266l127 -53v-33h-430v37l131 49l-2 1266h-324l-118 -250h-37zM592 -410l29 312h145v-52l-141 -260h-33z" />
    <glyph glyph-name="uni021B" unicode="&#x21b;" horiz-adv-x="681" 
d="M82 891v64l141 27v268l142 29v-297h196v-92h-194v-711q0 -51 26 -85q25 -33 68 -33q55 0 102 31l37 -63q-73 -66 -176 -66q-209 0 -209 236v692h-133zM330 -411l28 312h146v-52l-142 -260h-32z" />
    <glyph glyph-name="uni0237" unicode="&#x237;" horiz-adv-x="583" 
d="M0 -449l1 286h37l88 -215q26 -14 51 -14q40 0 67 34t24 93l-14 266l-2 893l-115 51v35l271 10v-1016q0 -100 -16 -180q-16 -82 -48 -145t-84 -99q-53 -36 -121 -36q-23 0 -42 3q-17 3 -35 8q-13 4 -25 9q-14 6 -22 10l-10 4z" />
    <glyph glyph-name="circumflex" unicode="&#x2c6;" horiz-adv-x="782" 
d="M102 1171v72l273 227h33l272 -227v-72l-289 170z" />
    <glyph glyph-name="caron" unicode="&#x2c7;" horiz-adv-x="782" 
d="M102 1399v71l289 -170l289 170v-71l-272 -228h-33z" />
    <glyph glyph-name="breve" unicode="&#x2d8;" horiz-adv-x="774" 
d="M102 1470h53q43 -186 234 -186t234 186h51q0 -122 -78 -210q-78 -89 -208 -89q-72 0 -126 25q-55 25 -90 68q-33 41 -52 95q-18 53 -18 111z" />
    <glyph glyph-name="dotaccent" unicode="&#x2d9;" horiz-adv-x="419" 
d="M102 1339l-2 -1q0 44 33 77t77 33t75 -33q32 -34 32 -76q0 -44 -31 -75q-32 -32 -75 -32q-42 0 -76 32q-33 32 -33 75z" />
    <glyph glyph-name="ring" unicode="&#x2da;" horiz-adv-x="557" 
d="M76 1335l-1 -2q0 75 51 125q52 50 126 50q77 0 126 -49q50 -50 50 -126q0 -75 -51 -124q-50 -49 -126 -49q-77 0 -126 49t-49 126zM142 1333v-1q0 -50 31 -81t78 -31t77 32t30 81t-30 81t-77 32q-46 0 -78 -32q-31 -31 -31 -81z" />
    <glyph glyph-name="ogonek" unicode="&#x2db;" horiz-adv-x="548" 
d="M102 -289l-2 1q0 70 60 141q61 72 169 156h67q-67 -77 -108 -154q-42 -78 -42 -134q0 -47 29 -73q28 -25 72 -25q37 0 84 12l16 -51q-53 -22 -122 -22q-59 0 -109 14q-48 14 -81 48t-33 87z" />
    <glyph glyph-name="tilde" unicode="&#x2dc;" horiz-adv-x="774" 
d="M102 1292h-2q90 142 191 142q47 0 117 -27q71 -27 107 -27q39 0 65 12q27 12 59 42l31 -25q-45 -72 -82 -104q-39 -33 -100 -33q-49 0 -118 29t-106 29q-41 0 -72 -19q-32 -19 -63 -54z" />
    <glyph glyph-name="hungarumlaut" unicode="&#x2dd;" horiz-adv-x="815" 
d="M102 1208l238 262h29l75 -106l-311 -199zM371 1208l237 262h29l76 -106l-312 -199z" />
    <glyph glyph-name="gravecomb" unicode="&#x300;" 
d="M-551 1343l55 127h29l365 -268l-19 -37z" />
    <glyph glyph-name="acutecomb" unicode="&#x301;" 
d="M-551 1202l365 268h28l56 -127l-430 -178z" />
    <glyph glyph-name="uni0302" unicode="&#x302;" 
d="M-680 1171v72l272 227h33l273 -227v-72l-289 170z" />
    <glyph glyph-name="tildecomb" unicode="&#x303;" 
d="M-672 1292h-2q90 142 191 142q47 0 117 -27q71 -27 107 -27q39 0 65 12q27 12 59 42l31 -25q-45 -72 -82 -104q-39 -33 -100 -33q-49 0 -118 29t-106 29q-41 0 -72 -19q-32 -19 -63 -54z" />
    <glyph glyph-name="uni0304" unicode="&#x304;" 
d="M-623 1280v94h521v-94h-521z" />
    <glyph glyph-name="uni0306" unicode="&#x306;" 
d="M-672 1470l52 -1q20 -85 78 -135q59 -50 156 -50q190 0 234 186h52q0 -122 -78 -210q-78 -89 -208 -89q-72 0 -126 25q-55 25 -90 68q-33 41 -52 95q-18 53 -18 111z" />
    <glyph glyph-name="uni0307" unicode="&#x307;" 
d="M-317 1339v-1q0 43 32 77q31 33 75 33t75 -33q32 -34 32 -76q0 -43 -32 -75t-75 -32t-75 32t-32 75z" />
    <glyph glyph-name="uni0308" unicode="&#x308;" 
d="M-639 1331l-1 -1q0 44 30 75t74 31q41 0 72 -31t31 -75q0 -43 -31 -73q-32 -30 -72 -30q-43 0 -73 30t-30 74zM-310 1330l-1 -1q0 43 30 75q30 31 74 31q41 0 72 -31t31 -75q0 -43 -31 -73t-72 -30q-43 0 -73 30t-30 74z" />
    <glyph glyph-name="uni030A" unicode="&#x30a;" 
d="M-455 1335l-1 -2q0 75 51 125q52 50 126 50q77 0 126 -49q50 -50 50 -126q0 -75 -51 -124q-50 -49 -126 -49q-77 0 -126 49t-49 126zM-388 1333v-1q0 -50 30 -81t77 -31q46 0 78 32q31 31 31 81t-31 81q-32 32 -78 32q-47 0 -77 -32t-30 -81z" />
    <glyph glyph-name="uni030B" unicode="&#x30b;" 
d="M-713 1208l238 262h29l75 -106l-311 -199zM-444 1208l237 262h29l76 -106l-312 -199z" />
    <glyph glyph-name="uni030C" unicode="&#x30c;" 
d="M-680 1399v71l289 -170l289 170v-71l-273 -228h-33z" />
    <glyph glyph-name="uni0312" unicode="&#x312;" 
d="M-276 1143v51l141 260h33l-29 -311h-145z" />
    <glyph glyph-name="uni0326" unicode="&#x326;" 
d="M-276 -410l28 312h146v-52l-142 -260h-32z" />
    <glyph glyph-name="uni0327" unicode="&#x327;" 
d="M-494 -344l36 33q54 -72 140 -72q62 0 92 33t30 80q0 51 -34 84t-94 33q-36 0 -73 -20l-39 43l76 145h98l-72 -118q18 6 47 6q73 0 129 -48q55 -48 55 -121q0 -76 -57 -123q-58 -47 -148 -47q-62 0 -109 25q-49 26 -77 67z" />
    <glyph glyph-name="uni0328" unicode="&#x328;" 
d="M-446 -289h-2q0 71 60 141t168 156h67q-67 -77 -108 -154q-42 -78 -42 -134q0 -47 29 -73q28 -25 72 -25q38 0 84 12l17 -51q-53 -22 -123 -22q-96 0 -159 36t-63 114z" />
    <glyph glyph-name="Wgrave" unicode="&#x1e80;" horiz-adv-x="1961" 
d="M61 1397v37h398v-33l-129 -53l319 -1043l273 795l-82 248l-95 49v37h381v-33l-106 -53l321 -1067l353 1067l-135 53v33h342v-37l-97 -49l-471 -1364h-63l-309 977l-330 -977l-51 2l-430 1362zM725 1757l55 127h29l365 -268l-19 -37z" />
    <glyph glyph-name="wgrave" unicode="&#x1e81;" horiz-adv-x="1568" 
d="M31 946v37h364v-33l-102 -53l229 -645l266 731h62v2l260 -741l240 653l-119 53v33h307v-37l-98 -49l-332 -903h-72l-254 719l-262 -719h-67l-322 903zM590 1307l55 127h29l364 -269l-18 -37z" />
    <glyph glyph-name="Wacute" unicode="&#x1e82;" horiz-adv-x="1961" 
d="M61 1397v37h398v-33l-129 -53l319 -1043l273 795l-82 248l-95 49v37h381v-33l-106 -53l321 -1067l353 1067l-135 53v33h342v-37l-97 -49l-471 -1364h-63l-309 977l-330 -977l-51 2l-430 1362zM731 1616l365 268h28l56 -127l-430 -178z" />
    <glyph glyph-name="wacute" unicode="&#x1e83;" horiz-adv-x="1568" 
d="M31 946v37h364v-33l-102 -53l229 -645l266 731h62v2l260 -741l240 653l-119 53v33h307v-37l-98 -49l-332 -903h-72l-254 719l-262 -719h-67l-322 903zM596 1165l365 269h28l55 -127l-430 -179z" />
    <glyph glyph-name="Wdieresis" unicode="&#x1e84;" horiz-adv-x="1961" 
d="M61 1397v37h398v-33l-129 -53l319 -1043l273 795l-82 248l-95 49v37h381v-33l-106 -53l321 -1067l353 1067l-135 53v33h342v-37l-97 -49l-471 -1364h-63l-309 977l-330 -977l-51 2l-430 1362zM686 1745v-1q0 44 31 74t75 30q41 0 71 -30t30 -73t-30 -75q-30 -31 -71 -31
q-44 0 -75 31t-31 75zM1016 1744v-1q0 44 30 74t74 30q42 0 72 -30t30 -73q0 -44 -31 -75t-72 -31q-43 0 -73 31t-30 75z" />
    <glyph glyph-name="wdieresis" unicode="&#x1e85;" horiz-adv-x="1568" 
d="M31 946v37h364v-33l-102 -53l229 -645l266 731h62v2l260 -741l240 653l-119 53v33h307v-37l-98 -49l-332 -903h-72l-254 719l-262 -719h-67l-322 903zM551 1294h-1q0 44 30 75t74 31q41 0 72 -31t31 -75q0 -42 -31 -73t-72 -31q-43 0 -73 30t-30 74zM880 1294l-1 -1
q0 43 30 75q30 31 74 31q41 0 71 -31q30 -32 30 -75t-30 -73t-71 -30q-43 0 -73 30t-30 74z" />
    <glyph glyph-name="uni1E9E" unicode="&#x1e9e;" horiz-adv-x="1564" 
d="M102 0l-5 30l101 49v885q0 99 39 189t111 159q73 70 185 110q114 41 252 41q137 0 255 -48t193 -124l-35 -51q-92 43 -186 43q-87 0 -153 -48t-66 -133q0 -35 12 -65q11 -28 32 -52q20 -24 57 -47q38 -24 72 -42q20 -10 93 -46q206 -98 293 -201t87 -272
q0 -185 -133 -302q-134 -117 -363 -117q-91 0 -172 13q-84 13 -129 27q-41 12 -109 36l2 346h36l105 -238q122 -102 267 -102t237 78t92 217q0 58 -18 106q-18 47 -44 81t-75 68q-47 33 -90 55q-41 21 -111 54q-51 25 -83 42q-38 20 -77 51t-67 66q-27 35 -45 82
q-18 48 -18 102q0 95 54 167q53 71 135 106q80 34 171 34q31 0 55 -2q-108 47 -244 47q-93 0 -171 -27t-139 -79t-96 -140q-34 -86 -34 -202l2 -946h-275z" />
    <glyph glyph-name="uni1EBC" unicode="&#x1ebc;" horiz-adv-x="1280" 
d="M143 1397v37h938l31 -330h-37l-135 246h-512v-557l475 10v-107l-475 17v-625h588l125 260h37l-21 -348h-1012v37l111 49l-2 1262zM406 1706l1 1q89 141 189 141q46 0 117 -27t107 -27q40 0 65 12q27 12 59 42l31 -24q-44 -73 -82 -105q-39 -33 -100 -33q-50 0 -119 29
t-107 29q-41 0 -72 -19t-63 -54z" />
    <glyph glyph-name="uni1EBD" unicode="&#x1ebd;" horiz-adv-x="1083" 
d="M82 514l-1 1q0 107 39 201q39 95 105 161t156 105t191 39q146 0 247 -66t143 -174t36 -247l-745 -3q0 -225 104 -352q104 -126 275 -126q84 0 168 39q85 39 137 93l49 -51q-76 -81 -167 -126q-90 -45 -225 -45q-107 0 -201 38q-92 37 -162 107q-68 68 -109 174
q-40 104 -40 232zM263 613l569 -2q-4 152 -71 246q-66 93 -200 93q-116 0 -200 -96q-85 -97 -98 -241zM297 1254h-3q90 142 190 142q47 0 119 -27t108 -27q39 0 65 12q27 12 59 42l30 -25q-44 -73 -82 -105q-39 -33 -100 -33q-49 0 -118 29t-106 29q-67 0 -135 -71z" />
    <glyph glyph-name="Ygrave" unicode="&#x1ef2;" horiz-adv-x="1359" 
d="M61 1397v37h402v-33l-121 -53l391 -648l367 648l-150 53v33h348v-37l-84 -49l-446 -740v-522l117 -53v-33h-400v37l111 49v516l-446 746zM487 1757l56 127h28l365 -268l-18 -37z" />
    <glyph glyph-name="ygrave" unicode="&#x1ef3;" horiz-adv-x="1130" 
d="M31 946v37h385v-33l-103 -53l285 -676l305 676l-119 53v33h316v-37l-99 -49l-571 -1251l143 -64v-33h-407v37l160 60l182 389l-377 862zM354 1307l56 127h28l365 -269l-19 -37z" />
    <glyph glyph-name="uni2000" unicode="&#x2000;" horiz-adv-x="961" 
 />
    <glyph glyph-name="uni2001" unicode="&#x2001;" horiz-adv-x="1923" 
 />
    <glyph glyph-name="uni2002" unicode="&#x2002;" horiz-adv-x="961" 
 />
    <glyph glyph-name="uni2003" unicode="&#x2003;" horiz-adv-x="1923" 
 />
    <glyph glyph-name="uni2004" unicode="&#x2004;" horiz-adv-x="641" 
 />
    <glyph glyph-name="uni2005" unicode="&#x2005;" horiz-adv-x="480" 
 />
    <glyph glyph-name="uni2006" unicode="&#x2006;" horiz-adv-x="320" 
 />
    <glyph glyph-name="uni2007" unicode="&#x2007;" horiz-adv-x="320" 
 />
    <glyph glyph-name="uni2008" unicode="&#x2008;" horiz-adv-x="240" 
 />
    <glyph glyph-name="uni2009" unicode="&#x2009;" horiz-adv-x="384" 
 />
    <glyph glyph-name="uni200A" unicode="&#x200a;" horiz-adv-x="106" 
 />
    <glyph glyph-name="uni2010" unicode="&#x2010;" horiz-adv-x="579" 
d="M61 512v90h457v-90h-457z" />
    <glyph glyph-name="uni2011" unicode="&#x2011;" horiz-adv-x="579" 
d="M61 512v90h457v-90h-457z" />
    <glyph glyph-name="figuredash" unicode="&#x2012;" horiz-adv-x="579" 
d="M61 512v90h457v-90h-457z" />
    <glyph glyph-name="endash" unicode="&#x2013;" horiz-adv-x="1011" 
d="M41 487v134h930v-134h-930z" />
    <glyph glyph-name="emdash" unicode="&#x2014;" horiz-adv-x="1447" 
d="M41 487v134h1366v-134h-1366z" />
    <glyph glyph-name="quoteleft" unicode="&#x2018;" horiz-adv-x="450" 
d="M82 995v52l233 423h54l-101 -475h-186z" />
    <glyph glyph-name="quoteright" unicode="&#x2019;" horiz-adv-x="450" 
d="M82 958l100 476h187v-52l-234 -424h-53z" />
    <glyph glyph-name="quotesinglbase" unicode="&#x201a;" horiz-adv-x="450" 
d="M82 -303l100 475h187v-51l-234 -424h-53z" />
    <glyph glyph-name="quotedblleft" unicode="&#x201c;" horiz-adv-x="761" 
d="M82 995v52l233 423h54l-101 -475h-186zM393 995v52l234 423h53l-100 -475h-187z" />
    <glyph glyph-name="quotedblright" unicode="&#x201d;" horiz-adv-x="761" 
d="M82 958l100 476h187v-52l-234 -424h-53zM393 958l101 476h186v-52l-234 -424h-53z" />
    <glyph glyph-name="quotedblbase" unicode="&#x201e;" horiz-adv-x="761" 
d="M82 -303l100 475h187v-51l-234 -424h-53zM393 -303l101 475h186v-51l-234 -424h-53z" />
    <glyph glyph-name="dagger" unicode="&#x2020;" horiz-adv-x="704" 
d="M82 1079v125l211 -12l-8 242h135l-8 -242l211 12v-125l-211 13l-9 -639h-102l-8 639z" />
    <glyph glyph-name="daggerdbl" unicode="&#x2021;" horiz-adv-x="704" 
d="M82 682v125l211 -12v297l-211 -13v125l211 -12l-8 242h135l-8 -242l211 12v-125l-211 13v-297l211 12v-125l-211 12l8 -241h-135l8 241z" />
    <glyph glyph-name="bullet" unicode="&#x2022;" horiz-adv-x="649" 
d="M82 725l-2 -1q0 100 72 171q73 71 173 71t171 -71t71 -171q0 -101 -70 -172q-71 -72 -171 -72t-172 72t-72 173z" />
    <glyph glyph-name="ellipsis" unicode="&#x2026;" horiz-adv-x="1531" 
d="M82 74q0 46 33 78q34 32 79 32q46 0 78 -32t32 -78q0 -45 -32 -79q-32 -33 -78 -33t-79 33t-33 79zM655 74q0 46 33 78q34 32 79 32t79 -32q33 -32 33 -78t-33 -79t-79 -33t-79 33t-33 79zM1229 74q0 46 32 78t78 32q45 0 79 -32q33 -32 33 -78t-33 -79t-79 -33
q-47 0 -78 33q-32 34 -32 79z" />
    <glyph glyph-name="uni202F" unicode="&#x202f;" horiz-adv-x="384" 
 />
    <glyph glyph-name="perthousand" unicode="&#x2030;" horiz-adv-x="2129" 
d="M123 1120q1 145 71 248q69 102 194 102q85 0 147 -50q61 -49 90 -128q29 -78 27 -171q-1 -145 -71 -248q-69 -102 -194 -102q-85 0 -147 50q-61 49 -90 128q-28 78 -27 171zM233 1120q0 -124 42 -211t114 -87t114 87t42 211q0 126 -42 213t-114 87t-114 -87t-42 -213z
M299 -100l831 1634h87l-828 -1634h-90zM860 313l-2 1q1 146 71 249q69 102 194 102q85 0 147 -51q62 -52 92 -129q30 -79 29 -171q-2 -146 -72 -248q-71 -102 -195 -102q-85 0 -147 50q-61 49 -90 128q-29 78 -27 171zM969 314v-2q0 -124 42 -210t114 -86t114 87t42 211
q0 126 -42 213t-114 87t-114 -87t-42 -213zM1473 312v1q1 146 71 249q69 102 194 102q86 0 147 -51t90 -129t27 -171q-1 -145 -71 -248q-69 -102 -194 -102q-85 0 -147 50q-61 49 -90 128q-28 78 -27 171zM1583 313v2q0 -124 42 -211t114 -87t114 86q42 85 42 210
q0 126 -42 213t-114 87t-114 -87t-42 -213z" />
    <glyph glyph-name="guilsinglleft" unicode="&#x2039;" horiz-adv-x="550" 
d="M102 578l277 360h70l-179 -367l179 -368h-74z" />
    <glyph glyph-name="guilsinglright" unicode="&#x203a;" horiz-adv-x="550" 
d="M102 203l179 368l-179 367h70l277 -360l-273 -375h-74z" />
    <glyph glyph-name="fraction" unicode="&#x2044;" horiz-adv-x="774" 
d="M10 2l680 1434h74l-682 -1434h-72z" />
    <glyph glyph-name="uni205F" unicode="&#x205f;" horiz-adv-x="480" 
 />
    <glyph glyph-name="Euro" unicode="&#x20ac;" horiz-adv-x="1531" 
d="M123 528l-1 93h131q-4 55 -4 96q0 39 2 65h-129v92h139q45 275 236 436q190 160 456 160q119 0 215 -14q90 -13 207 -47l-6 -328h-37l-125 242q-113 74 -252 74q-214 0 -343 -142q-128 -142 -163 -381h557l-29 -92h-537q-2 -30 -2 -65q0 -54 2 -96h498l-29 -93h-458
q69 -481 505 -481q57 0 135 21q77 21 130 57l125 227h36l7 -319q-240 -70 -435 -70q-266 0 -451 150t-237 415h-143z" />
    <glyph glyph-name="uni2116" unicode="&#x2116;" horiz-adv-x="2588" 
d="M123 0v37l110 49v1262l-104 49v37h315l697 -1100v1014l-121 49v37h326v-33l-111 -53v-1366h-76l-831 1323v-1219l121 -53v-33h-326zM1468 950l-2 1q0 218 146 369q146 150 357 150q139 0 252 -70q115 -71 179 -190q65 -121 65 -261q0 -112 -39 -211q-39 -100 -105 -170
q-65 -69 -158 -112q-91 -42 -193 -42q-142 0 -258 73q-117 73 -181 196q-65 123 -63 267zM1647 951v2q0 -95 17 -178q16 -80 53 -147q36 -66 100 -103t151 -37q82 0 146 38q63 37 99 104q36 66 54 147t18 175t-19 171q-19 79 -57 142t-100 99q-63 36 -142 36q-85 0 -150 -36
q-64 -36 -100 -99q-37 -64 -53 -141q-17 -80 -17 -173zM1839 75l-2 -1q0 44 33 75q34 32 77 32t75 -32t32 -75q0 -44 -31 -76q-31 -33 -75 -33q-43 0 -76 33t-33 77z" />
    <glyph glyph-name="trademark" unicode="&#x2122;" horiz-adv-x="1513" 
d="M123 1288v146h495v-146h-24l-37 88h-133v-456l82 -31v-25h-273v25l84 31v456h-133l-37 -88h-24zM692 864v25l72 31v458l-51 31v25h157l172 -424l181 424h159v-25l-67 -31v-458l76 -31v-25h-250v25l71 31v346l-168 -402h-38l-170 406v-350l77 -31v-25h-221z" />
    <glyph glyph-name="minus" unicode="&#x2212;" horiz-adv-x="1058" 
d="M10 543v106h1039v-106h-1039z" />
    <glyph glyph-name="uni25FC" unicode="&#x25fc;" horiz-adv-x="983" 
d="M0 0v983h983v-983h-983z" />
    <glyph glyph-name="uniFB00" unicode="&#xfb00;" horiz-adv-x="1280" 
d="M92 891l-4 65l113 27v23q0 200 78 332t214 132q75 0 147 -32l-2 -277h-37l-72 205q-31 18 -72 18q-53 0 -86 -40q-33 -41 -29 -111l14 -250h443v23q0 200 78 332t214 132q75 0 147 -32l-2 -277h-37l-72 205q-31 18 -72 18q-53 0 -86 -40q-33 -41 -29 -111l14 -250h209
v-92h-209l2 -799l134 -59v-33h-390v37l101 49v805h-443l2 -799l134 -59v-33h-390v37l101 49v805h-113z" />
    <glyph glyph-name="uniFB01" unicode="&#xfb01;" horiz-adv-x="1222" 
d="M92 891l-2 65l113 27v23q0 200 78 332t214 132q75 0 147 -32l-2 -277h-37l-72 205q-31 18 -72 18q-53 0 -86 -40q-33 -41 -29 -111l14 -250h426l248 8v-905l98 -53v-33h-350v37l101 49v805h-523l2 -799l134 -59v-33h-390v37l101 49v805h-113zM840 1339v-1q0 43 32 77
q32 33 75 33t75 -33q32 -34 32 -76q0 -43 -32 -75t-75 -32t-75 32t-32 75z" />
    <glyph glyph-name="uniFB03" unicode="&#xfb03;" horiz-adv-x="1818" 
d="M92 891l-4 65l113 27v23q0 200 78 332t214 132q75 0 147 -32l-2 -277h-37l-72 205q-31 18 -72 18q-53 0 -86 -40q-33 -41 -29 -111l14 -250h443v23q0 200 78 332t214 132q75 0 147 -32l-2 -277h-37l-72 205q-31 18 -72 18q-53 0 -86 -40q-33 -41 -29 -111l14 -250h426
l248 8v-905l98 -53v-33h-350v37l101 49v805h-523l2 -799l134 -59v-33h-390v37l101 49v805h-443l2 -799l134 -59v-33h-390v37l101 49v805h-113zM1434 1339v-1q0 43 32 77q32 33 75 33t75 -33q32 -34 32 -76q0 -43 -32 -75t-75 -32t-75 32t-32 75z" />
    <glyph glyph-name="i.loclTRK" horiz-adv-x="544" 
d="M102 0v37l101 49v809l-94 51v35l245 10v-905l99 -53v-33h-351zM174 1303l-2 -1q0 44 33 75q34 32 77 32t75 -32t32 -75q0 -44 -31 -76q-32 -33 -75 -33t-76 33t-33 77z" />
    <glyph glyph-name="zero.osf" horiz-adv-x="1208" 
d="M164 510l-2 2q0 251 122 399q122 147 318 147q194 0 317 -144t123 -403t-123 -403t-316 -144q-197 0 -318 147q-121 146 -121 399zM334 512v-4q0 -229 70 -357q70 -129 198 -129q127 0 198 131t71 357t-71 357t-198 131q-128 0 -198 -129q-70 -128 -70 -357z" />
    <glyph glyph-name="one.osf" horiz-adv-x="870" 
d="M184 860v39l336 121h19v-934l157 -53v-33h-479v37l168 49v774h-201z" />
    <glyph glyph-name="two.osf" horiz-adv-x="1126" 
d="M184 0l-1 116l412 352q89 76 128 147q39 72 39 162q0 95 -60 156q-60 62 -155 62q-62 0 -116 -20q-53 -19 -81 -51l-88 -207h-37l-6 278q22 7 51 17t35 12q26 9 98 21q71 12 144 12q171 0 273 -81t102 -216q0 -108 -56 -197t-170 -170l-364 -260h491l82 176h37v-309h-758
z" />
    <glyph glyph-name="three.osf" horiz-adv-x="1140" 
d="M143 -389v327h36l109 -258q78 -72 186 -72q130 0 211 111t81 272q0 166 -107 252t-296 86v73h47q139 0 231 91q93 91 93 231q0 113 -67 192t-180 79q-122 0 -187 -71l-88 -207h-37l-6 278q177 62 339 62q174 0 283 -86q108 -86 108 -230q0 -136 -75 -232
q-75 -97 -198 -119q157 -23 242 -129q86 -107 86 -264q0 -194 -130 -321t-345 -127q-55 0 -114 8q-61 8 -80 13q-10 3 -79 23q-56 17 -63 18z" />
    <glyph glyph-name="four.osf" horiz-adv-x="1101" 
d="M102 0v94l607 926h120v-926h170v-94h-170v-412h-153v412h-574zM203 92h473v719z" />
    <glyph glyph-name="five.osf" horiz-adv-x="1189" 
d="M184 -367l7 291h37l109 -248q76 -55 174 -55q68 0 122 21q55 21 92 57q38 37 62 87q25 53 35 108q11 60 11 121q0 165 -87 279t-219 114q-137 0 -225 -109l-68 41l15 684h670v-158h-590l-9 -452q103 82 252 82q122 0 222 -61t156 -165t56 -226q0 -134 -61 -246t-176 -180
q-113 -67 -258 -67q-150 0 -327 82z" />
    <glyph glyph-name="six.osf" horiz-adv-x="1224" 
d="M184 633l-2 -3q0 172 33 322q33 151 96 266q63 116 165 183q101 67 229 67q133 0 264 -61l-6 -272h-37l-90 229q-58 39 -135 39q-74 0 -132 -43q-60 -44 -95 -109q-36 -65 -63 -155q-27 -88 -39 -170q-11 -76 -16 -166q46 57 116 90q69 33 150 33q186 0 300 -129
t114 -327q0 -199 -117 -333q-117 -133 -299 -133q-94 0 -171 44t-125 113t-81 159q-32 87 -46 179q-13 85 -13 177zM354 583l-2 2q0 -125 15 -224t48 -177q33 -79 88 -120q55 -42 130 -42q66 0 115 35q48 35 74 95q24 58 37 128q12 68 12 147q0 68 -17 138q-17 68 -48 125
q-32 57 -86 92q-55 35 -122 35q-138 0 -240 -135q-4 -52 -4 -99z" />
    <glyph glyph-name="seven.osf" horiz-adv-x="1220" 
d="M154 696l12 326h899v-119q-99 -112 -187 -258q-85 -141 -157 -312q-71 -168 -111 -361q-40 -191 -40 -384h-190q0 157 37 314q37 158 95 290q56 128 137 261q79 130 155 227q78 99 159 188h-662l-111 -172h-36z" />
    <glyph glyph-name="eight.osf" horiz-adv-x="1236" 
d="M164 332h-3q0 78 25 141q26 65 72 116q49 53 100 89q55 38 124 72q-130 81 -189 171q-58 89 -58 205q0 153 111 249t278 96q155 0 267 -89q111 -88 111 -234q0 -121 -73 -207t-198 -142q88 -44 145 -82q60 -40 105 -88q47 -49 69 -111q22 -60 22 -138q0 -182 -130 -300
t-339 -118q-190 0 -315 104q-124 103 -124 266zM292 330l-4 1q0 -125 84 -216t228 -91q140 0 231 87q92 87 92 215q0 52 -15 96q-15 45 -40 78q-27 36 -70 68q-49 36 -91 59q-47 25 -117 60q-26 12 -33 17q-127 -64 -196 -154t-69 -220zM368 1158l-2 -2q0 -100 64 -171
q64 -72 231 -156q100 58 153 140q52 80 52 173q0 120 -70 191q-70 72 -183 72q-108 0 -176 -67q-69 -68 -69 -180z" />
    <glyph glyph-name="nine.osf" horiz-adv-x="1224" 
d="M184 592l-4 -2q0 200 118 333t300 133q80 0 147 -30q68 -30 114 -82t82 -118q37 -67 56 -143q19 -77 30 -150q10 -70 10 -145q0 -172 -33 -322q-33 -151 -96 -266q-63 -116 -165 -183q-101 -67 -229 -67q-129 0 -264 62l6 272h37l90 -229q59 -39 135 -39q62 0 113 30
t87 81t63 114q28 65 44 138q18 80 26 143q8 60 13 137q-100 -123 -264 -123q-185 0 -301 129q-115 128 -115 327zM346 590l-2 -4q0 -68 17 -138q16 -67 50 -125q33 -58 87 -92q55 -35 122 -35q137 0 239 135q4 52 4 99q0 125 -15 224q-15 97 -47 177q-31 78 -87 120t-130 42
q-68 0 -115 -34q-49 -35 -74 -94q-24 -58 -37 -128q-12 -67 -12 -147z" />
    <glyph glyph-name="exclamdown.case" horiz-adv-x="589" 
d="M184 1360q0 46 33 78q34 32 79 32t79 -32q33 -32 33 -78t-33 -79t-79 -33t-79 33t-33 79zM203 0l65 1067h51l64 -1067h-180z" />
    <glyph glyph-name="questiondown.case" horiz-adv-x="919" 
d="M123 279l-1 -1q0 76 21 138q20 60 56 103q36 44 76 81q42 39 84 81q45 45 77 91q35 50 56 125t21 170h74q0 -127 -30 -226t-72 -162q-39 -59 -84 -118q-42 -55 -72 -123t-30 -149q0 -109 64 -182q65 -74 165 -74q71 0 129 47l97 213h37l6 -268q-153 -62 -297 -62
q-164 0 -270 87q-107 87 -107 229zM437 1359q0 47 33 78q34 32 79 32q46 0 78 -32t32 -78q0 -45 -32 -79q-31 -33 -78 -33q-46 0 -79 33t-33 79z" />
    <glyph glyph-name="periodcentered.case" horiz-adv-x="385" 
d="M82 776q0 46 33 79t79 33t78 -33q32 -34 32 -79q0 -46 -32 -78t-78 -32q-45 0 -79 32q-33 32 -33 78z" />
    <glyph glyph-name="parenleft.case" horiz-adv-x="997" 
d="M123 696v-3q0 182 55 344q56 165 151 288q96 125 225 213t279 126v-45q-240 -84 -395 -337q-156 -254 -156 -588t156 -586t395 -336v-45q-149 37 -279 125q-128 86 -225 212q-95 123 -151 288q-55 162 -55 344z" />
    <glyph glyph-name="parenright.case" horiz-adv-x="997" 
d="M164 -227v1q239 84 395 336t156 587t-156 588q-155 253 -395 337v45q150 -37 279 -126t225 -213q95 -123 151 -288q55 -162 55 -345q0 -181 -55 -343q-56 -165 -151 -288t-225 -211t-279 -125v45z" />
    <glyph glyph-name="braceleft.case" horiz-adv-x="858" 
d="M123 676l-1 43q77 0 128 48t51 143v441q0 131 64 196q65 67 201 95l127 27v-45l-67 -25q-82 -31 -126 -99q-43 -67 -43 -184v-387q0 -97 -39 -153q-39 -55 -122 -78q83 -23 122 -78q39 -56 39 -153v-387q0 -116 44 -184q43 -68 126 -99l67 -24v-45l-127 26
q-136 28 -201 95q-64 65 -64 196v440q0 95 -51 143t-128 48z" />
    <glyph glyph-name="braceright.case" horiz-adv-x="858" 
d="M164 -227l66 19q82 32 126 99q44 68 44 185v387q0 97 39 153q39 55 122 78q-83 23 -122 78q-39 56 -39 153v387q0 117 -43 184q-43 68 -126 99l-67 25v45l127 -27q137 -29 201 -94t64 -196v-441q0 -94 51 -142t128 -48v-41q-77 0 -128 -48t-51 -143v-440q0 -131 -64 -196
q-65 -67 -201 -95l-127 -26v45z" />
    <glyph glyph-name="bracketleft.case" horiz-adv-x="698" 
d="M123 -272v1937h412v-37l-259 -65v-1733l259 -66v-36h-412z" />
    <glyph glyph-name="bracketright.case" horiz-adv-x="698" 
d="M164 -236l258 66v1733l-258 65v37h411v-1937h-411v36z" />
    <glyph glyph-name="hyphen.case" horiz-adv-x="579" 
d="M61 696v90h457v-90h-457z" />
    <glyph glyph-name="endash.case" horiz-adv-x="1011" 
d="M41 672v133h930v-133h-930z" />
    <glyph glyph-name="emdash.case" horiz-adv-x="1447" 
d="M41 672v133h1366v-133h-1366z" />
    <glyph glyph-name="guillemotleft.case" horiz-adv-x="858" 
d="M102 737l277 361h70l-179 -367l179 -369h-74zM410 741l276 361h70l-178 -367l178 -368h-74z" />
    <glyph glyph-name="guillemotright.case" horiz-adv-x="858" 
d="M102 367l179 368l-179 367h70l277 -361l-273 -374h-74zM410 367l178 368l-178 367h69l277 -361l-273 -374h-73z" />
    <glyph glyph-name="guilsinglleft.case" horiz-adv-x="550" 
d="M102 737l277 361h70l-179 -367l179 -369h-74z" />
    <glyph glyph-name="guilsinglright.case" horiz-adv-x="550" 
d="M102 367l179 368l-179 367h70l277 -361l-273 -374h-74z" />
    <glyph glyph-name="ampersand.ss01" horiz-adv-x="1429" 
d="M61 385v-2q0 149 95 258q94 107 240 145q-108 212 -108 360q0 152 108 237q109 86 275 86q158 0 319 -61l-6 -328h-37l-78 236q-35 38 -88 60q-55 23 -112 23q-97 0 -150 -57q-52 -56 -52 -158q0 -158 150 -416t344 -467l137 361l-135 53v33h405v-37l-119 -49l-237 -414
q182 -182 273 -182q61 0 107 30l16 -39q-34 -37 -104 -66q-68 -28 -133 -28q-129 0 -229 92l-51 49q-147 -141 -359 -141q-226 0 -348 115q-123 116 -123 307zM246 397h-1q0 -156 90 -252t222 -96q169 0 291 101q-258 287 -418 573q-88 -49 -136 -135q-48 -85 -48 -191z" />
    <glyph glyph-name="caron.alt" horiz-adv-x="364" 
d="M102 1102v332h160v-52l-127 -280h-33z" />
    </font>
</defs>
</svg>
